<svg xmlns="http://www.w3.org/2000/svg" width="282.163" height="203.956" viewBox="0 0 282.163 203.956"><defs><style>.a,.i{fill:#4beac5;}.b,.c{fill:#fff;}.b{opacity:0.7;}.c,.d,.e,.f,.g,.i,.j{stroke:#263238;}.c,.d,.f,.g,.h,.i,.j,.k{stroke-linecap:round;stroke-linejoin:round;}.d{fill:#263238;}.e,.g,.h,.k{fill:none;}.e{stroke-miterlimit:10;}.f{fill:#707070;}.h{stroke:#6b6b6b;}.j{fill:#757575;}.k{stroke:gray;}</style></defs><g transform="translate(0.5)"><g transform="translate(22.185 0)"><path class="a" d="M272.675,97.895S257.592,67.7,224.29,63.232s-56.55,17.331-81.058,28.512c-12.829,5.857-27.487,3.6-41.113,6.421C58.56,107.217,42.145,164,60.292,196.3,76,224.25,103.648,238.782,145.75,242.139s71.628,7.266,109.33-20.125S290.271,137.593,272.675,97.895Z" transform="translate(-53.006 -62.636)"/><path class="b" d="M272.675,97.895S257.592,67.7,224.29,63.232s-56.55,17.331-81.058,28.512c-12.829,5.857-27.487,3.6-41.113,6.421C58.56,107.217,42.145,164,60.292,196.3,76,224.25,103.648,238.782,145.75,242.139s71.628,7.266,109.33-20.125S290.271,137.593,272.675,97.895Z" transform="translate(-53.006 -62.636)"/></g><g transform="translate(85.632 44.527)"><rect class="c" width="158.177" height="67.857" transform="translate(4.298 1.912)"/><rect class="c" width="166.78" height="2.866" transform="translate(0 0)"/><rect class="d" width="158.177" height="2.392" transform="translate(4.298 67.377)"/><circle class="e" cx="10.857" cy="10.857" r="10.857" transform="translate(15.652 33.827) rotate(-80.3)"/><line class="e" y2="30.796" transform="translate(27.984 10.941)"/><line class="e" x2="28.032" transform="translate(13.77 25.155)"/><line class="e" x2="28.032" transform="translate(72.353 27.793)"/><line class="e" y2="30.796" transform="translate(86.171 13.189)"/><path class="e" d="M285.46,165.49l4.256,3.309a10.683,10.683,0,0,0,12.925.15l4.143-3.063" transform="translate(-209.552 -148.356)"/><path class="e" d="M306.754,194.916l-4.256-3.309a10.7,10.7,0,0,0-12.931-.15l-4.136,3.063" transform="translate(-209.54 -157.915)"/><line class="e" y2="25.856" transform="translate(136.463 12.889)"/><line class="e" x2="26.246" transform="translate(122.573 26.006)"/><line class="e" y2="2.098" transform="translate(124.257 24.975)"/><line class="e" y2="2.098" transform="translate(125.78 24.975)"/><line class="e" y2="2.098" transform="translate(127.309 24.975)"/><line class="e" y2="2.098" transform="translate(128.832 24.975)"/><line class="e" y2="2.098" transform="translate(130.36 24.975)"/><line class="e" y2="2.098" transform="translate(131.883 24.975)"/><line class="e" y2="2.098" transform="translate(133.406 24.975)"/><line class="e" y2="2.098" transform="translate(134.934 24.975)"/><line class="e" y2="2.098" transform="translate(137.98 24.975)"/><line class="e" y2="2.098" transform="translate(139.509 24.975)"/><line class="e" y2="2.098" transform="translate(141.031 24.975)"/><line class="e" y2="2.098" transform="translate(142.56 24.975)"/><line class="e" y2="2.098" transform="translate(144.083 24.975)"/><line class="e" y2="2.098" transform="translate(145.605 24.975)"/><line class="e" y2="2.098" transform="translate(147.134 24.975)"/><line class="e" x2="2.098" transform="translate(135.414 37.462)"/><line class="e" x2="2.098" transform="translate(135.414 35.934)"/><line class="e" x2="2.098" transform="translate(135.414 34.411)"/><line class="e" x2="2.098" transform="translate(135.414 32.882)"/><line class="e" x2="2.098" transform="translate(135.414 31.36)"/><line class="e" x2="2.098" transform="translate(135.414 29.837)"/><line class="e" x2="2.098" transform="translate(135.414 28.308)"/><line class="e" x2="2.098" transform="translate(135.414 23.734)"/><line class="e" x2="2.098" transform="translate(135.414 22.211)"/><line class="e" x2="2.098" transform="translate(135.414 20.683)"/><line class="e" x2="2.098" transform="translate(135.414 19.16)"/><line class="e" x2="2.098" transform="translate(135.414 17.637)"/><line class="e" x2="2.098" transform="translate(135.414 16.108)"/><line class="e" x2="2.098" transform="translate(135.414 14.586)"/><line class="e" x2="23.944" transform="translate(15.671 48.014)"/><line class="e" x2="23.944" transform="translate(15.671 50.963)"/><line class="e" x2="23.944" transform="translate(15.671 53.913)"/><line class="e" x2="23.944" transform="translate(15.671 56.868)"/><line class="e" x2="23.944" transform="translate(76.346 48.014)"/><line class="e" x2="23.944" transform="translate(76.346 50.963)"/><line class="e" x2="23.944" transform="translate(76.346 53.913)"/><line class="e" x2="23.944" transform="translate(76.346 56.868)"/><line class="e" x2="23.944" transform="translate(125.87 48.014)"/><line class="e" x2="23.944" transform="translate(125.87 50.963)"/><line class="e" x2="23.944" transform="translate(125.87 53.913)"/><line class="e" x2="23.944" transform="translate(125.87 56.868)"/><line class="e" x2="23.938" transform="translate(45.52 32.271)"/><line class="e" x2="23.938" transform="translate(45.52 35.22)"/><line class="e" x2="23.938" transform="translate(45.52 38.17)"/><line class="e" x2="23.938" transform="translate(45.52 41.125)"/><line class="e" x2="23.938" transform="translate(99.306 10.293)"/><line class="e" x2="23.938" transform="translate(99.306 13.249)"/><line class="e" x2="23.938" transform="translate(99.306 16.198)"/><line class="e" x2="23.938" transform="translate(99.306 19.148)"/></g><g transform="translate(8.974 114.122)"><rect class="d" width="30.88" height="25.94" transform="translate(7.242 0)"/><rect class="d" width="30.88" height="1.649" transform="translate(25.982 29.237)"/><rect class="f" width="5.971" height="11.942" transform="translate(18.776 18.734)"/><rect class="f" width="82.353" height="54.788" transform="translate(3.747 33.242)"/><rect class="f" width="2.776" height="55.687" transform="translate(2.32 33.638)"/><rect class="f" width="2.776" height="55.687" transform="translate(84.445 33.638)"/><rect class="f" width="91.123" height="5.234" transform="translate(0 30.316)"/></g><g transform="translate(128.939 69.769)"><path class="c" d="M243.662,217.254s-3.309,2.056-4.382,4.742-5.545,16.564-6.708,18.357a5.385,5.385,0,0,0,.18,6.085c1.343,1.523,3.6,2.5,5.455.713s2.4-5.365,4.2-9.592,3.315-16.12,4.2-18.536a19.113,19.113,0,0,0,1.073-4.472Z" transform="translate(-231.337 -193.247)"/><path class="d" d="M275.559,276.4a100.472,100.472,0,0,1,.264,10.737c-.27,3.621-2.68,26.462-2.68,26.462l-3.489,30.814h-5.366l-3.9-45.442-5.228,45.31h-5.5s-3.219-28.536-4.16-35.37a64.666,64.666,0,0,1-.4-12.9c0-.4-1.2-9.526-1.2-12.074a44.422,44.422,0,0,1,.36-5.192l-.222-.983s9.928,2.686,16.786,1.073,13.549-3.753,13.549-3.753Z" transform="translate(-236.215 -217.494)"/><path class="g" d="M281.907,390.718l1.607,5.5a.761.761,0,0,1-.264,1.073c-.671.4-8.189,0-8.189,0a1.049,1.049,0,0,1-.534-1.2,53.021,53.021,0,0,1,2.014-5.4Z" transform="translate(-248.467 -263.796)"/><path class="g" d="M253.261,390.51l.486,5.018a1.318,1.318,0,0,1-.234.881h0a1.3,1.3,0,0,1-1.055.54h-10.4c-1.055,0-3.093-.036-2.9-1.073h0c.132-.671,8.585-5.348,8.585-5.348Z" transform="translate(-234.311 -263.72)"/><path class="h" d="M267.289,308.906l-1.337-5.659-4.832-3.357" transform="translate(-243.111 -227.426)"/><path class="c" d="M246.114,223.021v10.461c0,.6-3.219,14.388-3.489,15.743a4.988,4.988,0,0,0,1.073,4.113c1.073,1.517,5.1,3.045,13.866,3.759s15.3-2.506,17.086-4.562-.27-5.995-.893-11.54-.809-23.1-3.309-24.238-10.557-5.006-10.557-5.006a22.748,22.748,0,0,0-7.6,1.343,15.587,15.587,0,0,0-5.192,4.023" transform="translate(-235.665 -192.126)"/><path class="c" d="M263.645,208.638a2.4,2.4,0,0,1,2.4,1.433c.629,1.613-1.343,11.36-1.343,11.36s-4.382-3.129-5.455-3.129-5.995,3.129-5.995,3.129,1.613-6.708,3.045-9.3,5.366-4.023,6.978-3.6Z" transform="translate(-239.959 -190.806)"/><path class="c" d="M266.648,207.27s.36.893-1.253,5.192-2.4,7.961-3.4,6.972-2.146-6.169-2.146-6.169S265.036,209.506,266.648,207.27Z" transform="translate(-242.603 -190.331)"/><path class="c" d="M247.19,193.372a72.052,72.052,0,0,0,1.75,7.368c.869,2.614,1.99,6.481,4.982,7.35s3.867-1.367,5.114-2.4,3.237-4.364,3.237-5.995-.126-5.234-.749-6.481-1.745-2.494-4.982-3.117S250.307,190,247.19,193.372Z" transform="translate(-237.532 -183.363)"/><path class="d" d="M260.409,192.387s-1.87.749-2.368-.372-1.373-2.746-1.373-2.746A24.391,24.391,0,0,1,250.44,191c-2.362.1-4.988-1.367-5.359-3s1-5.234,4.113-7.194,9.592-2.872,11.588.246a13.662,13.662,0,0,1,2.122,7.979c0,2.116-.126,3.6-.126,3.6A2.877,2.877,0,0,0,260.409,192.387Z" transform="translate(-236.663 -179.015)"/><path class="c" d="M269.44,201.091s1.121-2.872,2.242-2.494,1.247,2.62.6,3.987-2.242,1.87-2.614,1.625" transform="translate(-246.443 -186.844)"/><path class="g" d="M251.687,205.162s4.508-.318,5.461-.192.821,1.2.57,2.4-1.715,1.906-3.429,1.589-2.1-1.8-2.4-2.032-.444-.51-.821-.318-.318,1.523-.761,2.092a2.421,2.421,0,0,1-3,.318c-1.343-.7-1.271-2.728-1.271-3.429s.7-.635,1.013-.6S251.687,205.162,251.687,205.162Z" transform="translate(-237.071 -189.399)"/><line class="g" y1="2.86" x2="2.794" transform="translate(20.713 12.97)"/><line class="g" y1="1.331" x2="1.079" transform="translate(9.28 14.241)"/><path class="g" d="M254.02,208.91s-.252.761-.384,1.4.384,1.906,1.145,1.8.953-.51.953-.51" transform="translate(-240.106 -190.988)"/><path class="g" d="M261.258,203.716a3.819,3.819,0,0,0-2.608.126" transform="translate(-242.122 -188.839)"/><path class="g" d="M251.872,204a1.667,1.667,0,0,0-2.032-.066" transform="translate(-238.594 -188.868)"/><path class="c" d="M280.348,218.31s3.849,1.163,5.545,2.6,4.436,12.685,5.24,18.051,2.056,10.006.983,10.635-17.853-1.565-17.853-1.565l-.534-2.59,10.935-2.278s-6.109-11.99-6.283-15.275a11.546,11.546,0,0,1,.713-5.186" transform="translate(-248.162 -194.753)"/><path class="i" d="M249.371,253.26l4.736,11.63-8.045,2.949-5.012-11.271Z" transform="translate(-235.073 -208.751)"/><path class="i" d="M237.225,255.972l-5.725-4.2,5.1,11.81,5.641,3.663Z" transform="translate(-231.248 -208.154)"/><path class="c" d="M264.073,261.955s-6.445-1.8-7.158-2.326-6.708,1.876-7.068,1.876-.27.45.09.629,4.292-.9,4.292-.9-3.753,1.972-3.753,2.4a.977.977,0,0,0,.354.719s.09.8.54.983,5.006-.719,5.006-.719-3.6,1.343-3.129,1.613a1.367,1.367,0,0,0,1.433,0c.534-.27,3.759-1.253,3.759-1.253a9.272,9.272,0,0,0,3.753.36,21.1,21.1,0,0,0,2.4-.809Z" transform="translate(-238.505 -211.271)"/><line class="g" y1="1.253" x2="4.472" transform="translate(12.326 51.847)"/><path class="c" d="M232.315,257.325a35.705,35.705,0,0,1,3.6,2.95,1.84,1.84,0,0,1,.36,1.433l-1.972-.8a23.92,23.92,0,0,1,2.6,2.59c.09.354.983,1.882-.09,1.7s-4.292-1.876-4.922-2.776-.8-5.1-.8-5.1S231.332,256.432,232.315,257.325Z" transform="translate(-231.08 -210.22)"/><line class="g" x1="3.579" y1="2.146" transform="translate(2.218 51.667)"/><path class="g" d="M238.779,268.806a31.5,31.5,0,0,1-3.849-1.966" transform="translate(-232.622 -214.19)"/><line class="g" x1="1.073" y1="0.719" transform="translate(2.128 49.965)"/></g><g transform="translate(149.64 149.774)"><rect class="c" width="2.494" height="50.681" transform="translate(2.086 2.991)"/><rect class="c" width="2.494" height="50.681" transform="translate(115.93 2.991)"/><rect class="c" width="121.931" height="4.706" transform="translate(0 0)"/></g><g transform="translate(21.816 149.774)"><rect class="c" width="2.494" height="50.681" transform="translate(2.086 2.991)"/><rect class="c" width="2.494" height="50.681" transform="translate(115.924 2.991)"/><rect class="c" width="121.931" height="4.706" transform="translate(0 0)"/></g><g transform="translate(219.59 100.91)"><path class="f" d="M401.8,332.28,407.531,369l3.069.192.725-36.012Z" transform="translate(-390.105 -271.54)"/><path class="c" d="M411.36,393.53v4.089a.654.654,0,0,0,.6.648l2.248.126a.648.648,0,0,0,.677-.725l-.456-3.945Z" transform="translate(-393.934 -296.071)"/><path class="f" d="M432.778,332.43l-6.361,36.593-3.075.12-.1-36.018Z" transform="translate(-398.692 -271.6)"/><path class="c" d="M426.121,393.47l-.072,4.083a.647.647,0,0,1-.629.635l-2.254.078a.647.647,0,0,1-.659-.737l.539-3.939Z" transform="translate(-398.395 -296.047)"/><path class="i" d="M392.177,273.09s-9.592,18.584-9.856,20.167a3.536,3.536,0,0,0,4.053,3.663c2.746-.264,9.9-.39,9.9-.39l.132-2.488L388.16,293l4.97-3.927Z" transform="translate(-382.292 -247.834)"/><line class="g" x1="1.001" y2="1.96" transform="translate(4.867 45.165)"/><path class="i" d="M439.415,273.76s9.772,18.195,10.036,19.783a3.534,3.534,0,0,1-4.053,3.663c-2.746-.264-9.166-.39-9.166-.39l-.132-2.53,4.46-1.043-3.123-3.975Z" transform="translate(-403.842 -248.102)"/><line class="g" x2="4.053" y2="1.96" transform="translate(36.718 45.165)"/><path class="i" d="M407.9,264.6l-6.295,3.333c-3.147,1.667-2.638.731-2.824,1.565s1.061,29.717,1.061,29.717,2.4,2.338,8.7,2.961c9.436.923,13.507-2.038,13.507-2.038s2.4-29.219,2.4-30.238-3.9-3-6.391-4.2A13.8,13.8,0,0,0,407.9,264.6Z" transform="translate(-388.887 -244.243)"/><path class="d" d="M414.361,231.584s-4.083,1.8-5.4,4.73.815,9.79.324,11.582-2.77,1.631-2.77,1.631.977,5.551,6.522,6.2,8-.168,10.281-2.614,1.8-2.446,1.8-2.446-.977,0-1.469-2.776.162-10.605-2.284-14.028S415.2,230.577,414.361,231.584Z" transform="translate(-391.996 -230.961)"/><path class="f" d="M400.144,322.66s-.827,9.25-.552,10.455,3.147,3.147,8.992,3.333,13.141.462,14.9-1.667-1.115-11.2-1.115-11.2S406.81,324.878,400.144,322.66Z" transform="translate(-389.198 -267.687)"/><path class="g" d="M420.09,264.316s.138-.959,3-.138" transform="translate(-397.43 -244.132)"/><path class="d" d="M399.928,377.224h0a.647.647,0,0,1-.6-.7l1.9-34.992,2.182.174-2.794,34.927A.647.647,0,0,1,399.928,377.224Z" transform="translate(-389.114 -275.245)"/><path class="d" d="M437.253,377.224h0a.654.654,0,0,0,.6-.7l-1.9-34.992-2.182.174,2.788,34.927A.653.653,0,0,0,437.253,377.224Z" transform="translate(-402.909 -275.245)"/><path class="d" d="M423.388,295.571a105.856,105.856,0,0,1-14.742,1.085,102.552,102.552,0,0,1-13.788-1.085,1.115,1.115,0,0,0-1.277,1.271c.707,4.424,2.716,17.152,2.716,19.585,0,2.962-1.019,5.743-1.019,7.038a2.7,2.7,0,0,0,1.481,2.68c.432.174,5.282.186,11.84.15,7.59.036,12.445,0,12.871-.15a2.7,2.7,0,0,0,1.481-2.68c0-1.295-1.019-4.077-1.019-7.038,0-2.434,2.008-15.167,2.722-19.585a1.109,1.109,0,0,0-1.265-1.271Zm-4.748,27.115c-.33.126-4.071.138-9.922.108-5.054.03-8.795,0-9.124-.108a2.069,2.069,0,0,1-1.139-2.05c0-.989.779-3.111.779-5.4,0-.528-.126-1.7-.318-3.189l1.852,2.008a2.716,2.716,0,0,0,1.984.863h12.709a2.7,2.7,0,0,0,1.888-.767l1.936-1.888c-.18,1.385-.294,2.47-.294,3,0,2.26.785,4.382.785,5.4a2.069,2.069,0,0,1-1.139,2.026Zm2.452-22.367c-.312,1.918-.947,5.881-1.439,9.286l-1.846,1.145a6.594,6.594,0,0,1-3.435.959H404.019a6.594,6.594,0,0,1-3.345-.911l-2.1-1.235c-.486-3.4-1.115-7.338-1.427-9.244a.857.857,0,0,1,.983-.971,79.487,79.487,0,0,0,10.629.827,81.953,81.953,0,0,0,11.39-.827.851.851,0,0,1,.947.971Z" transform="translate(-386.808 -256.832)"/></g><g transform="translate(161.008 105.599)"><path class="c" d="M322.28,274.184V269.19h7.128v5.365Z" transform="translate(-299.674 -250.961)"/><path class="c" d="M315.675,258.469s-1.115-.282-1.115,1.481,1.463,2.991,2.062,2.866-.276-3.423-.372-4.071S315.675,258.469,315.675,258.469Z" transform="translate(-296.582 -246.625)"/><path class="c" d="M338.808,258.469s1.109-.282,1.109,1.481-1.457,2.991-2.056,2.866.276-3.423.366-4.071S338.808,258.469,338.808,258.469Z" transform="translate(-305.831 -246.625)"/><path class="d" d="M329.457,243.655s.7-.348-.084-2a3.4,3.4,0,0,0-2.26-1.912s.6-.348.6-.7-.779-.432-3.129.264a3.057,3.057,0,0,0-2.4,2.71.946.946,0,0,0-.138-.066c-.57-.276-2.776-1.259-3.831-.731-1.2.6.174.432.174.432a5.485,5.485,0,0,0-3.477,2.086c-1.3,1.8-.348,2-.084,2s.522-.785.522-.785v1.655s.03.144.084.372a20.812,20.812,0,0,0,.642,6.972c.462,2.224,2.314,4.352,3.7,4.8s5.641,0,5.641,0a15.993,15.993,0,0,0,2.686-3.6,12.481,12.481,0,0,0,1.2-5.216,8.572,8.572,0,0,0,.821-3.159C330.327,244.524,329.457,243.655,329.457,243.655Z" transform="translate(-296.456 -238.783)"/><path class="i" d="M328.068,261.879s-3.927-2.116-7.793-.462a10.728,10.728,0,0,0-3.885,3.327,22.145,22.145,0,0,1,5.995-.923,73.537,73.537,0,0,1,7.494.552A8.393,8.393,0,0,0,328.068,261.879Z" transform="translate(-297.315 -247.595)"/><path class="i" d="M295.056,277.27s-10.191,16.09-10.455,17.661a3.542,3.542,0,0,0,4.053,3.663c2.746-.264,12.949-.39,12.949-.39l.132-2.488-8.237-1.043,4.97-3.927Z" transform="translate(-284.572 -254.197)"/><line class="g" x1="4.059" y2="1.96" transform="translate(4.867 40.476)"/><path class="i" d="M350.016,276.19S360.346,292.928,360.6,294.5a3.545,3.545,0,0,1-4.053,3.663c-2.746-.264-12.949-.39-12.949-.39l-.132-2.488,8.243-1.043-4.97-3.927Z" transform="translate(-308.161 -253.764)"/><line class="g" x2="4.053" y2="1.96" transform="translate(43.552 40.476)"/><path class="i" d="M313.626,264.6l-6.295,3.333c-3.147,1.667-5.09,3.237-5.276,4.071s3.519,27.211,3.519,27.211,2.4,2.338,8.7,2.962c9.436.923,13.507-2.038,13.507-2.038s5.647-27.763,5.647-28.776-7.128-4.442-9.622-5.647A13.808,13.808,0,0,0,313.626,264.6Z" transform="translate(-291.572 -248.933)"/><path class="c" d="M298.97,334.913l11.013,35.2,3.057-.372L308.5,334.08Z" transform="translate(-290.339 -276.95)"/><path class="c" d="M317.34,393.932l.725,4.023a.648.648,0,0,0,.719.528l2.236-.288a.647.647,0,0,0,.54-.833l-1.163-3.8Z" transform="translate(-297.696 -300.772)"/><path class="c" d="M346.21,334.913,335.2,370.11l-3.057-.372,4.538-35.658Z" transform="translate(-303.623 -276.95)"/><path class="c" d="M334.389,393.932l-.743,4.023a.648.648,0,0,1-.719.528l-2.236-.288a.647.647,0,0,1-.539-.833l1.163-3.8Z" transform="translate(-302.815 -300.772)"/><path class="c" d="M313.565,326.924s-10.084-3.147-11.936-2.218a5.561,5.561,0,0,0-3.057,5.995c.647,2.668,6.2,5.923,7.4,5.995s7.686,0,7.686,0Z" transform="translate(-290.126 -273.126)"/><path class="c" d="M331.88,326.924s10.089-3.147,11.942-2.218a5.557,5.557,0,0,1,3.051,5.995c-.647,2.668-6.2,5.923-7.4,5.995s-7.679,0-7.679,0Z" transform="translate(-303.483 -273.126)"/><path class="c" d="M307.52,322.66s-.833,9.25-.557,10.455,3.147,3.147,8.992,3.333,13.141.462,14.9-1.667-1.115-11.2-1.115-11.2S314.157,324.878,307.52,322.66Z" transform="translate(-293.517 -272.376)"/><path class="d" d="M307.3,377.224h0a.653.653,0,0,1-.6-.7l1.9-34.992,2.182.174-2.788,34.927A.654.654,0,0,1,307.3,377.224Z" transform="translate(-293.433 -279.933)"/><path class="d" d="M344.673,377.224h0a.654.654,0,0,0,.6-.7l-1.9-34.992-2.182.174,2.788,34.927A.653.653,0,0,0,344.673,377.224Z" transform="translate(-307.248 -279.933)"/><path class="d" d="M330.718,295.571a105.868,105.868,0,0,1-14.742,1.085,102.723,102.723,0,0,1-13.788-1.085,1.115,1.115,0,0,0-1.277,1.271c.713,4.424,2.722,17.152,2.722,19.586,0,2.962-1.019,5.743-1.019,7.038a2.7,2.7,0,0,0,1.481,2.68c.426.174,5.276.186,11.834.15,7.6.036,12.446,0,12.871-.15a2.7,2.7,0,0,0,1.481-2.68c0-1.295-1.013-4.077-1.013-7.038,0-2.434,2.008-15.167,2.716-19.586a1.109,1.109,0,0,0-1.265-1.271Zm-4.748,27.115c-.33.126-4.071.138-9.922.108-5.054.03-8.795,0-9.124-.108a2.068,2.068,0,0,1-1.139-2.05c0-.989.785-3.111.785-5.4,0-.527-.126-1.7-.324-3.189l1.858,2.008a2.7,2.7,0,0,0,1.984.863H322.8a2.721,2.721,0,0,0,1.888-.767l1.93-1.888c-.174,1.385-.288,2.47-.288,3,0,2.26.779,4.382.779,5.4A2.068,2.068,0,0,1,325.97,322.686Zm2.452-22.367c-.312,1.918-.947,5.881-1.433,9.286l-1.883,1.145a6.594,6.594,0,0,1-3.429.959H311.355A6.6,6.6,0,0,1,308,310.8l-2.1-1.235c-.492-3.4-1.121-7.338-1.433-9.244a.857.857,0,0,1,.983-.971,79.472,79.472,0,0,0,10.629.827,81.873,81.873,0,0,0,11.36-.827.851.851,0,0,1,.977.971Z" transform="translate(-291.111 -261.521)"/><path class="j" d="M310.38,295.87l3.555,13.243,2.77-.4-2.968-12.254Z" transform="translate(-294.908 -261.646)"/><path class="j" d="M333.79,308.45l2.572-11.858,3.561-.4-3.363,13.051Z" transform="translate(-304.284 -261.775)"/><path class="j" d="M304.536,331.87l4.718,9.85v4.352L304.11,335.4Z" transform="translate(-292.397 -276.065)"/><path class="j" d="M345.822,331.87l-4.712,9.85v4.352l5.138-10.677Z" transform="translate(-307.216 -276.065)"/><path class="i" d="M324.41,312.215s-8.5-.6-11.073.2-3.951,2.764-3.753,5.929S308,333.761,308.2,336.927s1.385,5.144,6.523,6.133,10.479.6,13.447-.6,4.382-5.719,2.566-10.479-1.361-12.08-2.152-15.635S325.795,312.413,324.41,312.215Z" transform="translate(-294.029 -268.106)"/><path class="i" d="M330.3,343.2c0,.072-.138,1.96-.156,2.032-1.391,5.282-8.843,4.442-12.973,3.753-2.056-.342-5.138-1.379-5.935-3.6-.869-2.4.258-5.4.689-7.823.264-1.5.414-6.115,2.116-6.882s12.038-1.876,13.6,1.247C329.395,335.442,329.676,339.134,330.3,343.2Z" transform="translate(-295.123 -275.254)"/><rect class="d" width="3.909" height="2.188" transform="translate(23.451 47.772)"/><path class="d" d="M313.513,343H330.4a2.554,2.554,0,0,1-2.032,2.662,38.786,38.786,0,0,1-7.865.444C318.207,346.1,313.249,346.441,313.513,343Z" transform="translate(-296.159 -280.522)"/></g><g transform="translate(91.759 101.727)"><path class="i" d="M188.57,332.64l5.731,36.725,3.069.186.725-36.006Z" transform="translate(-176.874 -272.501)"/><path class="c" d="M198.13,393.9v4.082a.653.653,0,0,0,.6.654l2.254.12a.653.653,0,0,0,.677-.725l-.456-3.945Z" transform="translate(-180.703 -297.036)"/><path class="i" d="M219.554,332.79l-6.367,36.593-3.069.12-.108-36.012Z" transform="translate(-185.461 -272.561)"/><path class="c" d="M212.907,393.83l-.072,4.083a.653.653,0,0,1-.6.641l-2.254.072a.653.653,0,0,1-.665-.737l.54-3.939Z" transform="translate(-185.181 -297.008)"/><path class="c" d="M178.952,273.45s-9.592,18.584-9.862,20.167a3.538,3.538,0,0,0,4.059,3.663c2.746-.264,9.892-.39,9.892-.39l.132-2.488-8.237-1.043,4.97-3.927Z" transform="translate(-169.06 -248.795)"/><line class="g" x1="1.001" y2="1.96" transform="translate(4.874 44.564)"/><path class="c" d="M226.3,272.78s9.664,19,9.922,20.569a3.547,3.547,0,0,1-4.053,3.663c-2.746-.264-9.16-.39-9.16-.39l-.132-2.488,4.454-1.043-2.812-3.9Z" transform="translate(-190.615 -248.527)"/><line class="g" x2="4.053" y2="1.96" transform="translate(36.719 44.564)"/><path class="c" d="M194.66,264.967l-6.295,3.327c-3.147,1.667-2.638.731-2.818,1.565s1.061,29.705,1.061,29.705,2.4,2.344,8.7,2.962c9.442.923,13.513-2.038,13.513-2.038s2.4-29.219,2.4-30.239-3.9-3-6.4-4.2A13.783,13.783,0,0,0,194.66,264.967Z" transform="translate(-175.657 -245.204)"/><path class="i" d="M186.92,323s-.833,9.256-.558,10.455,3.147,3.147,8.992,3.333,13.141.462,14.9-1.667-1.109-11.2-1.109-11.2S193.581,325.23,186.92,323Z" transform="translate(-175.968 -268.64)"/><path class="d" d="M200.591,233.964s-3-1.8-6.163,1.643.138,10.275.546,11.918S189.5,258.508,189.5,262.7s5.1,8.393,13.153,7.56,9.04-5.072,7.943-10.138-2.332-10.413-2.332-12.589,1.918-7.122.138-11.918S202.239,232.184,200.591,233.964Z" transform="translate(-177.247 -232.324)"/><path class="k" d="M200.3,258.5l3.7,3.561s-3.837,9.178-4.25,11.642,1.8,4.8,4.8,4.52a5.167,5.167,0,0,0,4.8-5.066c-.138-2.188-2.332-11.235-2.332-11.235a12.362,12.362,0,0,0,4.658-4.244" transform="translate(-181.33 -242.479)"/><path class="g" d="M206.87,264.686s.138-.959,3-.138" transform="translate(-184.203 -245.097)"/><path class="d" d="M186.7,377.584h0a.654.654,0,0,1-.6-.7l1.9-35,2.182.18-2.788,34.921A.647.647,0,0,1,186.7,377.584Z" transform="translate(-175.884 -276.206)"/><path class="d" d="M224.027,377.584h0a.647.647,0,0,0,.6-.7l-1.894-35-2.182.18,2.788,34.921A.647.647,0,0,0,224.027,377.584Z" transform="translate(-189.682 -276.206)"/><path class="d" d="M210.166,295.931a105.852,105.852,0,0,1-14.736,1.085,101.744,101.744,0,0,1-13.788-1.085,1.115,1.115,0,0,0-1.271,1.277c.707,4.418,2.716,17.145,2.716,19.585,0,2.962-1.019,5.737-1.019,7.032a2.719,2.719,0,0,0,1.481,2.686c.426.168,5.276.18,11.834.144,7.6.036,12.446,0,12.877-.144a2.719,2.719,0,0,0,1.481-2.686c0-1.295-1.019-4.071-1.019-7.032,0-2.44,2.008-15.167,2.716-19.585a1.109,1.109,0,0,0-1.271-1.277Zm-4.748,27.115c-.33.132-4.071.138-9.922.114-5.054,0-8.795,0-9.124-.114a2.068,2.068,0,0,1-1.139-2.05c0-.989.785-3.105.785-5.365,0-.534-.126-1.709-.318-3.189l1.852,2a2.7,2.7,0,0,0,1.984.869h12.709a2.68,2.68,0,0,0,1.876-.761l1.93-1.882c-.174,1.379-.288,2.464-.288,3,0,2.26.785,4.376.785,5.365A2.068,2.068,0,0,1,205.418,323.046Zm2.452-22.367c-.312,1.918-.941,5.881-1.433,9.286l-1.876,1.145a6.594,6.594,0,0,1-3.435.965H190.8a6.594,6.594,0,0,1-3.351-.917l-2.1-1.235c-.492-3.393-1.121-7.332-1.427-9.244a.851.851,0,0,1,.983-.971,79.3,79.3,0,0,0,10.623.833,82.93,82.93,0,0,0,11.39-.833.851.851,0,0,1,.947.971Z" transform="translate(-173.585 -257.793)"/></g><g transform="translate(33.184 99.723)"><path class="c" d="M109.06,261.034V256.04h7.122v5.365Z" transform="translate(-86.455 -239.819)"/><path class="c" d="M102.449,245.319s-1.109-.282-1.109,1.481,1.481,2.955,2.032,2.866-.276-3.423-.366-4.071S102.449,245.319,102.449,245.319Z" transform="translate(-83.364 -235.482)"/><path class="c" d="M125.606,245.319s1.115-.282,1.115,1.481-1.481,2.955-2.038,2.866.276-3.423.372-4.071S125.606,245.319,125.606,245.319Z" transform="translate(-92.636 -235.482)"/><path class="d" d="M107.961,230.024a6.251,6.251,0,0,0-4.442,3.237c-1.295,2.776-.366,6.666.1,8.885s2.314,4.352,3.7,4.8,5.647,0,5.647,0a16.188,16.188,0,0,0,2.686-3.6c1.295-2.314,1.481-6.666.923-9.16s-2.5-5-3.981-5.186a4.075,4.075,0,0,0-2.866,1.2A2.625,2.625,0,0,0,107.961,230.024Z" transform="translate(-83.972 -228.981)"/><path class="c" d="M114.838,262.458s-5.4-.833-7.793-.462-3.885,3.327-3.885,3.327a22.218,22.218,0,0,1,5.995-.923,72.932,72.932,0,0,1,7.494.558A8.455,8.455,0,0,0,114.838,262.458Z" transform="translate(-84.092 -242.166)"/><path class="c" d="M81.837,277.49s-10.2,16.1-10.455,17.691a3.534,3.534,0,0,0,4.053,3.663c2.746-.264,12.949-.39,12.949-.39l.126-2.488-8.237-1.043,4.97-3.939Z" transform="translate(-71.354 -248.409)"/><line class="g" x1="4.053" y2="1.96" transform="translate(4.866 46.484)"/><path class="c" d="M136.8,276.41s10.323,16.744,10.587,18.309a3.546,3.546,0,0,1-4.059,3.663c-2.752-.264-12.943-.39-12.943-.39l-.132-2.488,8.243-1.043-4.976-3.909Z" transform="translate(-94.942 -247.977)"/><line class="g" x2="4.059" y2="1.96" transform="translate(43.545 46.484)"/><path class="c" d="M100.4,264.823l-6.295,3.333c-3.141,1.667-5.09,3.237-5.27,4.071s3.513,27.211,3.513,27.211,2.4,2.338,8.7,2.962c9.442.923,13.513-2.038,13.513-2.038s5.647-27.763,5.647-28.776-7.128-4.448-9.628-5.647A13.842,13.842,0,0,0,100.4,264.823Z" transform="translate(-78.353 -243.146)"/><path class="i" d="M85.75,335.133l11.013,35.2,3.051-.366L95.282,334.3Z" transform="translate(-77.12 -271.162)"/><path class="c" d="M104.12,394.156l.719,4.023a.653.653,0,0,0,.725.527l2.236-.288a.647.647,0,0,0,.534-.833l-1.163-3.795Z" transform="translate(-84.477 -294.988)"/><path class="i" d="M132.984,335.133l-11.013,35.2-3.051-.366,4.532-35.664Z" transform="translate(-90.404 -271.162)"/><path class="c" d="M121.165,394.156l-.719,4.023a.653.653,0,0,1-.725.527l-2.236-.288a.647.647,0,0,1-.534-.833l1.163-3.795Z" transform="translate(-89.604 -294.988)"/><path class="i" d="M100.345,327.134s-10.09-3.141-11.942-2.242a5.541,5.541,0,0,0-3.051,5.995c.647,2.662,6.2,5.923,7.4,5.995s7.68,0,7.68,0Z" transform="translate(-76.907 -267.329)"/><path class="i" d="M118.656,327.145s10.084-3.141,11.936-2.218a5.55,5.55,0,0,1,3.051,5.995c-.653,2.662-6.2,5.923-7.4,5.995s-7.68,0-7.68,0Z" transform="translate(-90.26 -267.34)"/><path class="i" d="M94.29,322.88s-.833,9.256-.558,10.455,3.147,3.147,8.992,3.333,13.141.462,14.9-1.667-1.109-11.2-1.109-11.2S100.957,325.1,94.29,322.88Z" transform="translate(-80.294 -266.588)"/><path class="d" d="M94.078,377.444h0a.647.647,0,0,1-.6-.7l1.894-35,2.182.18L94.774,376.85a.648.648,0,0,1-.7.594Z" transform="translate(-80.214 -274.146)"/><path class="d" d="M131.4,377.444h0a.647.647,0,0,0,.6-.7l-1.894-35-2.182.18,2.788,34.921A.647.647,0,0,0,131.4,377.444Z" transform="translate(-94.009 -274.146)"/><path class="d" d="M117.5,295.791a105.858,105.858,0,0,1-14.742,1.085,102.557,102.557,0,0,1-13.788-1.085,1.115,1.115,0,0,0-1.277,1.277c.707,4.418,2.716,17.146,2.716,19.585,0,2.961-1.019,5.737-1.019,7.032a2.719,2.719,0,0,0,1.481,2.686c.432.168,5.282.18,11.84.144,7.59.036,12.446,0,12.871-.144a2.719,2.719,0,0,0,1.481-2.686c0-1.295-1.019-4.071-1.019-7.032,0-2.44,2.008-15.173,2.716-19.591a1.1,1.1,0,0,0-1.259-1.271Zm-4.748,27.1c-.33.126-4.071.138-9.928.114-5.054,0-8.789,0-9.118-.114a2.068,2.068,0,0,1-1.145-2.05c0-.989.785-3.105.785-5.366,0-.534-.126-1.709-.318-3.189l1.852,2a2.716,2.716,0,0,0,1.984.869h12.709a2.68,2.68,0,0,0,1.888-.773L113.4,312.5a29.909,29.909,0,0,0-.294,3c0,2.26.785,4.376.785,5.366A2.068,2.068,0,0,1,112.75,322.888Zm2.446-22.367c-.306,1.918-.941,5.881-1.433,9.286l-1.876,1.145a6.6,6.6,0,0,1-3.435.959H98.128A6.6,6.6,0,0,1,94.782,311l-2.116-1.217c-.486-3.4-1.115-7.332-1.427-9.244a.857.857,0,0,1,.983-.971,79.4,79.4,0,0,0,10.635.827,82.017,82.017,0,0,0,11.39-.827.851.851,0,0,1,.947.971Z" transform="translate(-77.891 -255.733)"/></g><g transform="translate(0 203.447)"><line class="g" x2="281.163"/></g></g></svg>