<svg xmlns="http://www.w3.org/2000/svg" width="227.776" height="223.413" viewBox="0 0 227.776 223.413"><defs><style>.a,.n{fill:#7224ff;}.b,.c,.g,.j,.l{fill:#fff;}.b{opacity:0.7;}.c{opacity:0.5;}.d,.e,.f,.k,.o{fill:none;}.d,.e,.f,.g,.i,.j,.k,.l,.m,.n{stroke:#263238;}.d,.e,.f,.g,.i,.j,.k,.l,.m,.n,.o{stroke-linecap:round;stroke-linejoin:round;}.d,.e,.f,.g{stroke-width:1.023px;}.e{stroke-dasharray:2.017 2.017;}.f{stroke-dasharray:1.969 1.969;}.h,.i,.m{fill:#263238;}.i,.j{stroke-width:0.829px;}.k,.l,.m,.n,.o{stroke-width:1.035px;}.o{stroke:#fff;}</style></defs><g transform="translate(0)"><g transform="translate(15.789 0)"><path class="a" d="M89.392,180.429s6.78,36.536,41.166,56.352,77.121,15.1,111.856,12.159S300.6,222.525,300.1,192.49,272,157.825,252.639,126.506s-19.776-42.52-53.047-58.513S121,71.826,101.644,110.884,89.392,180.429,89.392,180.429Z" transform="translate(-88.118 -62.436)"/><path class="b" d="M89.392,180.429s6.78,36.536,41.166,56.352,77.121,15.1,111.856,12.159S300.6,222.525,300.1,192.49,272,157.825,252.639,126.506s-19.776-42.52-53.047-58.513S121,71.826,101.644,110.884,89.392,180.429,89.392,180.429Z" transform="translate(-88.118 -62.436)"/></g><g transform="translate(8.935 210.376)"><ellipse class="a" cx="90.152" cy="6.518" rx="90.152" ry="6.518" transform="translate(0)"/><ellipse class="c" cx="90.152" cy="6.518" rx="90.152" ry="6.518" transform="translate(0)"/></g><g transform="translate(71.678 8.17)"><rect class="d" width="147.376" height="190.755" rx="10"/><path class="d" d="M290.4,166.73v.593h-.593" transform="translate(-228.526 -114.311)"/><line class="e" x1="34.561" transform="translate(25.55 53.012)"/><path class="d" d="M226.858,167.323h-.6v-.593" transform="translate(-201.895 -114.311)"/><line class="f" y1="26.881" transform="translate(24.365 24.394)"/><path class="d" d="M226.26,117.073v-.593h.6" transform="translate(-201.895 -93.254)"/><line class="e" x2="34.567" transform="translate(26.131 23.226)"/><path class="d" d="M289.81,116.48h.593v.593" transform="translate(-228.526 -93.254)"/><line class="f" y2="26.886" transform="translate(61.877 24.963)"/><rect class="g" width="25.533" height="20.275" transform="translate(30.355 27.984)"/><line class="d" x1="8.761" y1="6.756" transform="translate(20.095 19.723)"/><line class="d" x2="7.512" y2="6.507" transform="translate(57.642 49.259)"/><path class="d" d="M218.126,112.206l-.256-2.876h3" transform="translate(-198.379 -90.257)"/><path class="d" d="M294.557,167.81l.517,3.137-3.654.134" transform="translate(-229.2 -114.763)"/><rect class="h" width="12.397" height="4.473" transform="translate(75.111 129.471)"/><path class="h" d="M337.887,299.894l-7.947-4.584v9.173Z" transform="translate(-245.342 -168.192)"/><rect class="i" width="36.565" height="71.364" rx="6.93" transform="translate(33.631 98.616)"/><rect class="j" width="33.318" height="62.278" transform="translate(35.258 103.462)"/><path class="g" d="M278.476,357.725l2.545-9.876a12.861,12.861,0,0,0,.418-3.259V332.744a1.816,1.816,0,0,0,.076-.471A2,2,0,0,0,279.4,330.4a2.231,2.231,0,0,0-1.545.581,2.028,2.028,0,0,0-2.1-1.714,2.173,2.173,0,0,0-1.783.871,2.033,2.033,0,0,0-2.091-1.685,2.2,2.2,0,0,0-1.789.877c0-1.569,0-9.092-.261-9.708-.767-1.981-4.648-1.075-3.956,1.028v17.4c0-1.22-.906-2.829-1.284-4.014a10.858,10.858,0,0,0-1.3-3.311,1.7,1.7,0,0,0-3.184,1.011c.1,1.563,1.232,2.794,1.842,4.212,1.127,2.614.453,5.351,1.516,7.976a47.191,47.191,0,0,0,2.94,4.822,14.926,14.926,0,0,1,1.365,3.219l-.988,5.757" transform="translate(-216.076 -177.921)"/><line class="d" y2="3.253" transform="translate(51.943 135.71)"/><line class="d" x2="2.643" transform="translate(55.603 142.008)"/><line class="d" x2="2.643" transform="translate(44.629 142.008)"/><line class="d" x2="1.017" y2="1.621" transform="translate(48.289 138.557)"/><line class="d" y1="1.824" x2="1.423" transform="translate(54.383 138.557)"/><rect class="d" width="30.889" height="3.863" transform="translate(36.501 127.583)"/><rect class="d" width="14.837" height="17.678" transform="translate(37.518 106.854)"/><line class="d" x2="14.832" y2="17.678" transform="translate(37.518 106.854)"/><path class="d" d="M248.2,331.452v-25.2h30.076v25" transform="translate(-211.089 -172.777)"/><rect class="i" width="36.565" height="71.364" rx="6.93" transform="translate(95.125 98.616)"/><rect class="j" width="33.318" height="62.278" transform="translate(96.752 103.462)"/><rect class="d" width="30.076" height="32.922" transform="translate(98.483 106.448)"/><line class="d" x2="30.076" transform="translate(98.483 142.414)"/><line class="d" x2="30.076" transform="translate(98.483 144.854)"/><line class="d" x2="30.076" transform="translate(98.483 147.294)"/><line class="d" x2="30.076" transform="translate(98.483 149.734)"/><line class="d" x2="30.076" transform="translate(98.483 152.168)"/><line class="d" x2="30.076" transform="translate(98.483 154.608)"/><line class="d" x2="30.076" transform="translate(98.483 157.048)"/><line class="d" y1="32.922" x2="30.076" transform="translate(98.483 106.448)"/><rect class="i" width="36.565" height="71.364" rx="6.93" transform="translate(95.125 16.697)"/><rect class="j" width="33.318" height="62.278" transform="translate(96.752 21.542)"/><path class="d" d="M284.65,228.9V209.92h26.706" transform="translate(-226.363 -132.41)"/><path class="h" d="M329.12,210.746l5.13-2.963-5.13-2.963Z" transform="translate(-244.998 -130.272)"/><line class="d" y1="14.57" transform="translate(112.733 81.42)"/><path class="h" d="M379.2,214.446l-2.963-5.136-2.963,5.136Z" transform="translate(-263.499 -132.154)"/><line class="d" x2="13.472" transform="translate(98.965 176.475)"/><line class="d" x2="13.472" transform="translate(98.965 179.508)"/><line class="d" x2="13.472" transform="translate(98.965 182.535)"/><line class="d" x2="13.472" transform="translate(66.298 176.475)"/><line class="d" x2="13.472" transform="translate(66.298 179.508)"/><line class="d" x2="13.472" transform="translate(66.298 182.535)"/><line class="d" x2="13.472" transform="translate(62.592 83.523)"/><line class="d" x2="13.472" transform="translate(62.592 86.55)"/><line class="d" x2="13.472" transform="translate(62.592 89.583)"/><line class="d" x2="13.472" transform="translate(72.694 46.813)"/><line class="d" x2="13.472" transform="translate(72.694 49.846)"/><line class="d" x2="13.472" transform="translate(72.694 52.872)"/><line class="d" x2="13.472" transform="translate(24.197 57.253)"/><line class="d" x2="13.472" transform="translate(24.197 60.285)"/><line class="d" x2="13.472" transform="translate(24.197 63.312)"/></g><g transform="translate(0 98.566)"><path class="a" d="M105.773,243.661s0-2.51-3.521-6.03-5.81-5.531-5.81-5.531-1.743,5.809,1.5,9.3a61.748,61.748,0,0,0,7.8,6.785Z" transform="translate(-75.622 -232.1)"/><path class="a" d="M96.987,270.717s0-2.515-3.521-6.036-5.8-5.531-5.8-5.531-1.743,5.809,1.5,9.3a62.3,62.3,0,0,0,7.8,6.786Z" transform="translate(-71.942 -243.435)"/><path class="a" d="M112.116,251.815s.267-2.5,4.136-5.624,6.332-4.892,6.332-4.892,1.162,5.937-2.481,9.092a61.7,61.7,0,0,1-8.464,5.926Z" transform="translate(-82.186 -235.955)"/><path class="a" d="M101.153,284.569s.523-2.457,4.706-5.159,6.809-4.2,6.809-4.2.511,6.024-3.422,8.778A61.687,61.687,0,0,1,100.2,289Z" transform="translate(-77.392 -250.165)"/><path class="a" d="M103.83,317.777s0-2.515,3.521-6.036,5.809-5.531,5.809-5.531,1.743,5.81-1.5,9.3a62.042,62.042,0,0,1-7.8,6.791Z" transform="translate(-78.913 -263.156)"/><path class="a" d="M97.489,325.4s.36-2.486-2.626-6.472-4.938-6.3-4.938-6.3-2.562,5.478.174,9.423a61.194,61.194,0,0,0,6.751,7.825Z" transform="translate(-72.63 -265.846)"/><path class="a" d="M97.76,351.447s0-2.516,3.521-6.036,5.81-5.531,5.81-5.531,1.743,5.78-1.51,9.3a61.462,61.462,0,0,1-7.791,6.785Z" transform="translate(-76.369 -277.265)"/><path class="a" d="M101.748,372.829s-.633-2.434,1.859-6.745,4.194-6.815,4.194-6.815,3.166,5.147.9,9.377a61.739,61.739,0,0,1-5.81,8.54Z" transform="translate(-78.01 -285.39)"/><path class="k" d="M106.721,250.93a72.289,72.289,0,0,1-.964,7.8c-1.394,7.186-4.868,11.828-6.263,18.317s2.6,14.861,1.534,23.2-4.316,12.978-3.387,18.544,5.81,20.635,5.81,20.635" transform="translate(-76.25 -239.991)"/><line class="k" y1="2.911" x2="3.794" transform="translate(29.896 14.623)"/><line class="k" x1="1.586" y1="2.823" transform="translate(28.484 11.358)"/><path class="k" d="M101.31,291.944s3.178-2.382,6.443-4.764" transform="translate(-77.857 -255.181)"/><path class="k" d="M99.977,280.627A50.746,50.746,0,0,0,94.33,272" transform="translate(-74.932 -248.82)"/><path class="k" d="M104.05,325.726a39.164,39.164,0,0,1,6.791-9.086" transform="translate(-79.005 -267.526)"/><path class="k" d="M98.99,331.415a44.653,44.653,0,0,0-3.445-6.53c-1.847-2.73-2.115-3.085-2.115-3.085" transform="translate(-74.555 -269.689)"/><path class="k" d="M97.76,360.05a42.521,42.521,0,0,1,2.858-5.809,36.9,36.9,0,0,1,3.706-4.851" transform="translate(-76.369 -281.25)"/><path class="k" d="M103.744,380.908a10.788,10.788,0,0,1,.947-5.566c1.325-2.562,2.823-5.908,3.445-7.233" transform="translate(-78.856 -289.095)"/><path class="a" d="M73.16,303.881s-.273-1.574,1.551-4.165,3.027-4.1,3.027-4.1,1.743,3.439.064,6a39.136,39.136,0,0,1-4.16,5.1Z" transform="translate(-66.054 -258.718)"/><path class="a" d="M81.6,319.881s-.267-1.58,1.557-4.165,3.021-4.1,3.021-4.1,1.743,3.433.064,6a39.34,39.34,0,0,1-4.148,5.1Z" transform="translate(-69.592 -265.423)"/><path class="a" d="M68.649,310.478s-.442-1.539-3.207-3.085S60.94,305,60.94,305s-.07,3.846,2.545,5.432a39.16,39.16,0,0,0,5.949,2.794Z" transform="translate(-60.94 -262.649)"/><path class="a" d="M78.4,329.959s-.581-1.487-3.486-2.73-4.729-1.888-4.729-1.888.337,3.828,3.1,5.13a39.688,39.688,0,0,0,6.21,2.161Z" transform="translate(-64.816 -271.172)"/><path class="a" d="M81.72,350.819s-.273-1.574-2.864-3.4-4.224-2.841-4.224-2.841-.476,3.817,1.952,5.67a39.4,39.4,0,0,0,5.624,3.41Z" transform="translate(-66.662 -279.235)"/><path class="a" d="M87.782,354.27s-.488-1.534.947-4.346,2.411-4.485,2.411-4.485,2.2,3.155.918,5.932a39.428,39.428,0,0,1-3.387,5.635Z" transform="translate(-72.155 -279.595)"/><path class="a" d="M95.22,377.744s.18-1.592,2.661-3.561,4.067-3.073,4.067-3.073.7,3.782-1.627,5.769A39.507,39.507,0,0,1,94.9,380.6Z" transform="translate(-75.171 -290.352)"/><path class="a" d="M89.18,371.263s-.273-1.58-2.858-3.4S82.093,365,82.093,365s-.476,3.817,1.958,5.67a39.067,39.067,0,0,0,5.624,3.41Z" transform="translate(-69.788 -287.792)"/><path class="a" d="M90.081,384.877s.139-1.6-1.906-4.014-3.37-3.823-3.37-3.823-1.429,3.573.459,5.984a39.634,39.634,0,0,0,4.572,4.723Z" transform="translate(-70.724 -292.837)"/><path class="k" d="M72.7,309.21A47.256,47.256,0,0,0,74.152,314c1.656,4.357,4.34,6.89,5.914,10.812s0,9.6,1.557,14.71,4.119,7.669,4.136,11.259-1.394,13.571-1.394,13.571" transform="translate(-65.868 -264.413)"/><line class="k" x1="2.696" y1="1.412" transform="translate(5.217 47.458)"/><line class="k" y1="1.946" x2="0.691" transform="translate(7.436 44.844)"/><path class="k" d="M81.815,334.129s-2.248-1.162-4.555-2.289" transform="translate(-67.779 -273.896)"/><path class="k" d="M82.46,326.374a32.486,32.486,0,0,1,2.6-6.024" transform="translate(-69.958 -269.081)"/><path class="k" d="M83.619,355.631a24.9,24.9,0,0,0-5.229-4.961" transform="translate(-68.252 -281.787)"/><path class="k" d="M88.72,358.114a28.086,28.086,0,0,1,1.447-4.468c.866-1.911.993-2.167.993-2.167" transform="translate(-72.581 -282.126)"/><path class="k" d="M95,382.1a23.766,23.766,0,0,1,2.9-3.009,15.321,15.321,0,0,0,1.882-1.632" transform="translate(-75.213 -293.013)"/><path class="k" d="M91.379,376.465a26.624,26.624,0,0,0-2.417-3.311,23.238,23.238,0,0,0-2.852-2.643" transform="translate(-71.487 -290.101)"/><path class="k" d="M90.852,390.022a6.89,6.89,0,0,0-1.2-3.393c-1.11-1.458-2.417-3.4-2.945-4.16" transform="translate(-71.739 -295.112)"/><path class="h" d="M80.41,401.13h23v17.318a1.743,1.743,0,0,1-1.743,1.743H82.176a1.743,1.743,0,0,1-1.743-1.743V401.13Z" transform="translate(-69.099 -302.932)"/><path class="h" d="M101.931,403.7H79.111a1.8,1.8,0,0,1-1.8-1.807h0a1.8,1.8,0,0,1,1.8-1.8h22.82a1.8,1.8,0,0,1,1.8,1.8h0a1.8,1.8,0,0,1-1.8,1.807Z" transform="translate(-67.8 -302.496)"/></g><g transform="translate(39.988 20.714)"><path class="l" d="M131.091,423.3a50.163,50.163,0,0,0-1.249,6.024c0,1.214-.3,2.028,2.324,2.533s4.357.2,4.764-1.011a61.456,61.456,0,0,0,.709-7.3l-6.39-1.22Z" transform="translate(-129.797 -233.96)"/><path class="l" d="M136.875,435.969a5.008,5.008,0,0,0,.174-.848,42.982,42.982,0,0,1-7.273-.581c0,1.162-.227,1.946,2.324,2.434S136.486,437.183,136.875,435.969Z" transform="translate(-129.771 -239.08)"/><path class="l" d="M233.071,424.78s2.027.709,4.973,1.621,8.941,1.929,9.522,2.027.581,1.319.1,1.83a17.944,17.944,0,0,1-6.286,2.835c-3.143.807-13.8,1.522-14.71.918-.761-.511-.505-5.478-.2-6.594S233.071,424.78,233.071,424.78Z" transform="translate(-170.166 -234.99)"/><path class="l" d="M247.735,433.183a1.516,1.516,0,0,0,.3-1.423,21.669,21.669,0,0,1-10.341,3.858,74.729,74.729,0,0,1-11.387-.058c.076.7.209,1.226.43,1.377.912.581,11.561-.1,14.71-.918A18.342,18.342,0,0,0,247.735,433.183Z" transform="translate(-170.226 -237.915)"/><path class="m" d="M144.549,272.57s-1.743,10.608-.4,16.5c0,0-2.55,23.366-2.945,33.776,0,0-5.5,18.265-6.286,23.958A140.255,140.255,0,0,1,132,360.543a12.438,12.438,0,0,0,3.927,1.377c2.754.581,3.143-1.574,3.143-1.574s15.1-34.758,16.3-39.865,5.095-23.36,5.095-23.36l16.267,29.849s.79,10.213,3.143,16.1,6.873,22.187,6.873,22.187a16.268,16.268,0,0,0,5.3-.581c2.359-.784,2.359-1.964,2.359-1.964s-3.538-13.159-3.538-17.475-1.371-19.049-2.353-23.174-7.663-25.724-8.645-28.083-3.143-9.818-3.143-9.818l-1.371-11.59S158.491,277.287,144.549,272.57Z" transform="translate(-130.705 -171.207)"/><path class="l" d="M165.233,149.406a10.185,10.185,0,0,1-.906-3.16c0-1.2-.581-6.919-.581-6.919s8.714-15.784,11.125-18.794a36.907,36.907,0,0,1,5.263-5.263s5.868-1.2,7.07-1.2,2.556-.581,2.556-1.354-1.958-.581-3.16-.581a6.013,6.013,0,0,1-2.707-1.052s1.958-5.606,2.556-7.82c.32-1.162,1.354-3.608.581-3.608s-.9.581-1.354,1.5-2.405,3.91-2.405,3.91l.447-6.617s-.581-.9-1.052.151a45.257,45.257,0,0,0-1.5,4.961,3.631,3.631,0,0,1-.749,1.429l-.581-4.932s-1.022-1.086-1.2.8c-.1,1.046,0,4.514,0,5.112s-.581-.854-.581-.854-.354-1.632-.749-1.853-.749.3-.581,1.5-.151,6.164-.151,6.164-.9,1.2-2.254,2.858-12.2,11.427-16.267,14.588-4.508,5.717-5.112,8.871-1.2,21.5-1.2,28.124.581,17.138,1.052,20.6-.36,7.924-.941,10.353,0,4.508,1.656,5.711,8.714,1.958,14.582,1.958,11.88-.581,13.687-1.2,3.189-.761,3.189-3.16-1.2-7.215-1.2-8.569,2.411-15.337,2.411-15.337,15.337,4.648,18.2,3.608,26.764-23.61,26.764-23.61a37.358,37.358,0,0,1,5.717-1.807c1.958-.3,4.961-1.65,5.112-2.1s-.3-.3-1.5-.3a14.175,14.175,0,0,0-3.16.581s4.107-2.6,4.816-2.858c.488-.18,1.33-1.29.151-1.051-1.481.3-5.112,1.354-5.112,1.354l4.81-3.009s.749-1.2-.151-1.2-5.414,2.707-5.414,2.707l3.486-3.265c.68-.627.11-1.516-.691-1.051l-4.067,2.324a15.744,15.744,0,0,1-3.137,1.4l-.749.453a19.886,19.886,0,0,0,.3-2.405c0-.755-.453-2.707-1.5-2.858s-.151,1.354-.151,2.1-1.5,4.648-1.5,5.263V151.8a59.109,59.109,0,0,1-9.772,6.919c-4.659,2.411-15.192,10.376-15.192,10.376s-12.026-6.17-14.733-8.424-5.717-4.961-8.714-7.366A37.32,37.32,0,0,0,175,149.819Z" transform="translate(-138.928 -98.092)"/><path class="n" d="M215.485,177.888c-5.107,3.265-12.061,8.528-12.061,8.528s-12.026-6.17-14.733-8.424-5.717-4.961-8.714-7.366a37.318,37.318,0,0,0-4.961-3.486l-9.772-.447a10.185,10.185,0,0,1-.906-3.16c0-1.2-.581-6.919-.581-6.919s4.5-8.133,7.93-13.856l-.273-.279a12.863,12.863,0,0,0-6.048-3.079c-2.835,2.515-5.653,4.938-7.326,6.239-4.067,3.155-4.508,5.717-5.112,8.871s-1.2,21.5-1.2,28.124.581,17.138,1.051,20.6-.354,7.971-.935,10.4,0,4.508,1.656,5.711,8.714,1.958,14.582,1.958,11.88-.581,13.687-1.2,3.189-.761,3.189-3.16-1.2-7.215-1.2-8.569,2.411-15.337,2.411-15.337,15.337,4.648,18.2,3.608c1.522-.581,9.063-7.262,15.75-13.362A20.554,20.554,0,0,0,215.485,177.888Z" transform="translate(-138.928 -115.402)"/><path class="k" d="M198.39,197.76s-6.054,1.65-6.39,6.234" transform="translate(-155.848 -139.858)"/><path class="k" d="M203.269,227.672s-7.053-1.94-10.719-5.612" transform="translate(-156.079 -150.041)"/><path class="k" d="M195.925,229.606s-6.054,1.65-11.555-.546" transform="translate(-152.651 -152.974)"/><path class="k" d="M160.3,213.23s1.911,13.362,11.125,20.02" transform="translate(-142.564 -146.341)"/><path class="k" d="M184.45,254c.7.192,1.429.36,2.179.494" transform="translate(-152.684 -163.425)"/><path class="k" d="M160.3,236.2a25.853,25.853,0,0,0,10.312,8.923" transform="translate(-142.564 -155.966)"/><path class="k" d="M157.23,184.168s5.868-2.9,9.353-.186" transform="translate(-141.278 -133.597)"/><path class="k" d="M160.07,162.1s5.322,1.836,6.786,5.5" transform="translate(-142.468 -124.915)"/><path class="k" d="M166.07,159.89a7.494,7.494,0,0,1,2.568,4.032" transform="translate(-144.982 -123.988)"/><path class="l" d="M192.4,142.738s.906,5.112.906,6.466-1.5,1.807-.906,3.608,1.958,1.958,1.656,3.486S191.8,158.7,191.8,158.7a31.815,31.815,0,0,1-2.109,6.013c-1.057,1.8-4.961.453-4.961.453l-.3,4.81s-1.354,1.958-6.315,1.354a27.531,27.531,0,0,1-8.267-2.254l-.755-1.052s3.91-1.958,4.067-3.311,0-4.508,0-9.022S171.8,142.459,179.17,140.2,192.4,142.738,192.4,142.738Z" transform="translate(-146.248 -115.487)"/><path class="m" d="M183.648,152.141s-1.7-3.892-3.6-1.667c-1.232,1.447.3,5.717,1.051,6.315a3.77,3.77,0,0,0,2.405.3s-2.405,2.405-4.961,2.405-4.81-2.405-6.466-6.617-2.858-11.427-1.051-15.79,11.131-4.508,13.234-4.508a19.164,19.164,0,0,1,5.263,1.2s6.768-.581,6.919,1.656-.906,2.405-.906,2.405,4.816,2.556,2.556,3.608-5.711.453-7.971.453a3.224,3.224,0,0,0-3,1.65s2.1,1.354,1.354,1.958-3.486,1.8-3.759,2.858,1.051,2.707.145,3.486S183.648,152.141,183.648,152.141Z" transform="translate(-146.683 -112.544)"/><path class="h" d="M206.782,162.118c0,.767-.32,1.388-.709,1.388s-.7-.622-.7-1.388.32-1.388.7-1.388S206.782,161.352,206.782,162.118Z" transform="translate(-161.451 -124.34)"/><path class="k" d="M203.56,159.053s.97-2.266,2.51-1.052" transform="translate(-160.692 -123.047)"/><path class="o" d="M175.029,311.712l-1.377-2.556-6.873-1.766" transform="translate(-145.28 -185.798)"/></g></g></svg>