<svg xmlns="http://www.w3.org/2000/svg" width="38.304" height="25.142" viewBox="0 0 38.304 25.142"><defs><style>.a{fill:#5870be;}.b{fill:#ffaf38;}.c{fill:#e63737;}.d{fill:#fff;}</style></defs><path class="a" d="M1418.159,4889.874h34.973a1.7,1.7,0,0,1,1.665,1.734v21.674a1.7,1.7,0,0,1-1.665,1.734h-34.973a1.7,1.7,0,0,1-1.665-1.734v-21.674A1.7,1.7,0,0,1,1418.159,4889.874Z" transform="translate(-1416.494 -4889.874)"/><path class="b" d="M1433.249,4902.441a8.979,8.979,0,1,1,8.98,8.981,8.98,8.98,0,0,1-8.98-8.981Z" transform="translate(-1416.494 -4889.874)"/><path class="c" d="M1428.47,4911.42a8.98,8.98,0,1,1,7.191-14.36h-1.2v.6h1.613c.121.191.235.389.341.589h-2.554v.6h2.843c.088.2.167.4.237.6h-3.68v.6h3.868a9.033,9.033,0,0,1-.192,5.389h-3.676v.6h3.439c-.09.207-.187.4-.285.591h-2.554v.6h2.206c-.133.21-.272.411-.413.6h-1.193v.6h.7A8.993,8.993,0,0,1,1428.47,4911.42Z" transform="translate(-1416.494 -4889.874)"/><path class="d" d="M.425-4.295H2.17l.673,2.613.668-2.613H5.256V0H4.169V-3.275L3.331,0H2.348L1.512-3.275V0H.425ZM6.66-2.1l-1.14-.12a1.279,1.279,0,0,1,.186-.47,1.026,1.026,0,0,1,.35-.3,1.465,1.465,0,0,1,.451-.141,3.638,3.638,0,0,1,.621-.05,4.936,4.936,0,0,1,.861.06,1.107,1.107,0,0,1,.542.25.879.879,0,0,1,.24.374,1.35,1.35,0,0,1,.088.461V-.662a1.658,1.658,0,0,0,.028.344A1.545,1.545,0,0,0,9.01,0H7.891A1.142,1.142,0,0,1,7.8-.183a1.359,1.359,0,0,1-.041-.2A1.544,1.544,0,0,1,7.3-.059,1.939,1.939,0,0,1,6.561.07a1.231,1.231,0,0,1-.845-.258.819.819,0,0,1-.289-.636.833.833,0,0,1,.208-.583,1.407,1.407,0,0,1,.768-.34q.671-.135.87-.189a4.05,4.05,0,0,0,.422-.142A.419.419,0,0,0,7.6-2.385a.456.456,0,0,0-.319-.088.826.826,0,0,0-.439.094A.514.514,0,0,0,6.66-2.1Zm1.034.627q-.246.088-.513.155a1.185,1.185,0,0,0-.46.19.3.3,0,0,0-.1.22.3.3,0,0,0,.1.23.415.415,0,0,0,.289.089.742.742,0,0,0,.371-.1.585.585,0,0,0,.243-.236.789.789,0,0,0,.072-.362Zm1.22.612L10.1-.976a.584.584,0,0,0,.205.3.609.609,0,0,0,.352.091.594.594,0,0,0,.372-.1.229.229,0,0,0,.1-.19.217.217,0,0,0-.135-.2,2.458,2.458,0,0,0-.513-.123,5.349,5.349,0,0,1-.863-.2.91.91,0,0,1-.407-.312.809.809,0,0,1-.166-.5.82.82,0,0,1,.179-.53,1.064,1.064,0,0,1,.492-.332,2.615,2.615,0,0,1,.841-.11,2.91,2.91,0,0,1,.822.085,1.071,1.071,0,0,1,.442.264,1.38,1.38,0,0,1,.294.483l-1.131.111a.387.387,0,0,0-.146-.22.6.6,0,0,0-.34-.094.482.482,0,0,0-.294.072.214.214,0,0,0-.092.174.185.185,0,0,0,.117.173,1.894,1.894,0,0,0,.51.105,3.491,3.491,0,0,1,.885.187.975.975,0,0,1,.444.342.841.841,0,0,1,.154.489.962.962,0,0,1-.163.524,1.1,1.1,0,0,1-.513.405,2.463,2.463,0,0,1-.954.151A2.265,2.265,0,0,1,9.379-.173,1.093,1.093,0,0,1,8.914-.864Zm4.864-3.431v1.184h.656v.873h-.656v1.1a.593.593,0,0,0,.038.263.218.218,0,0,0,.205.1,1.309,1.309,0,0,0,.369-.076l.088.823a3.882,3.882,0,0,1-.826.1A1.437,1.437,0,0,1,13-.044a.7.7,0,0,1-.312-.347,2.038,2.038,0,0,1-.1-.753V-2.238h-.439v-.873h.439v-.571ZM18.008-1.26H15.617a.772.772,0,0,0,.155.428.565.565,0,0,0,.451.2.678.678,0,0,0,.334-.088.786.786,0,0,0,.208-.2l1.175.108a1.682,1.682,0,0,1-.65.672A2.363,2.363,0,0,1,16.2.07,2.237,2.237,0,0,1,15.224-.1a1.428,1.428,0,0,1-.587-.554A1.671,1.671,0,0,1,14.4-1.55a1.567,1.567,0,0,1,.467-1.181,1.78,1.78,0,0,1,1.291-.451,2.3,2.3,0,0,1,1.055.2,1.365,1.365,0,0,1,.589.586,2.142,2.142,0,0,1,.2,1Zm-1.213-.571a.8.8,0,0,0-.186-.5.54.54,0,0,0-.4-.149.54.54,0,0,0-.454.226.826.826,0,0,0-.138.419Zm1.322-1.28h1.116v.51a1.215,1.215,0,0,1,.333-.456.7.7,0,0,1,.423-.125,1.259,1.259,0,0,1,.577.164l-.369.85a.937.937,0,0,0-.334-.088.412.412,0,0,0-.363.193,1.964,1.964,0,0,0-.185,1.02V0h-1.2Zm5.14,1.354,1.163.352a2.145,2.145,0,0,1-.369.817,1.6,1.6,0,0,1-.625.5,2.34,2.34,0,0,1-.951.167,2.76,2.76,0,0,1-1.144-.2,1.813,1.813,0,0,1-.766-.716,2.426,2.426,0,0,1-.322-1.312A2.229,2.229,0,0,1,20.809-3.8a2.157,2.157,0,0,1,1.6-.572,2.178,2.178,0,0,1,1.276.328,1.928,1.928,0,0,1,.69,1.008l-1.172.261a1,1,0,0,0-.129-.287.763.763,0,0,0-.272-.234.783.783,0,0,0-.36-.082.779.779,0,0,0-.691.363,1.541,1.541,0,0,0-.182.846,1.607,1.607,0,0,0,.217.979.743.743,0,0,0,.609.265.74.74,0,0,0,.576-.214A1.323,1.323,0,0,0,23.257-1.758ZM25.622-2.1l-1.14-.12a1.279,1.279,0,0,1,.186-.47,1.026,1.026,0,0,1,.35-.3,1.465,1.465,0,0,1,.451-.141,3.638,3.638,0,0,1,.621-.05,4.936,4.936,0,0,1,.861.06,1.107,1.107,0,0,1,.542.25.879.879,0,0,1,.24.374,1.35,1.35,0,0,1,.088.461V-.662a1.658,1.658,0,0,0,.028.344A1.545,1.545,0,0,0,27.972,0H26.853a1.142,1.142,0,0,1-.088-.183,1.359,1.359,0,0,1-.041-.2,1.544,1.544,0,0,1-.466.322,1.939,1.939,0,0,1-.735.129,1.231,1.231,0,0,1-.845-.258.819.819,0,0,1-.289-.636.833.833,0,0,1,.208-.583,1.407,1.407,0,0,1,.768-.34q.671-.135.87-.189a4.05,4.05,0,0,0,.422-.142.419.419,0,0,0-.091-.308.456.456,0,0,0-.319-.088.826.826,0,0,0-.439.094A.514.514,0,0,0,25.622-2.1Zm1.034.627q-.246.088-.513.155a1.185,1.185,0,0,0-.46.19.3.3,0,0,0-.1.22.3.3,0,0,0,.1.23.415.415,0,0,0,.289.089.742.742,0,0,0,.371-.1.585.585,0,0,0,.243-.236.789.789,0,0,0,.072-.362ZM28.1-3.111h1.116v.51a1.215,1.215,0,0,1,.333-.456.7.7,0,0,1,.423-.125,1.259,1.259,0,0,1,.577.164l-.369.85a.937.937,0,0,0-.334-.088.412.412,0,0,0-.363.193,1.964,1.964,0,0,0-.185,1.02V0H28.1Zm5.626-1.184V0H32.609V-.46a1.5,1.5,0,0,1-.428.4,1.221,1.221,0,0,1-.574.135,1.109,1.109,0,0,1-.971-.483A2.01,2.01,0,0,1,30.3-1.588a1.708,1.708,0,0,1,.371-1.184,1.214,1.214,0,0,1,.942-.41,1.312,1.312,0,0,1,.505.094,1.149,1.149,0,0,1,.4.281V-4.295Zm-1.2,2.73a.82.82,0,0,0-.155-.546.5.5,0,0,0-.393-.18.433.433,0,0,0-.349.173.929.929,0,0,0-.141.58.876.876,0,0,0,.145.558A.446.446,0,0,0,32-.8a.48.48,0,0,0,.381-.179A.9.9,0,0,0,32.53-1.564Z" transform="translate(1.683 14.163) rotate(7.313)"/></svg>