<svg xmlns="http://www.w3.org/2000/svg" xmlns:xlink="http://www.w3.org/1999/xlink" width="874" height="460" viewBox="0 0 874 460"><defs><style>.a,.g{fill:#fff;}.a{stroke:#707070;}.b{clip-path:url(#a);}.c{fill:#eafaf7;}.d{fill:#fff3f5;}.e{fill:#ffeabe;}.f{fill:#ffd9de;}.g,.q{stroke:#c2c2c2;}.g{stroke-width:0.2px;}.h{fill:#f8f8f8;}.i{fill:#28c8ab;}.j{fill:#f3364c;}.k,.q{fill:none;}.l{fill:#283b75;}.m,.p{fill:#1a67dd;}.n{fill:#f9fafc;}.o{fill:#858585;}.p{font-size:20px;font-family:Manrope-Bold, Manrope;font-weight:700;}.q{stroke-width:0.5px;}.r{stroke:none;}.s{filter:url(#d);}.t{filter:url(#b);}</style><clipPath id="a"><rect class="a" width="874" height="460" transform="translate(492 137)"/></clipPath><filter id="b" x="21" y="-14" width="661" height="468" filterUnits="userSpaceOnUse"><feOffset dy="3" input="SourceAlpha"/><feGaussianBlur stdDeviation="10" result="c"/><feFlood flood-opacity="0.161"/><feComposite operator="in" in2="c"/><feComposite in="SourceGraphic"/></filter><filter id="d" x="462" y="5" width="303" height="465" filterUnits="userSpaceOnUse"><feOffset dy="3" input="SourceAlpha"/><feGaussianBlur stdDeviation="10" result="e"/><feFlood flood-opacity="0.161"/><feComposite operator="in" in2="e"/><feComposite in="SourceGraphic"/></filter></defs><g class="b" transform="translate(-492 -137)"><circle class="c" cx="212.5" cy="212.5" r="212.5" transform="translate(1016 149)"/><circle class="d" cx="44" cy="44" r="44" transform="translate(514 500)"/><circle class="e" cx="13.5" cy="13.5" r="13.5" transform="translate(492 460)"/><circle class="f" cx="13.5" cy="13.5" r="13.5" transform="translate(1311 139)"/><g transform="translate(543 149)"><g class="t" transform="matrix(1, 0, 0, 1, -51, -12)"><g class="g" transform="translate(51 13)"><rect class="r" width="601" height="408" rx="4"/><rect class="k" x="0.1" y="0.1" width="600.8" height="407.8" rx="3.9"/></g></g><rect class="h" width="567" height="14" rx="7" transform="translate(16 93)"/><rect class="h" width="567" height="14" rx="7" transform="translate(16 122)"/><rect class="h" width="567" height="14" rx="7" transform="translate(16 151)"/><rect class="h" width="104" height="15" rx="7.5" transform="translate(45 180)"/><rect class="c" width="18" height="18" rx="5" transform="translate(16 179)"/><rect class="d" width="18" height="18" rx="5" transform="translate(16 218)"/><rect class="h" width="18" height="18" rx="5" transform="translate(16 256)"/><rect class="h" width="18" height="18" rx="5" transform="translate(16 294)"/><rect class="h" width="104" height="15" rx="7.5" transform="translate(45 219)"/><rect class="h" width="104" height="15" rx="7.5" transform="translate(45 257)"/><rect class="h" width="104" height="15" rx="7.5" transform="translate(45 296)"/><g transform="translate(-577 -149)"><rect class="c" width="104" height="40" rx="7" transform="translate(764 497)"/><rect class="d" width="105" height="40" rx="7" transform="translate(887 497)"/></g><path class="h" d="M4,0H597a4,4,0,0,1,4,4V72a0,0,0,0,1,0,0H0a0,0,0,0,1,0,0V4A4,4,0,0,1,4,0Z"/><path class="i" d="M5.12,0H6.9V-12.72h4.9V-14.4H.2v1.68H5.12Zm8-4.9h8.26c.18-3.84-1.72-6.2-4.98-6.2-3.14,0-5.2,2.22-5.2,5.76C11.2-1.96,13.3.3,16.48.3a5.049,5.049,0,0,0,4.74-3L19.5-3.3a3.244,3.244,0,0,1-3.1,1.9C14.42-1.4,13.26-2.66,13.12-4.9Zm3.34-4.6c1.84,0,2.86,1.04,3.1,3.16h-6.4C13.4-8.38,14.54-9.5,16.46-9.5ZM27.7.3c2.7,0,4.32-1.28,4.32-3.36,0-1.68-.92-2.48-3.78-3.2-2.54-.64-3.08-.98-3.08-1.78,0-.92.96-1.52,2.36-1.48a2.444,2.444,0,0,1,2.64,1.9l1.82-.32c-.22-1.9-2-3.16-4.46-3.16-2.5,0-4.16,1.26-4.16,3.16,0,1.54.92,2.28,3.78,3.04,2.64.72,3.04.98,3.04,1.88,0,1.06-.9,1.72-2.36,1.72a2.8,2.8,0,0,1-2.98-1.92l-1.82.3C23.4-.9,25.12.3,27.7.3Zm9.32-9.64h3.26V-10.8H37.02v-3H35.24v3h-2.2v1.46h2.2v5.26A5.854,5.854,0,0,0,35.6-1.3C36.36.18,38.34.4,40.28,0V-1.54c-1.48.24-2.56.18-3.04-.68a4.124,4.124,0,0,1-.22-1.94ZM53.78-10.8,50.62-2.32,47.26-10.8H45.38L49.76-.02,47.98,4.8h1.74L55.6-10.8ZM61.44.3c3.22,0,5.22-2.32,5.22-5.72,0-3.34-1.98-5.68-5.22-5.68-3.16,0-5.2,2.3-5.2,5.68C56.24-2.06,58.22.3,61.44.3Zm0-1.7c-2.18,0-3.3-1.58-3.3-4.02,0-2.36,1.04-4,3.3-4,2.22,0,3.32,1.58,3.32,4C64.76-3.04,63.68-1.4,61.44-1.4Zm14.92-9.4v5.68c0,2.5-1.18,3.7-2.96,3.7-2.28,0-2.94-1.94-2.94-3.98v-5.4h-1.8v5.96c0,2.06.82,5.12,4.3,5.12a4.322,4.322,0,0,0,3.6-1.66V0h1.6V-10.8Zm7.12.66a3.316,3.316,0,0,0-.92,1.04v-1.7h-1.6V0h1.8V-5.42a3.814,3.814,0,0,1,1.3-3.3,3.024,3.024,0,0,1,2.48-.42V-10.8A3.762,3.762,0,0,0,83.48-10.14ZM97.56.3c2.98,0,5.38-1.54,5.38-4.32s-2.36-3.48-3.62-3.84l-2.74-.78c-1.06-.3-2.4-.76-2.4-2.1,0-1.32,1.38-2.28,3.14-2.26a3.515,3.515,0,0,1,3.64,2.84l1.9-.32c-.54-2.62-2.62-4.2-5.52-4.22-2.86,0-5.04,1.5-5.04,4.04,0,2.14,1.52,3.06,3.12,3.54L99.1-6.04c1.02.32,2,.86,2,2.12,0,1.56-1.52,2.52-3.46,2.52a3.92,3.92,0,0,1-4.06-2.88L91.74-4C92.22-1.34,94.5.3,97.56.3Zm7.48-.3h1.8V-5.2L111.76,0h2.48l-5.32-5.4,4.76-5.4h-2.3l-4.54,5.2v-8.8h-1.8Zm10.4-12.82h1.78v-1.84h-1.78Zm0,12.82h1.78V-10.8h-1.78Zm4.98,0h1.78V-14.7h-1.78Zm4.98,0h1.78V-14.7H125.4Zm8.86.3c2.7,0,4.32-1.28,4.32-3.36,0-1.68-.92-2.48-3.78-3.2-2.54-.64-3.08-.98-3.08-1.78,0-.92.96-1.52,2.36-1.48a2.444,2.444,0,0,1,2.64,1.9l1.82-.32c-.22-1.9-2-3.16-4.46-3.16-2.5,0-4.16,1.26-4.16,3.16,0,1.54.92,2.28,3.78,3.04,2.64.72,3.04.98,3.04,1.88,0,1.06-.9,1.72-2.36,1.72a2.8,2.8,0,0,1-2.98-1.92l-1.82.3C129.96-.9,131.68.3,134.26.3Z" transform="translate(18.5 43)"/><path class="j" d="M9.927,7.893h0L7.675,5.64,9.927,3.388h0a.233.233,0,0,0,0-.328L8.863,2a.233.233,0,0,0-.328,0h0L6.283,4.248,4.031,2h0A.233.233,0,0,0,3.7,2L2.639,3.06a.233.233,0,0,0,0,.328h0L4.891,5.64,2.639,7.892h0a.233.233,0,0,0,0,.328L3.7,9.285a.233.233,0,0,0,.328,0h0L6.283,7.032,8.535,9.285h0a.232.232,0,0,0,.328,0L9.927,8.221a.232.232,0,0,0,0-.328Z" transform="translate(18.314 221.648)"/><path class="i" d="M3.465,12.036.149,8.72A.51.51,0,0,1,.149,8l.721-.721a.51.51,0,0,1,.721,0L3.826,9.511,8.61,4.727a.51.51,0,0,1,.721,0l.721.721a.51.51,0,0,1,0,.721L4.187,12.036A.51.51,0,0,1,3.465,12.036Z" transform="translate(19.725 179.088)"/><g transform="translate(-485 -183)"><g class="s" transform="matrix(1, 0, 0, 1, 434, 171)"><g class="g" transform="translate(492 32)"><rect class="r" width="243" height="405" rx="4"/><rect class="k" x="0.1" y="0.1" width="242.8" height="404.8" rx="3.9"/></g></g><g transform="translate(980.893 357.6)"><rect class="k" width="113" height="124" rx="12" transform="translate(8.107 8.4)"/><path class="i" d="M13.39,0A65.7,65.7,0,0,1,72.317,36.369a64.47,64.47,0,0,1-7.168,68.585A65.975,65.975,0,0,1,.735,128.761L0,128.614l5.805-28.133a37.255,37.255,0,0,0,36.776-13.3,35.745,35.745,0,0,0,4-38.062A36.966,36.966,0,0,0,13.814,28.728l-.424,0Z" transform="translate(51.677 0)"/><path class="j" d="M.543,0,29.031,3.686A36.223,36.223,0,0,0,56.966,43.679l.553.12L51.64,71.916A64.948,64.948,0,0,1,.42,1.009Z" transform="translate(0 56.326)"/><path class="j" d="M64.515,0V28.725A36.455,36.455,0,0,0,28.566,60.169l-.075.548L0,57.057A65.194,65.194,0,0,1,63.535.007Z" transform="translate(0.118 0)"/></g><path class="l" d="M4.634.21C6.72.21,8.5-.854,8.5-2.87,8.5-4.844,6.8-5.348,5.88-5.6L4.018-6.132c-.714-.2-1.568-.49-1.568-1.33S3.374-8.918,4.494-8.9A2.321,2.321,0,0,1,6.86-7.056l1.568-.28a3.714,3.714,0,0,0-3.92-2.94C2.478-10.29.91-9.254.91-7.392a2.577,2.577,0,0,0,2.212,2.52l2.59.77c.742.224,1.26.6,1.26,1.316,0,1.022-1.036,1.61-2.254,1.61A2.607,2.607,0,0,1,2.03-3.122L.518-2.884C.84-.966,2.464.21,4.634.21ZM15.176-7.56v3.934c0,1.792-.868,2.45-1.932,2.45-1.6,0-1.9-1.5-1.9-2.674V-7.56H9.856v4.2c0,1.162.378,3.57,3,3.57A3.089,3.089,0,0,0,15.344-.9V0h1.3V-7.56Zm11.4-.2a2.63,2.63,0,0,0-2.31,1.232,2.31,2.31,0,0,0-2.2-1.232,2.749,2.749,0,0,0-2.17,1.008V-7.56h-1.3V0h1.484V-4.732A1.531,1.531,0,0,1,21.6-6.44c.938,0,1.54.658,1.54,1.764V0H24.6V-4.732a1.534,1.534,0,0,1,1.54-1.708,1.522,1.522,0,0,1,1.526,1.722V0h1.47V-5.068A2.432,2.432,0,0,0,26.572-7.756Zm12.348,0a2.63,2.63,0,0,0-2.31,1.232,2.31,2.31,0,0,0-2.2-1.232,2.749,2.749,0,0,0-2.17,1.008V-7.56h-1.3V0h1.484V-4.732A1.531,1.531,0,0,1,33.95-6.44c.938,0,1.54.658,1.54,1.764V0h1.456V-4.732a1.534,1.534,0,0,1,1.54-1.708,1.522,1.522,0,0,1,1.526,1.722V0h1.47V-5.068A2.432,2.432,0,0,0,38.92-7.756ZM49.182-6.328a2.892,2.892,0,0,0-2.87-1.442,2.941,2.941,0,0,0-3.15,2.128l1.358.42a1.722,1.722,0,0,1,1.792-1.19c1.162,0,1.652.49,1.708,1.512a28.749,28.749,0,0,0-3.346.6,2.221,2.221,0,0,0-1.792,2.24A2.282,2.282,0,0,0,45.43.21a3.077,3.077,0,0,0,2.73-1.316V0h1.288V-4.662A3.8,3.8,0,0,0,49.182-6.328ZM45.7-.98c-.938,0-1.372-.5-1.372-1.092s.448-.91,1.05-1.12a19.69,19.69,0,0,1,2.618-.476,3.847,3.847,0,0,1-.14,1.19A2.107,2.107,0,0,1,45.7-.98ZM53.27-7.126a2.324,2.324,0,0,0-.7.77v-1.2h-1.3V0h1.47V-3.822A2.348,2.348,0,0,1,53.7-5.95a2.082,2.082,0,0,1,1.638-.238V-7.56A2.736,2.736,0,0,0,53.27-7.126ZM61.6-7.56,59.472-1.89l-2.24-5.67h-1.54L58.758-.042l-1.246,3.4h1.4L63.07-7.56Z" transform="translate(1015 229)"/><g transform="translate(938.553 533.343)"><path class="m" d="M5.04,0H216.73c2.784,0,5.04,1.183,5.04,2.643v29.07c0,1.46-2.257,2.643-5.04,2.643H5.04C2.257,34.356,0,33.172,0,31.713V2.643C0,1.183,2.257,0,5.04,0Z"/><path class="n" d="M.77,0H5.775V-.935H1.749V-3.586H5.115V-4.51H1.749V-7H5.775V-7.92H.77ZM6.435,0h1.2L9.757-3.179,11.869,0h1.2L10.351-4.015,13-7.92H11.8L9.757-4.84,7.7-7.92H6.512l2.651,3.9ZM19.052,0h1.012L17.413-7.92H16.049L13.4,0h1.023l.616-1.859h3.388ZM15.345-2.772,16.72-6.886l1.386,4.114ZM21.054,0h.935V-5.775L24.673,0H25.2l2.684-5.775V-.011h.935V-7.92h-.9l-2.981,6.3-2.992-6.3h-.891ZM30.47,0h.979V-7.92H30.47ZM33.1,0h.99V-6.193L38.225,0h.99V-7.92h-.99v6.182L34.089-7.92H33.1Zm7.656,0H45.76V-.935H41.734V-3.586H45.1V-4.51H41.734V-7H45.76V-7.92H40.755ZM51.326,0h.979V-7H55V-7.92H48.62V-7h2.706ZM55.88,0h5.005V-.935H56.859V-3.586h3.366V-4.51H56.859V-7h4.026V-7.92H55.88ZM64.8.165c1.639,0,2.959-.847,2.959-2.376s-1.3-1.914-1.991-2.112l-1.507-.429c-.583-.165-1.32-.418-1.32-1.155S63.7-7.161,64.669-7.15a1.933,1.933,0,0,1,2,1.562l1.045-.176A2.889,2.889,0,0,0,64.68-8.085c-1.573,0-2.772.825-2.772,2.222a2.012,2.012,0,0,0,1.716,1.947l2.024.594c.561.176,1.1.473,1.1,1.166,0,.858-.836,1.386-1.9,1.386a2.156,2.156,0,0,1-2.233-1.584L61.6-2.2A2.988,2.988,0,0,0,64.8.165ZM70.961,0h.979V-7h2.695V-7.92h-6.38V-7h2.706Zm6.534,0h.979V-7.92h-.979Zm2.629,0h.99V-6.193L85.25,0h.99V-7.92h-.99v6.182L81.114-7.92h-.99ZM89.98,0h2.442a7.525,7.525,0,0,0,1-.055C95.26-.3,96.206-1.936,96.206-3.96s-.946-3.674-2.783-3.916a9.5,9.5,0,0,0-1-.044H89.98Zm1.012-.935v-6.05h1.43a6.511,6.511,0,0,1,.924.055c1.276.231,1.826,1.474,1.826,2.97,0,1.463-.528,2.728-1.826,2.959a5.151,5.151,0,0,1-.924.066ZM97.471,0h5.005V-.935H98.45V-3.586h3.366V-4.51H98.45V-7h4.026V-7.92H97.471Zm8.371,0h.979V-7h2.695V-7.92h-6.38V-7h2.706Zm9.438,0h1.012l-2.651-7.92h-1.364L109.626,0h1.023l.616-1.859h3.388Zm-3.707-2.772,1.375-4.114,1.386,4.114ZM117.392,0h.979V-7.92h-.979Zm2.739,0h4.653V-.935H121.11V-7.92h-.979Zm8.4.165c1.639,0,2.959-.847,2.959-2.376s-1.3-1.914-1.991-2.112L128-4.752c-.583-.165-1.32-.418-1.32-1.155s.759-1.254,1.727-1.243a1.933,1.933,0,0,1,2,1.562l1.045-.176a2.889,2.889,0,0,0-3.036-2.321c-1.573,0-2.772.825-2.772,2.222a2.012,2.012,0,0,0,1.716,1.947l2.024.594c.561.176,1.1.473,1.1,1.166,0,.858-.836,1.386-1.9,1.386a2.156,2.156,0,0,1-2.233-1.584l-1.012.154A2.988,2.988,0,0,0,128.535.165Z" transform="translate(39.447 20.657)"/></g><g transform="translate(983.48 264.444)"><g transform="translate(0 0)"><path class="o" d="M3.258.135A2.73,2.73,0,0,0,6.075-2L5.4-2.169A2.068,2.068,0,0,1,3.258-.5C1.737-.5.954-1.62.972-3.24s.765-2.736,2.286-2.736A2.068,2.068,0,0,1,5.4-4.311l.675-.171A2.73,2.73,0,0,0,3.258-6.615C1.314-6.615.27-5.229.27-3.24S1.314.135,3.258.135ZM9.1.135a2.291,2.291,0,0,0,2.3-2.574A2.285,2.285,0,0,0,9.1-4.995,2.29,2.29,0,0,0,6.8-2.439,2.3,2.3,0,0,0,9.1.135Zm0-.63C8.046-.5,7.5-1.26,7.5-2.439c0-1.134.513-1.926,1.6-1.926,1.062,0,1.6.756,1.6,1.926C10.7-1.287,10.17-.5,9.1-.5Zm4.266-4.05a1.549,1.549,0,0,0-.378.45V-4.86h-.594V0h.666V-2.421a1.928,1.928,0,0,1,.558-1.6,1.366,1.366,0,0,1,1.17-.216V-4.86A1.712,1.712,0,0,0,13.365-4.545Zm3.249,0a1.549,1.549,0,0,0-.378.45V-4.86h-.594V0h.666V-2.421a1.928,1.928,0,0,1,.558-1.6,1.366,1.366,0,0,1,1.17-.216V-4.86A1.712,1.712,0,0,0,16.614-4.545Zm2.628,2.3h3.825c.045-1.719-.792-2.754-2.232-2.754a2.286,2.286,0,0,0-2.3,2.583A2.286,2.286,0,0,0,20.853.135,2.258,2.258,0,0,0,22.977-1.2l-.621-.234A1.61,1.61,0,0,1,20.835-.5C19.863-.5,19.3-1.134,19.242-2.241Zm1.611-2.151c.9,0,1.413.549,1.521,1.593H19.251A1.542,1.542,0,0,1,20.853-4.392ZM26.082.135A2.057,2.057,0,0,0,28.116-1.2l-.657-.189A1.406,1.406,0,0,1,26.082-.5c-1.044,0-1.575-.774-1.584-1.935.009-1.134.513-1.935,1.584-1.935a1.428,1.428,0,0,1,1.386.927l.648-.216a2.016,2.016,0,0,0-2.025-1.341c-1.458,0-2.277,1.035-2.3,2.565C23.814-.927,24.615.135,26.082.135Zm4.131-4.428H31.7V-4.86H30.213V-6.21h-.666v1.35H28.512v.567h1.035v2.529a2.5,2.5,0,0,0,.162,1.188c.315.639,1.17.747,1.989.576V-.576c-.693.108-1.17.063-1.386-.333a1.856,1.856,0,0,1-.1-.873Z" transform="translate(16.521 8.556)"/><rect class="i" width="12" height="12" rx="2" transform="translate(-0.479 -0.444)"/></g><g transform="translate(70.693 0)"><path class="o" d="M.8,0h.73V-7.2H.8ZM5.51-5.53a2.108,2.108,0,0,0-1.82.88V-5.4H3.03V0h.74V-2.88c0-1.22.56-1.95,1.59-1.95,1.14,0,1.57.88,1.57,2.07V0h.74V-2.97C7.67-4.19,7.12-5.53,5.51-5.53ZM11.18.15a2.285,2.285,0,0,0,2.26-1.48l-.73-.21a1.562,1.562,0,0,1-1.53.99c-1.16,0-1.75-.86-1.76-2.15.01-1.26.57-2.15,1.76-2.15a1.587,1.587,0,0,1,1.54,1.03l.72-.24a2.24,2.24,0,0,0-2.25-1.49C9.57-5.55,8.66-4.4,8.64-2.7,8.66-1.03,9.55.15,11.18.15Zm5.41,0a2.545,2.545,0,0,0,2.56-2.86,2.538,2.538,0,0,0-2.56-2.84,2.544,2.544,0,0,0-2.56,2.84A2.55,2.55,0,0,0,16.59.15Zm0-.7c-1.17,0-1.78-.85-1.78-2.16,0-1.26.57-2.14,1.78-2.14,1.18,0,1.78.84,1.78,2.14C18.37-1.43,17.78-.55,16.59-.55Zm4.74-4.5a1.721,1.721,0,0,0-.42.5V-5.4h-.66V0h.74V-2.69a2.143,2.143,0,0,1,.62-1.78,1.518,1.518,0,0,1,1.3-.24V-5.4A1.9,1.9,0,0,0,21.33-5.05Zm3.61,0a1.721,1.721,0,0,0-.42.5V-5.4h-.66V0h.74V-2.69a2.143,2.143,0,0,1,.62-1.78,1.518,1.518,0,0,1,1.3-.24V-5.4A1.9,1.9,0,0,0,24.94-5.05Zm2.92,2.56h4.25c.05-1.91-.88-3.06-2.48-3.06-1.56,0-2.56,1.1-2.56,2.87A2.54,2.54,0,0,0,29.65.15a2.509,2.509,0,0,0,2.36-1.48l-.69-.26A1.788,1.788,0,0,1,29.63-.55C28.55-.55,27.92-1.26,27.86-2.49Zm1.79-2.39c1,0,1.57.61,1.69,1.77H27.87A1.713,1.713,0,0,1,29.65-4.88ZM35.46.15a2.285,2.285,0,0,0,2.26-1.48l-.73-.21a1.562,1.562,0,0,1-1.53.99c-1.16,0-1.75-.86-1.76-2.15.01-1.26.57-2.15,1.76-2.15A1.587,1.587,0,0,1,37-3.82l.72-.24a2.24,2.24,0,0,0-2.25-1.49c-1.62,0-2.53,1.15-2.55,2.85C32.94-1.03,33.83.15,35.46.15Zm4.59-4.92H41.7V-5.4H40.05V-6.9h-.74v1.5H38.16v.63h1.15v2.81a2.774,2.774,0,0,0,.18,1.32c.35.71,1.3.83,2.21.64V-.64c-.77.12-1.3.07-1.54-.37a2.062,2.062,0,0,1-.11-.97Z" transform="translate(16.827 9.556)"/><rect class="j" width="12" height="12" rx="2" transform="translate(-0.173 -0.444)"/></g></g><g transform="translate(1032.37 412.437)"><text class="p" transform="translate(13.63 17.563)"><tspan x="-9" y="0">%</tspan></text></g><line class="q" x2="142.378" transform="translate(976.542 289.219)"/></g></g></g></svg>