<svg xmlns="http://www.w3.org/2000/svg" xmlns:xlink="http://www.w3.org/1999/xlink" width="217.353" height="221.22" viewBox="0 0 217.353 221.22"><defs><style>.a,.b,.e,.o{fill:#fff;}.a,.b,.c,.h,.j,.k,.l,.m,.n,.p{stroke:#263238;}.a,.c,.i,.j,.k,.l,.m,.n,.p{stroke-miterlimit:10;}.b,.h,.k{stroke-linecap:round;}.b,.h{stroke-linejoin:round;}.c,.d{fill:#3757f5;}.e{opacity:0.7;}.f{fill:#d1d1d1;}.g{fill:#b0b0b0;}.h,.i,.k,.l,.m,.n{fill:none;}.i{stroke:#ccc;}.j,.p,.q{fill:#263238;}.m{stroke-dasharray:2.022 2.022;}.n{stroke-dasharray:1.982 1.982;}.p{stroke-width:0.75px;}.r{clip-path:url(#a);}.s,.x{opacity:0.3;}.t{clip-path:url(#b);}.u{clip-path:url(#c);}.v{clip-path:url(#d);}.w{clip-path:url(#e);}.x{fill:#ccc;}.y{clip-path:url(#f);}.z{clip-path:url(#g);}</style><clipPath id="a"><path class="a" d="M194.57,327.42s-1.876,8.224-2.6,10.679-3.6,7.382-4.041,15.575-2.461,27.989-2.461,27.989-4.921,4.472-6.348,5.911-.437,2.024.578,2.743,6.053,3.463,8.366,3.316,3.746-.578,3.894-2.885.142-7.5.72-9.227,8.513-25.965,10.242-33.174a53.383,53.383,0,0,0,1.729-11.109l3.033-7.935Z" transform="translate(-178.411 -327.42)"/></clipPath><clipPath id="b"><path class="a" d="M203.375,356.6c-4.964-3.223-10.74-2.768-13.674-2.233a36.764,36.764,0,0,0-1.778,9.535c-.431,8.224-2.461,27.989-2.461,27.989s-4.921,4.472-6.348,5.911-.437,2.024.578,2.744,6.053,3.463,8.366,3.316,3.746-.578,3.894-2.885.141-7.5.72-9.227,8.514-25.965,10.242-33.174C203.1,357.875,203.246,357.223,203.375,356.6Z" transform="translate(-178.401 -353.984)"/></clipPath><clipPath id="c"><path class="a" d="M274.1,327.42s1.876,8.224,2.6,10.679,3.611,7.382,4.041,15.575,2.461,27.989,2.461,27.989,4.921,4.472,6.348,5.911.431,2.024-.578,2.743-6.059,3.463-8.366,3.316-3.752-.578-3.9-2.885-.142-7.5-.72-9.227-8.507-25.965-10.242-33.174a52.846,52.846,0,0,1-1.729-11.109L261,329.3Z" transform="translate(-261 -327.42)"/></clipPath><clipPath id="d"><path class="a" d="M268,356.6c4.958-3.223,10.734-2.768,13.668-2.233a36.251,36.251,0,0,1,1.778,9.535c.431,8.224,2.461,27.989,2.461,27.989s4.921,4.472,6.348,5.911.431,2.024-.578,2.744-6.059,3.463-8.366,3.316-3.752-.578-3.9-2.885-.141-7.5-.72-9.227-8.507-25.965-10.242-33.174C268.265,357.875,268.123,357.223,268,356.6Z" transform="translate(-268 -353.984)"/></clipPath><clipPath id="e"><path class="a" d="M260.762,141.75s3.894-6.484,5.622-8.643,2.461-3.168,2.461-3.168-21.179-.148-22.046-.578-1.15-1.439-2.461-2.737-2.159-1.729-2.018-2.307,2.307,0,2.307,0a12.918,12.918,0,0,0-3.746-2.159c-1.876-.578-1.009-1.729,1.3-1.845s4.921-.431,7.056.867,4.306,4.921,4.306,4.921a117.652,117.652,0,0,1,14.554-4.607c7.351-1.729,14.554-1.587,14.985-1.009s-6.484,21.321-17.144,31.556Z" transform="translate(-239.859 -120.092)"/></clipPath><clipPath id="f"><path class="b" d="M190.545,141.75s-3.894-6.484-5.622-8.643-2.461-3.168-2.461-3.168,21.185-.148,22.046-.578,1.15-1.439,2.461-2.737,2.165-1.729,2.018-2.307-2.307,0-2.307,0a12.918,12.918,0,0,1,3.746-2.159c1.845-.578,1.009-1.729-1.292-1.845s-4.921-.431-7.062.867-4.306,4.921-4.306,4.921a117.657,117.657,0,0,0-14.554-4.607c-7.345-1.729-14.554-1.587-14.985-1.009s6.484,21.321,17.15,31.556Z" transform="translate(-168.209 -120.092)"/></clipPath><clipPath id="g"><path class="c" d="M230.7,163l-9.651-.578c-7.2-.431-9.51.142-9.51.142l-12.967-10.8-7.64,11.528,10.808,13.109s1.876,10.519,3.316,16.43,2.018,18.011,1.3,21.031-.148,4.472,1.009,5.044,9.51,2.307,19.74,1.729,13.687-1.581,14.837-3.6.148-5.186-.283-7.492.141-10.23.431-16.713.861-14.554.861-14.554l9.227-14.843a26.911,26.911,0,0,0-3.316-8.79,15.871,15.871,0,0,0-5.186-5.186l-6.2,8.5Z" transform="translate(-190.93 -149.45)"/></clipPath></defs><g transform="translate(0)"><g transform="translate(0 0)"><path class="d" d="M279.8,233.155a101.9,101.9,0,0,0,.449-22.416c-5.524-65.3-60.154-134.419-121.7-118.4C137.28,97.881,121.527,113,112.14,134.715c-6.89,15.932-11.768,34.571-22.969,47.329C70.8,202.958,48.627,235.714,76.505,264.312s62.079,10.021,91.218,8.55c24.495-1.23,49.248,7.886,73.662,4.6C264.583,274.345,276.639,256.192,279.8,233.155Z" transform="translate(-63.311 -90.002)"/><path class="e" d="M279.8,233.155a101.9,101.9,0,0,0,.449-22.416c-5.524-65.3-60.154-134.419-121.7-118.4C137.28,97.881,121.527,113,112.14,134.715c-6.89,15.932-11.768,34.571-22.969,47.329C70.8,202.958,48.627,235.714,76.505,264.312s62.079,10.021,91.218,8.55c24.495-1.23,49.248,7.886,73.662,4.6C264.583,274.345,276.639,256.192,279.8,233.155Z" transform="translate(-63.311 -90.002)"/></g><g transform="translate(13.661 104.172)"><path class="f" d="M374.022,327.366a2.276,2.276,0,1,1-2.27-2.276A2.276,2.276,0,0,1,374.022,327.366Z" transform="translate(-194.802 -284.651)"/><path class="f" d="M379.152,317.406a2.276,2.276,0,1,1-2.276-2.276A2.276,2.276,0,0,1,379.152,317.406Z" transform="translate(-196.777 -280.818)"/><path class="g" d="M386.832,327.366a2.276,2.276,0,1,1-2.276-2.276A2.276,2.276,0,0,1,386.832,327.366Z" transform="translate(-199.732 -284.651)"/><path class="g" d="M368.622,319.686a2.276,2.276,0,1,1-2.276-2.276A2.276,2.276,0,0,1,368.622,319.686Z" transform="translate(-192.724 -281.695)"/><path class="f" d="M395.932,323.386a2.27,2.27,0,1,1-.665-1.611A2.276,2.276,0,0,1,395.932,323.386Z" transform="translate(-203.235 -283.119)"/><path class="f" d="M401.052,313.426a2.276,2.276,0,1,1-2.27-2.276A2.276,2.276,0,0,1,401.052,313.426Z" transform="translate(-205.205 -279.286)"/><circle class="g" cx="2.276" cy="2.276" r="2.276" transform="translate(196.025 37.991)"/><path class="g" d="M390.532,315.7a2.276,2.276,0,1,1-2.276-2.276,2.276,2.276,0,0,1,2.276,2.276Z" transform="translate(-201.156 -280.16)"/><path class="f" d="M158.922,310.576a2.276,2.276,0,1,1-2.276-2.276A2.276,2.276,0,0,1,158.922,310.576Z" transform="translate(-112.018 -278.189)"/><path class="f" d="M164.042,300.576a2.27,2.27,0,1,1-.665-1.611A2.276,2.276,0,0,1,164.042,300.576Z" transform="translate(-113.988 -274.341)"/><path class="g" d="M171.722,310.576a2.276,2.276,0,1,1-2.27-2.276A2.276,2.276,0,0,1,171.722,310.576Z" transform="translate(-116.944 -278.189)"/><path class="g" d="M153.522,302.9a2.276,2.276,0,1,1-2.276-2.276,2.276,2.276,0,0,1,2.276,2.276Z" transform="translate(-109.94 -275.233)"/><path class="f" d="M321.962,313.136a2.276,2.276,0,1,1-2.276-2.276,2.276,2.276,0,0,1,2.276,2.276Z" transform="translate(-174.766 -279.174)"/><path class="f" d="M327.082,303.18a2.276,2.276,0,1,1-2.276-2.27A2.276,2.276,0,0,1,327.082,303.18Z" transform="translate(-176.737 -275.345)"/><path class="g" d="M334.762,313.136a2.276,2.276,0,1,1-2.276-2.276,2.276,2.276,0,0,1,2.276,2.276Z" transform="translate(-179.693 -279.174)"/><path class="g" d="M316.552,305.456a2.276,2.276,0,1,1-2.276-2.276A2.276,2.276,0,0,1,316.552,305.456Z" transform="translate(-172.684 -276.219)"/><path class="f" d="M357.242,337.9a2.276,2.276,0,1,1-2.276-2.276,2.276,2.276,0,0,1,2.276,2.276Z" transform="translate(-188.344 -288.704)"/><path class="f" d="M362.362,327.936a2.276,2.276,0,1,1-2.276-2.276A2.276,2.276,0,0,1,362.362,327.936Z" transform="translate(-190.315 -284.87)"/><path class="g" d="M370.042,337.9a2.276,2.276,0,1,1-2.276-2.276,2.276,2.276,0,0,1,2.276,2.276Z" transform="translate(-193.271 -288.704)"/><path class="g" d="M351.832,330.21a2.276,2.276,0,1,1-2.276-2.27A2.276,2.276,0,0,1,351.832,330.21Z" transform="translate(-186.262 -285.748)"/><circle class="f" cx="2.276" cy="2.276" r="2.276" transform="translate(180.099 52.693)"/><path class="f" d="M387.972,337.326a2.276,2.276,0,1,1-2.276-2.276A2.276,2.276,0,0,1,387.972,337.326Z" transform="translate(-200.171 -288.484)"/><path class="g" d="M395.652,347.286a2.276,2.276,0,1,1-2.276-2.276A2.276,2.276,0,0,1,395.652,347.286Z" transform="translate(-203.127 -292.317)"/><path class="g" d="M377.442,339.576a2.276,2.276,0,1,1-2.276-2.276A2.276,2.276,0,0,1,377.442,339.576Z" transform="translate(-196.119 -289.35)"/><path class="f" d="M352.152,323.95a2.276,2.276,0,1,1-2.276-2.27A2.276,2.276,0,0,1,352.152,323.95Z" transform="translate(-186.385 -283.339)"/><path class="f" d="M357.242,314a2.276,2.276,0,1,1-2.276-2.276A2.276,2.276,0,0,1,357.242,314Z" transform="translate(-188.344 -279.505)"/><path class="g" d="M364.922,323.95a2.276,2.276,0,1,1-2.276-2.27,2.276,2.276,0,0,1,2.276,2.27Z" transform="translate(-191.3 -283.339)"/><path class="g" d="M346.712,316.266a2.276,2.276,0,1,1-2.276-2.276A2.276,2.276,0,0,1,346.712,316.266Z" transform="translate(-184.292 -280.379)"/><path class="f" d="M322.522,332.486a2.276,2.276,0,1,1-2.27-2.276A2.276,2.276,0,0,1,322.522,332.486Z" transform="translate(-174.982 -286.621)"/><path class="f" d="M327.652,322.576a2.276,2.276,0,1,1-2.276-2.276A2.276,2.276,0,0,1,327.652,322.576Z" transform="translate(-176.956 -282.807)"/><path class="g" d="M335.332,332.486a2.276,2.276,0,1,1-2.276-2.276A2.276,2.276,0,0,1,335.332,332.486Z" transform="translate(-179.912 -286.621)"/><path class="g" d="M317.152,324.806a2.276,2.276,0,1,1-2.276-2.276A2.276,2.276,0,0,1,317.152,324.806Z" transform="translate(-172.915 -283.666)"/><path class="f" d="M343.582,346.146a2.276,2.276,0,1,1-2.276-2.276A2.276,2.276,0,0,1,343.582,346.146Z" transform="translate(-183.087 -291.879)"/><path class="f" d="M348.7,336.186a2.276,2.276,0,1,1-2.276-2.276A2.276,2.276,0,0,1,348.7,336.186Z" transform="translate(-185.058 -288.046)"/><path class="g" d="M356.382,346.146a2.276,2.276,0,1,1-2.276-2.276A2.276,2.276,0,0,1,356.382,346.146Z" transform="translate(-188.013 -291.879)"/><path class="g" d="M338.152,338.466a2.27,2.27,0,1,1-.665-1.611A2.276,2.276,0,0,1,338.152,338.466Z" transform="translate(-180.997 -288.923)"/><path class="f" d="M339.032,323.95a2.276,2.276,0,1,1-2.276-2.27A2.276,2.276,0,0,1,339.032,323.95Z" transform="translate(-181.336 -283.339)"/><path class="f" d="M344.152,314a2.276,2.276,0,1,1-2.276-2.276A2.276,2.276,0,0,1,344.152,314Z" transform="translate(-183.306 -279.505)"/><path class="g" d="M351.832,323.95a2.276,2.276,0,1,1-2.276-2.27A2.276,2.276,0,0,1,351.832,323.95Z" transform="translate(-186.262 -283.339)"/><path class="g" d="M333.622,316.266a2.27,2.27,0,1,1-.665-1.611A2.276,2.276,0,0,1,333.622,316.266Z" transform="translate(-179.254 -280.379)"/><path class="f" d="M369.762,319.966a2.276,2.276,0,1,1-2.276-2.276A2.276,2.276,0,0,1,369.762,319.966Z" transform="translate(-193.163 -281.803)"/><path class="f" d="M374.882,310.006a2.276,2.276,0,1,1-2.276-2.276A2.276,2.276,0,0,1,374.882,310.006Z" transform="translate(-195.133 -277.97)"/><path class="g" d="M382.562,319.966a2.276,2.276,0,1,1-2.276-2.276A2.276,2.276,0,0,1,382.562,319.966Z" transform="translate(-198.089 -281.803)"/><path class="g" d="M364.352,312.286a2.276,2.276,0,1,1-2.276-2.276A2.276,2.276,0,0,1,364.352,312.286Z" transform="translate(-191.081 -278.847)"/><path class="f" d="M310.012,317.69a2.276,2.276,0,1,1-2.276-2.27A2.276,2.276,0,0,1,310.012,317.69Z" transform="translate(-170.167 -280.929)"/><path class="f" d="M315.152,307.736a2.276,2.276,0,1,1-2.276-2.276A2.276,2.276,0,0,1,315.152,307.736Z" transform="translate(-172.145 -277.096)"/><path class="g" d="M322.812,317.69a2.276,2.276,0,1,1-2.276-2.27A2.276,2.276,0,0,1,322.812,317.69Z" transform="translate(-175.093 -280.929)"/><path class="g" d="M304.6,310.006a2.276,2.276,0,1,1-2.276-2.276,2.276,2.276,0,0,1,2.276,2.276Z" transform="translate(-168.085 -277.97)"/><path class="f" d="M294.642,333.056a2.276,2.276,0,1,1-2.276-2.276A2.276,2.276,0,0,1,294.642,333.056Z" transform="translate(-164.252 -286.841)"/><path class="f" d="M299.762,323.1a2.276,2.276,0,1,1-2.276-2.276,2.276,2.276,0,0,1,2.276,2.276Z" transform="translate(-166.222 -283.008)"/><path class="g" d="M307.442,333.056a2.276,2.276,0,1,1-2.27-2.276,2.276,2.276,0,0,1,2.27,2.276Z" transform="translate(-169.178 -286.841)"/><path class="g" d="M289.232,325.376a2.276,2.276,0,1,1-2.27-2.276A2.276,2.276,0,0,1,289.232,325.376Z" transform="translate(-162.17 -283.885)"/><path class="f" d="M316.262,343.3a2.27,2.27,0,1,1-.663-1.609A2.276,2.276,0,0,1,316.262,343.3Z" transform="translate(-172.573 -290.782)"/><path class="f" d="M321.392,333.34a2.276,2.276,0,1,1-2.276-2.27,2.276,2.276,0,0,1,2.276,2.27Z" transform="translate(-174.547 -286.952)"/><path class="g" d="M329.072,343.3a2.276,2.276,0,1,1-2.276-2.276A2.276,2.276,0,0,1,329.072,343.3Z" transform="translate(-177.503 -290.782)"/><path class="g" d="M310.862,335.576a2.276,2.276,0,1,1-2.276-2.276,2.276,2.276,0,0,1,2.276,2.276Z" transform="translate(-170.494 -287.811)"/><path class="f" d="M272.452,343.016a2.276,2.276,0,1,1-2.276-2.276A2.276,2.276,0,0,1,272.452,343.016Z" transform="translate(-155.712 -290.674)"/><path class="f" d="M277.572,333.056a2.276,2.276,0,1,1-2.276-2.276A2.276,2.276,0,0,1,277.572,333.056Z" transform="translate(-157.682 -286.841)"/><path class="g" d="M285.252,343.016a2.276,2.276,0,1,1-2.276-2.276A2.276,2.276,0,0,1,285.252,343.016Z" transform="translate(-160.638 -290.674)"/><path class="g" d="M267.042,335.336a2.27,2.27,0,1,1-.665-1.611,2.276,2.276,0,0,1,.665,1.611Z" transform="translate(-153.63 -287.718)"/><path class="f" d="M280.412,322.576a2.276,2.276,0,1,1-2.27-2.276,2.276,2.276,0,0,1,2.27,2.276Z" transform="translate(-158.775 -282.807)"/><path class="f" d="M285.542,312.576a2.276,2.276,0,1,1-2.276-2.276,2.276,2.276,0,0,1,2.276,2.276Z" transform="translate(-160.75 -278.959)"/><path class="g" d="M293.222,322.576a2.276,2.276,0,1,1-2.276-2.276A2.276,2.276,0,0,1,293.222,322.576Z" transform="translate(-163.705 -282.807)"/><path class="g" d="M275.012,314.846a2.276,2.276,0,1,1-2.276-2.276A2.276,2.276,0,0,1,275.012,314.846Z" transform="translate(-156.697 -279.833)"/><path class="f" d="M295.212,312.286a2.276,2.276,0,1,1-2.276-2.276,2.276,2.276,0,0,1,2.276,2.276Z" transform="translate(-164.471 -278.847)"/><path class="f" d="M300.332,302.326a2.276,2.276,0,1,1-2.276-2.276A2.276,2.276,0,0,1,300.332,302.326Z" transform="translate(-166.442 -275.014)"/><path class="g" d="M308.012,312.286a2.276,2.276,0,1,1-2.276-2.276A2.276,2.276,0,0,1,308.012,312.286Z" transform="translate(-169.397 -278.847)"/><path class="g" d="M289.8,304.576a2.276,2.276,0,1,1-2.276-2.276A2.276,2.276,0,0,1,289.8,304.576Z" transform="translate(-162.389 -275.88)"/><path class="f" d="M255.952,313.426a2.276,2.276,0,1,1-2.276-2.276,2.276,2.276,0,0,1,2.276,2.276Z" transform="translate(-149.361 -279.286)"/><path class="f" d="M261.072,303.466a2.276,2.276,0,1,1-2.276-2.276A2.276,2.276,0,0,1,261.072,303.466Z" transform="translate(-151.332 -275.453)"/><path class="g" d="M268.752,313.426a2.276,2.276,0,1,1-2.276-2.276,2.276,2.276,0,0,1,2.276,2.276Z" transform="translate(-154.288 -279.286)"/><path class="g" d="M250.542,305.74a2.276,2.276,0,1,1-2.276-2.27,2.276,2.276,0,0,1,2.276,2.27Z" transform="translate(-147.279 -276.33)"/><path class="f" d="M246.842,331.066a2.276,2.276,0,1,1-2.276-2.276A2.276,2.276,0,0,1,246.842,331.066Z" transform="translate(-145.855 -286.075)"/><path class="f" d="M251.962,321.106a2.276,2.276,0,1,1-2.276-2.276A2.276,2.276,0,0,1,251.962,321.106Z" transform="translate(-147.826 -282.242)"/><path class="g" d="M259.642,331.066a2.276,2.276,0,1,1-2.27-2.276,2.276,2.276,0,0,1,2.27,2.276Z" transform="translate(-150.782 -286.075)"/><path class="g" d="M241.432,323.386a2.27,2.27,0,1,1-.663-1.609A2.276,2.276,0,0,1,241.432,323.386Z" transform="translate(-143.773 -283.119)"/><path class="f" d="M264.482,331.636a2.276,2.276,0,1,1-2.276-2.276A2.276,2.276,0,0,1,264.482,331.636Z" transform="translate(-152.644 -286.294)"/><path class="f" d="M269.6,321.676a2.276,2.276,0,1,1-2.276-2.276A2.276,2.276,0,0,1,269.6,321.676Z" transform="translate(-154.615 -282.461)"/><path class="g" d="M277.282,331.636a2.276,2.276,0,1,1-2.27-2.276,2.276,2.276,0,0,1,2.27,2.276Z" transform="translate(-157.571 -286.294)"/><path class="g" d="M259.072,323.95a2.276,2.276,0,1,1-2.27-2.27,2.276,2.276,0,0,1,2.27,2.27Z" transform="translate(-150.562 -283.339)"/><path class="f" d="M236.032,340.736a2.276,2.276,0,1,1-2.276-2.276,2.276,2.276,0,0,1,2.276,2.276Z" transform="translate(-141.695 -289.797)"/><path class="f" d="M241.152,330.776a2.276,2.276,0,1,1-2.276-2.276A2.276,2.276,0,0,1,241.152,330.776Z" transform="translate(-143.665 -285.963)"/><path class="g" d="M248.832,340.736a2.276,2.276,0,1,1-2.276-2.276,2.276,2.276,0,0,1,2.276,2.276Z" transform="translate(-146.621 -289.797)"/><path class="g" d="M230.622,333.056a2.276,2.276,0,1,1-2.276-2.276A2.276,2.276,0,0,1,230.622,333.056Z" transform="translate(-139.613 -286.841)"/><path class="f" d="M241.152,318.576a2.276,2.276,0,1,1-2.276-2.276A2.276,2.276,0,0,1,241.152,318.576Z" transform="translate(-143.665 -281.268)"/><path class="f" d="M246.272,308.576A2.276,2.276,0,1,1,244,306.3,2.276,2.276,0,0,1,246.272,308.576Z" transform="translate(-145.636 -277.419)"/><path class="g" d="M253.952,318.576a2.276,2.276,0,1,1-2.276-2.276A2.276,2.276,0,0,1,253.952,318.576Z" transform="translate(-148.592 -281.268)"/><path class="g" d="M235.742,310.866a2.276,2.276,0,1,1-2.276-2.276,2.276,2.276,0,0,1,2.276,2.276Z" transform="translate(-141.583 -278.301)"/><path class="f" d="M214.972,319.686a2.276,2.276,0,1,1-2.276-2.276A2.276,2.276,0,0,1,214.972,319.686Z" transform="translate(-133.59 -281.695)"/><path class="f" d="M220.092,309.726a2.276,2.276,0,1,1-2.27-2.276A2.276,2.276,0,0,1,220.092,309.726Z" transform="translate(-135.56 -277.862)"/><path class="g" d="M227.782,319.686a2.276,2.276,0,1,1-2.276-2.276A2.276,2.276,0,0,1,227.782,319.686Z" transform="translate(-138.52 -281.695)"/><path class="g" d="M209.572,312a2.276,2.276,0,1,1-2.276-2.27,2.276,2.276,0,0,1,2.276,2.27Z" transform="translate(-131.511 -278.74)"/><path class="f" d="M210.992,343.016a2.276,2.276,0,1,1-2.276-2.276A2.276,2.276,0,0,1,210.992,343.016Z" transform="translate(-132.058 -290.674)"/><path class="f" d="M216.152,333.056a2.276,2.276,0,1,1-2.276-2.276A2.276,2.276,0,0,1,216.152,333.056Z" transform="translate(-134.044 -286.841)"/><path class="g" d="M223.792,343.016a2.276,2.276,0,1,1-2.276-2.276A2.276,2.276,0,0,1,223.792,343.016Z" transform="translate(-136.984 -290.674)"/><path class="g" d="M205.582,335.336a2.27,2.27,0,1,1-.665-1.611,2.276,2.276,0,0,1,.665,1.611Z" transform="translate(-129.976 -287.718)"/><path class="f" d="M180.832,329.646a2.276,2.276,0,1,1-2.276-2.276,2.276,2.276,0,0,1,2.276,2.276Z" transform="translate(-120.45 -285.528)"/><path class="f" d="M185.952,319.686a2.276,2.276,0,1,1-2.276-2.276A2.276,2.276,0,0,1,185.952,319.686Z" transform="translate(-122.421 -281.695)"/><path class="g" d="M193.632,329.646a2.27,2.27,0,1,1-.665-1.611,2.276,2.276,0,0,1,.665,1.611Z" transform="translate(-125.377 -285.528)"/><path class="g" d="M175.422,321.956a2.27,2.27,0,1,1-.665-1.611,2.276,2.276,0,0,1,.665,1.611Z" transform="translate(-118.368 -282.569)"/><path class="f" d="M180.832,318.264A2.276,2.276,0,1,1,178.568,316,2.276,2.276,0,0,1,180.832,318.264Z" transform="translate(-120.45 -281.153)"/><path class="f" d="M185.952,308.306a2.27,2.27,0,1,1-.665-1.611A2.276,2.276,0,0,1,185.952,308.306Z" transform="translate(-122.421 -277.315)"/><path class="g" d="M193.632,318.26a2.27,2.27,0,1,1-.667-1.607A2.276,2.276,0,0,1,193.632,318.26Z" transform="translate(-125.377 -281.149)"/><path class="g" d="M175.422,310.576a2.276,2.276,0,1,1-2.276-2.276,2.276,2.276,0,0,1,2.276,2.276Z" transform="translate(-118.368 -278.189)"/><path class="f" d="M155.792,330.5a2.276,2.276,0,1,1-2.276-2.276A2.276,2.276,0,0,1,155.792,330.5Z" transform="translate(-110.813 -285.856)"/><path class="f" d="M160.912,320.576a2.276,2.276,0,1,1-2.276-2.276A2.276,2.276,0,0,1,160.912,320.576Z" transform="translate(-112.784 -282.038)"/><path class="g" d="M168.6,330.5a2.276,2.276,0,1,1-2.276-2.276A2.276,2.276,0,0,1,168.6,330.5Z" transform="translate(-115.743 -285.856)"/><path class="g" d="M150.392,322.816a2.276,2.276,0,1,1-2.276-2.276,2.276,2.276,0,0,1,2.276,2.276Z" transform="translate(-108.735 -282.9)"/><path class="f" d="M350.412,310.576a2.276,2.276,0,1,1-2.276-2.276A2.276,2.276,0,0,1,350.412,310.576Z" transform="translate(-185.716 -278.189)"/><path class="f" d="M355.532,300.576a2.276,2.276,0,1,1-2.276-2.276,2.276,2.276,0,0,1,2.276,2.276Z" transform="translate(-187.686 -274.341)"/><path class="g" d="M363.212,310.576a2.276,2.276,0,1,1-2.276-2.276A2.276,2.276,0,0,1,363.212,310.576Z" transform="translate(-190.642 -278.189)"/><path class="g" d="M345,302.9a2.276,2.276,0,1,1-2.276-2.276A2.276,2.276,0,0,1,345,302.9Z" transform="translate(-183.634 -275.233)"/><path class="f" d="M135.872,334.766a2.276,2.276,0,1,1-2.27-2.276,2.276,2.276,0,0,1,2.27,2.276Z" transform="translate(-103.147 -287.499)"/><path class="f" d="M141,324.806a2.276,2.276,0,1,1-2.276-2.276A2.276,2.276,0,0,1,141,324.806Z" transform="translate(-105.121 -283.666)"/><path class="g" d="M148.682,334.766a2.276,2.276,0,1,1-2.276-2.276,2.276,2.276,0,0,1,2.276,2.276Z" transform="translate(-108.077 -287.499)"/><path class="g" d="M130.472,327.08a2.276,2.276,0,1,1-2.276-2.27A2.276,2.276,0,0,1,130.472,327.08Z" transform="translate(-101.069 -284.543)"/><path class="f" d="M144.412,318.826a2.276,2.276,0,1,1-2.276-2.276A2.276,2.276,0,0,1,144.412,318.826Z" transform="translate(-106.434 -281.364)"/><path class="f" d="M149.532,308.87a2.27,2.27,0,1,1-.667-1.607A2.276,2.276,0,0,1,149.532,308.87Z" transform="translate(-108.404 -277.535)"/><path class="g" d="M157.212,318.826a2.27,2.27,0,1,1-.663-1.609A2.276,2.276,0,0,1,157.212,318.826Z" transform="translate(-111.36 -281.364)"/><path class="g" d="M139,311.146a2.276,2.276,0,1,1-2.27-2.276A2.276,2.276,0,0,1,139,311.146Z" transform="translate(-104.351 -278.409)"/><circle class="f" cx="2.276" cy="2.276" r="2.276" transform="translate(17.851 30.984)"/><path class="f" d="M124.212,302.046a2.276,2.276,0,1,1-2.276-2.276,2.276,2.276,0,0,1,2.276,2.276Z" transform="translate(-98.659 -274.906)"/><path class="g" d="M131.892,312a2.27,2.27,0,1,1-.667-1.607,2.276,2.276,0,0,1,.667,1.607Z" transform="translate(-101.615 -278.74)"/><path class="g" d="M113.682,304.316a2.276,2.276,0,1,1-2.276-2.276A2.276,2.276,0,0,1,113.682,304.316Z" transform="translate(-94.607 -275.78)"/><path class="f" d="M168.032,317.69a2.276,2.276,0,1,1-2.276-2.27,2.276,2.276,0,0,1,2.276,2.27Z" transform="translate(-115.524 -280.929)"/><path class="f" d="M173.152,307.736a2.276,2.276,0,1,1-2.276-2.276A2.276,2.276,0,0,1,173.152,307.736Z" transform="translate(-117.495 -277.096)"/><path class="g" d="M180.832,317.69a2.276,2.276,0,1,1-2.276-2.27,2.276,2.276,0,0,1,2.276,2.27Z" transform="translate(-120.45 -280.929)"/><path class="g" d="M162.622,310.006a2.276,2.276,0,1,1-2.276-2.276,2.276,2.276,0,0,1,2.276,2.276Z" transform="translate(-113.442 -277.97)"/><path class="f" d="M115.392,338.176a2.276,2.276,0,1,1-2.276-2.276A2.276,2.276,0,0,1,115.392,338.176Z" transform="translate(-95.265 -288.811)"/><path class="f" d="M120.512,328.216a2.276,2.276,0,1,1-2.276-2.276,2.276,2.276,0,0,1,2.276,2.276Z" transform="translate(-97.235 -284.978)"/><path class="g" d="M128.152,338.176a2.276,2.276,0,1,1-2.276-2.276A2.276,2.276,0,0,1,128.152,338.176Z" transform="translate(-100.176 -288.811)"/><path class="g" d="M109.982,330.5a2.276,2.276,0,1,1-2.276-2.276A2.276,2.276,0,0,1,109.982,330.5Z" transform="translate(-93.183 -285.856)"/><path class="f" d="M95.472,339.316A2.276,2.276,0,1,1,93.2,337.04,2.276,2.276,0,0,1,95.472,339.316Z" transform="translate(-87.598 -289.25)"/><path class="f" d="M100.592,329.356a2.276,2.276,0,1,1-2.276-2.276,2.276,2.276,0,0,1,2.276,2.276Z" transform="translate(-89.569 -285.417)"/><path class="g" d="M108.282,339.316a2.276,2.276,0,1,1-2.276-2.276,2.276,2.276,0,0,1,2.276,2.276Z" transform="translate(-92.528 -289.25)"/><path class="g" d="M90.072,331.636A2.276,2.276,0,1,1,87.8,329.36a2.276,2.276,0,0,1,2.276,2.276Z" transform="translate(-85.52 -286.294)"/><path class="f" d="M102.294,320.713a2.288,2.288,0,1,1-2.276-2.055,2.172,2.172,0,0,1,2.276,2.055Z" transform="translate(-90.219 -282.175)"/><path class="f" d="M107.414,311.777a2.288,2.288,0,1,1-2.276-2.048A2.171,2.171,0,0,1,107.414,311.777Z" transform="translate(-92.19 -278.738)"/><path class="g" d="M115.151,320.713a2.282,2.282,0,1,1-2.27-2.055A2.165,2.165,0,0,1,115.151,320.713Z" transform="translate(-95.172 -282.175)"/><path class="g" d="M96.884,313.827a2.288,2.288,0,1,1-2.27-2.048,2.171,2.171,0,0,1,2.27,2.048Z" transform="translate(-88.137 -279.527)"/><path class="f" d="M383.412,310.576a2.276,2.276,0,1,1-2.276-2.276A2.276,2.276,0,0,1,383.412,310.576Z" transform="translate(-198.416 -278.189)"/><path class="f" d="M388.532,300.576a2.27,2.27,0,1,1-.663-1.609A2.276,2.276,0,0,1,388.532,300.576Z" transform="translate(-200.387 -274.341)"/><path class="g" d="M396.222,310.576a2.276,2.276,0,1,1-2.276-2.276A2.276,2.276,0,0,1,396.222,310.576Z" transform="translate(-203.346 -278.189)"/><path class="g" d="M378.012,302.9a2.276,2.276,0,1,1-2.276-2.276A2.276,2.276,0,0,1,378.012,302.9Z" transform="translate(-196.338 -275.233)"/><path class="f" d="M191.072,339.886a2.276,2.276,0,1,1-2.276-2.276A2.276,2.276,0,0,1,191.072,339.886Z" transform="translate(-124.391 -289.47)"/><path class="f" d="M196.152,329.926a2.276,2.276,0,1,1-2.27-2.276A2.276,2.276,0,0,1,196.152,329.926Z" transform="translate(-126.346 -285.636)"/><path class="g" d="M203.882,339.886a2.276,2.276,0,1,1-2.276-2.276A2.276,2.276,0,0,1,203.882,339.886Z" transform="translate(-129.322 -289.47)"/><path class="g" d="M185.672,332.206a2.276,2.276,0,1,1-2.276-2.276A2.276,2.276,0,0,1,185.672,332.206Z" transform="translate(-122.313 -286.514)"/><path class="f" d="M194.2,323.386a2.27,2.27,0,1,1-.665-1.611A2.276,2.276,0,0,1,194.2,323.386Z" transform="translate(-125.596 -283.119)"/><path class="f" d="M199.322,313.426a2.276,2.276,0,1,1-2.27-2.276A2.276,2.276,0,0,1,199.322,313.426Z" transform="translate(-127.566 -279.286)"/><path class="g" d="M207.012,323.386a2.276,2.276,0,1,1-2.276-2.276A2.276,2.276,0,0,1,207.012,323.386Z" transform="translate(-130.526 -283.119)"/><path class="g" d="M188.8,315.7a2.276,2.276,0,1,1-2.276-2.276A2.276,2.276,0,0,1,188.8,315.7Z" transform="translate(-123.518 -280.16)"/><path class="f" d="M374.022,288.366a2.27,2.27,0,1,1-.663-1.609A2.276,2.276,0,0,1,374.022,288.366Z" transform="translate(-194.802 -269.641)"/><path class="f" d="M379.152,278.41a2.276,2.276,0,1,1-2.276-2.27A2.276,2.276,0,0,1,379.152,278.41Z" transform="translate(-196.777 -265.812)"/><path class="g" d="M386.832,288.366a2.276,2.276,0,1,1-2.276-2.276,2.276,2.276,0,0,1,2.276,2.276Z" transform="translate(-199.732 -269.641)"/><path class="g" d="M368.622,280.686a2.276,2.276,0,1,1-2.276-2.276A2.276,2.276,0,0,1,368.622,280.686Z" transform="translate(-192.724 -266.686)"/><path class="f" d="M395.932,284.386a2.276,2.276,0,1,1-2.276-2.276A2.276,2.276,0,0,1,395.932,284.386Z" transform="translate(-203.235 -268.109)"/><path class="f" d="M401.052,274.426a2.276,2.276,0,1,1-2.27-2.276A2.276,2.276,0,0,1,401.052,274.426Z" transform="translate(-205.205 -264.276)"/><path class="g" d="M408.742,284.386a2.276,2.276,0,1,1-2.276-2.276A2.276,2.276,0,0,1,408.742,284.386Z" transform="translate(-208.165 -268.109)"/><path class="g" d="M390.532,276.706a2.276,2.276,0,1,1-2.276-2.276A2.276,2.276,0,0,1,390.532,276.706Z" transform="translate(-201.156 -265.154)"/><path class="f" d="M158.922,271.576a2.27,2.27,0,1,1-.665-1.611A2.276,2.276,0,0,1,158.922,271.576Z" transform="translate(-112.018 -263.179)"/><path class="f" d="M164.042,261.626a2.276,2.276,0,1,1-2.276-2.276A2.276,2.276,0,0,1,164.042,261.626Z" transform="translate(-113.988 -259.35)"/><path class="g" d="M171.722,271.576a2.27,2.27,0,1,1-.663-1.609A2.276,2.276,0,0,1,171.722,271.576Z" transform="translate(-116.944 -263.179)"/><path class="g" d="M153.522,263.9a2.276,2.276,0,1,1-2.276-2.276A2.276,2.276,0,0,1,153.522,263.9Z" transform="translate(-109.94 -260.224)"/><path class="f" d="M321.962,274.146a2.276,2.276,0,1,1-2.276-2.276,2.276,2.276,0,0,1,2.276,2.276Z" transform="translate(-174.766 -264.168)"/><path class="f" d="M327.082,264.186a2.276,2.276,0,1,1-2.276-2.276,2.276,2.276,0,0,1,2.276,2.276Z" transform="translate(-176.737 -260.335)"/><path class="g" d="M334.762,274.146a2.276,2.276,0,1,1-2.276-2.276,2.276,2.276,0,0,1,2.276,2.276Z" transform="translate(-179.693 -264.168)"/><path class="g" d="M316.552,266.46a2.276,2.276,0,1,1-2.276-2.27,2.276,2.276,0,0,1,2.276,2.27Z" transform="translate(-172.684 -261.213)"/><path class="f" d="M357.242,298.9a2.276,2.276,0,1,1-2.276-2.276,2.276,2.276,0,0,1,2.276,2.276Z" transform="translate(-188.344 -273.694)"/><path class="f" d="M362.362,288.936a2.276,2.276,0,1,1-2.276-2.276A2.276,2.276,0,0,1,362.362,288.936Z" transform="translate(-190.315 -269.861)"/><path class="g" d="M370.042,298.9a2.276,2.276,0,1,1-2.276-2.276,2.276,2.276,0,0,1,2.276,2.276Z" transform="translate(-193.271 -273.694)"/><path class="g" d="M351.832,291.216a2.276,2.276,0,1,1-2.276-2.276A2.276,2.276,0,0,1,351.832,291.216Z" transform="translate(-186.262 -270.738)"/><path class="f" d="M382.842,308.282a2.276,2.276,0,1,1-2.27-2.282,2.276,2.276,0,0,1,2.27,2.282Z" transform="translate(-198.197 -277.304)"/><path class="f" d="M387.972,298.326a2.276,2.276,0,1,1-2.276-2.276A2.276,2.276,0,0,1,387.972,298.326Z" transform="translate(-200.171 -273.475)"/><path class="g" d="M395.652,308.286a2.276,2.276,0,1,1-2.276-2.276A2.276,2.276,0,0,1,395.652,308.286Z" transform="translate(-203.127 -277.308)"/><path class="g" d="M377.442,300.576a2.276,2.276,0,1,1-2.276-2.276,2.276,2.276,0,0,1,2.276,2.276Z" transform="translate(-196.119 -274.341)"/><path class="f" d="M352.152,284.956a2.276,2.276,0,1,1-2.276-2.276A2.276,2.276,0,0,1,352.152,284.956Z" transform="translate(-186.385 -268.329)"/><path class="f" d="M357.242,275a2.276,2.276,0,1,1-2.276-2.276A2.276,2.276,0,0,1,357.242,275Z" transform="translate(-188.344 -264.496)"/><path class="g" d="M364.922,284.956a2.276,2.276,0,1,1-2.276-2.276,2.276,2.276,0,0,1,2.276,2.276Z" transform="translate(-191.3 -268.329)"/><path class="g" d="M346.712,277.276A2.276,2.276,0,1,1,344.436,275,2.276,2.276,0,0,1,346.712,277.276Z" transform="translate(-184.292 -265.373)"/><path class="f" d="M322.522,293.49a2.276,2.276,0,1,1-2.27-2.27A2.276,2.276,0,0,1,322.522,293.49Z" transform="translate(-174.982 -271.616)"/><path class="f" d="M327.652,283.576a2.276,2.276,0,1,1-2.276-2.276A2.276,2.276,0,0,1,327.652,283.576Z" transform="translate(-176.956 -267.798)"/><path class="g" d="M335.332,293.49a2.276,2.276,0,1,1-2.276-2.27A2.276,2.276,0,0,1,335.332,293.49Z" transform="translate(-179.912 -271.616)"/><path class="g" d="M317.152,285.806a2.276,2.276,0,1,1-2.276-2.276A2.276,2.276,0,0,1,317.152,285.806Z" transform="translate(-172.915 -268.656)"/><path class="f" d="M343.582,307.146a2.276,2.276,0,1,1-2.276-2.276,2.276,2.276,0,0,1,2.276,2.276Z" transform="translate(-183.087 -276.869)"/><path class="f" d="M348.7,297.186a2.27,2.27,0,1,1-.665-1.611A2.276,2.276,0,0,1,348.7,297.186Z" transform="translate(-185.058 -273.036)"/><path class="g" d="M356.382,307.146a2.276,2.276,0,1,1-2.276-2.276,2.276,2.276,0,0,1,2.276,2.276Z" transform="translate(-188.013 -276.869)"/><path class="g" d="M338.152,299.466a2.276,2.276,0,1,1-2.276-2.276A2.276,2.276,0,0,1,338.152,299.466Z" transform="translate(-180.997 -273.913)"/><path class="f" d="M339.032,284.956a2.276,2.276,0,1,1-2.276-2.276A2.276,2.276,0,0,1,339.032,284.956Z" transform="translate(-181.336 -268.329)"/><path class="f" d="M344.152,275a2.276,2.276,0,1,1-2.276-2.276A2.276,2.276,0,0,1,344.152,275Z" transform="translate(-183.306 -264.496)"/><path class="g" d="M351.832,284.956a2.276,2.276,0,1,1-2.276-2.276A2.276,2.276,0,0,1,351.832,284.956Z" transform="translate(-186.262 -268.329)"/><path class="g" d="M333.622,277.276A2.276,2.276,0,1,1,331.346,275,2.276,2.276,0,0,1,333.622,277.276Z" transform="translate(-179.254 -265.373)"/><path class="f" d="M369.762,280.976a2.276,2.276,0,1,1-2.276-2.276A2.276,2.276,0,0,1,369.762,280.976Z" transform="translate(-193.163 -266.797)"/><path class="f" d="M374.882,271.016a2.276,2.276,0,1,1-2.276-2.276A2.276,2.276,0,0,1,374.882,271.016Z" transform="translate(-195.133 -262.964)"/><path class="g" d="M382.562,280.976a2.276,2.276,0,1,1-2.276-2.276A2.276,2.276,0,0,1,382.562,280.976Z" transform="translate(-198.089 -266.797)"/><path class="g" d="M364.352,273.286a2.276,2.276,0,1,1-2.276-2.276A2.276,2.276,0,0,1,364.352,273.286Z" transform="translate(-191.081 -263.837)"/><path class="f" d="M310.012,278.7a2.276,2.276,0,1,1-2.276-2.276A2.276,2.276,0,0,1,310.012,278.7Z" transform="translate(-170.167 -265.92)"/><path class="f" d="M315.152,268.736a2.276,2.276,0,1,1-2.276-2.276A2.276,2.276,0,0,1,315.152,268.736Z" transform="translate(-172.145 -262.086)"/><path class="g" d="M322.812,278.7a2.276,2.276,0,1,1-2.276-2.276A2.276,2.276,0,0,1,322.812,278.7Z" transform="translate(-175.093 -265.92)"/><path class="g" d="M304.6,271.016a2.276,2.276,0,1,1-2.276-2.276,2.276,2.276,0,0,1,2.276,2.276Z" transform="translate(-168.085 -262.964)"/><path class="f" d="M294.642,294.056a2.276,2.276,0,1,1-2.276-2.276A2.276,2.276,0,0,1,294.642,294.056Z" transform="translate(-164.252 -271.831)"/><path class="f" d="M299.762,284.106a2.27,2.27,0,1,1-.665-1.611,2.276,2.276,0,0,1,.665,1.611Z" transform="translate(-166.222 -268.002)"/><path class="g" d="M307.442,294.056a2.27,2.27,0,1,1-.663-1.609A2.276,2.276,0,0,1,307.442,294.056Z" transform="translate(-169.178 -271.831)"/><path class="g" d="M289.232,286.376a2.276,2.276,0,1,1-2.27-2.276,2.276,2.276,0,0,1,2.27,2.276Z" transform="translate(-162.17 -268.875)"/><path class="f" d="M316.262,304.306a2.276,2.276,0,1,1-2.27-2.276A2.276,2.276,0,0,1,316.262,304.306Z" transform="translate(-172.573 -275.776)"/><path class="f" d="M321.392,294.346a2.276,2.276,0,1,1-2.276-2.276,2.276,2.276,0,0,1,2.276,2.276Z" transform="translate(-174.547 -271.943)"/><path class="g" d="M329.072,304.306a2.276,2.276,0,1,1-2.276-2.276A2.276,2.276,0,0,1,329.072,304.306Z" transform="translate(-177.503 -275.776)"/><path class="g" d="M310.862,296.58a2.276,2.276,0,1,1-2.276-2.27,2.276,2.276,0,0,1,2.276,2.27Z" transform="translate(-170.494 -272.805)"/><path class="f" d="M272.452,304.016a2.276,2.276,0,1,1-2.276-2.276A2.276,2.276,0,0,1,272.452,304.016Z" transform="translate(-155.712 -275.664)"/><path class="f" d="M277.572,294.056a2.276,2.276,0,1,1-2.276-2.276A2.276,2.276,0,0,1,277.572,294.056Z" transform="translate(-157.682 -271.831)"/><path class="g" d="M285.252,304.016a2.276,2.276,0,1,1-2.276-2.276A2.276,2.276,0,0,1,285.252,304.016Z" transform="translate(-160.638 -275.664)"/><path class="g" d="M267.042,296.336a2.276,2.276,0,1,1-2.276-2.276,2.276,2.276,0,0,1,2.276,2.276Z" transform="translate(-153.63 -272.709)"/><path class="f" d="M280.412,283.576a2.27,2.27,0,1,1-.663-1.609A2.276,2.276,0,0,1,280.412,283.576Z" transform="translate(-158.775 -267.798)"/><path class="f" d="M285.542,273.576a2.276,2.276,0,1,1-2.276-2.276A2.276,2.276,0,0,1,285.542,273.576Z" transform="translate(-160.75 -263.949)"/><path class="g" d="M293.222,283.576a2.276,2.276,0,1,1-2.276-2.276A2.276,2.276,0,0,1,293.222,283.576Z" transform="translate(-163.705 -267.798)"/><path class="g" d="M275.012,275.846a2.276,2.276,0,1,1-2.276-2.276,2.276,2.276,0,0,1,2.276,2.276Z" transform="translate(-156.697 -264.823)"/><path class="f" d="M295.212,273.286a2.276,2.276,0,1,1-2.276-2.276A2.276,2.276,0,0,1,295.212,273.286Z" transform="translate(-164.471 -263.837)"/><path class="f" d="M300.332,263.33a2.27,2.27,0,1,1-.667-1.607A2.276,2.276,0,0,1,300.332,263.33Z" transform="translate(-166.442 -260.008)"/><path class="g" d="M308.012,273.286a2.27,2.27,0,1,1-.665-1.611,2.276,2.276,0,0,1,.665,1.611Z" transform="translate(-169.397 -263.837)"/><path class="g" d="M289.8,265.576a2.276,2.276,0,1,1-2.276-2.276A2.276,2.276,0,0,1,289.8,265.576Z" transform="translate(-162.389 -260.87)"/><path class="f" d="M255.952,274.426a2.276,2.276,0,1,1-2.276-2.276A2.276,2.276,0,0,1,255.952,274.426Z" transform="translate(-149.361 -264.276)"/><path class="f" d="M261.072,264.466a2.276,2.276,0,1,1-2.276-2.276A2.276,2.276,0,0,1,261.072,264.466Z" transform="translate(-151.332 -260.443)"/><path class="g" d="M268.752,274.426a2.276,2.276,0,1,1-2.276-2.276A2.276,2.276,0,0,1,268.752,274.426Z" transform="translate(-154.288 -264.276)"/><path class="g" d="M250.542,266.746a2.276,2.276,0,1,1-2.276-2.276A2.276,2.276,0,0,1,250.542,266.746Z" transform="translate(-147.279 -261.32)"/><path class="f" d="M246.842,292.066a2.276,2.276,0,1,1-2.276-2.276,2.276,2.276,0,0,1,2.276,2.276Z" transform="translate(-145.855 -271.065)"/><path class="f" d="M251.962,282.106a2.27,2.27,0,1,1-.665-1.611,2.276,2.276,0,0,1,.665,1.611Z" transform="translate(-147.826 -267.232)"/><path class="g" d="M259.642,292.066a2.276,2.276,0,1,1-2.27-2.276A2.276,2.276,0,0,1,259.642,292.066Z" transform="translate(-150.782 -271.065)"/><path class="g" d="M241.432,284.386a2.276,2.276,0,1,1-2.27-2.276A2.276,2.276,0,0,1,241.432,284.386Z" transform="translate(-143.773 -268.11)"/><path class="f" d="M264.482,292.636a2.276,2.276,0,1,1-2.276-2.276A2.276,2.276,0,0,1,264.482,292.636Z" transform="translate(-152.644 -271.285)"/><path class="f" d="M269.6,282.676a2.27,2.27,0,1,1-.665-1.611,2.276,2.276,0,0,1,.665,1.611Z" transform="translate(-154.615 -267.451)"/><path class="g" d="M277.282,292.636a2.276,2.276,0,1,1-2.27-2.276,2.276,2.276,0,0,1,2.27,2.276Z" transform="translate(-157.571 -271.285)"/><path class="g" d="M259.072,284.956a2.276,2.276,0,1,1-2.27-2.276,2.276,2.276,0,0,1,2.27,2.276Z" transform="translate(-150.562 -268.329)"/><path class="f" d="M236.032,301.746a2.276,2.276,0,1,1-2.276-2.276,2.276,2.276,0,0,1,2.276,2.276Z" transform="translate(-141.695 -274.791)"/><path class="f" d="M241.152,291.786a2.276,2.276,0,1,1-2.276-2.276A2.276,2.276,0,0,1,241.152,291.786Z" transform="translate(-143.665 -270.958)"/><path class="g" d="M248.832,301.746a2.27,2.27,0,1,1-.665-1.611A2.276,2.276,0,0,1,248.832,301.746Z" transform="translate(-146.621 -274.791)"/><path class="g" d="M230.622,294.056a2.27,2.27,0,1,1-.665-1.611A2.276,2.276,0,0,1,230.622,294.056Z" transform="translate(-139.613 -271.831)"/><path class="f" d="M241.152,279.576a2.276,2.276,0,1,1-2.276-2.276A2.276,2.276,0,0,1,241.152,279.576Z" transform="translate(-143.665 -266.258)"/><path class="f" d="M246.272,269.58a2.27,2.27,0,1,1-.667-1.607A2.276,2.276,0,0,1,246.272,269.58Z" transform="translate(-145.636 -262.414)"/><path class="g" d="M253.952,279.576a2.27,2.27,0,1,1-.665-1.611A2.276,2.276,0,0,1,253.952,279.576Z" transform="translate(-148.592 -266.258)"/><path class="g" d="M235.742,271.866a2.276,2.276,0,1,1-2.276-2.276,2.276,2.276,0,0,1,2.276,2.276Z" transform="translate(-141.583 -263.291)"/><path class="f" d="M214.972,280.686a2.276,2.276,0,1,1-2.276-2.276A2.276,2.276,0,0,1,214.972,280.686Z" transform="translate(-133.59 -266.686)"/><path class="f" d="M220.092,270.726a2.27,2.27,0,1,1-.663-1.609A2.276,2.276,0,0,1,220.092,270.726Z" transform="translate(-135.56 -262.852)"/><path class="g" d="M227.782,280.686a2.276,2.276,0,1,1-2.276-2.276A2.276,2.276,0,0,1,227.782,280.686Z" transform="translate(-138.52 -266.686)"/><path class="g" d="M209.572,273.006a2.276,2.276,0,1,1-2.276-2.276A2.276,2.276,0,0,1,209.572,273.006Z" transform="translate(-131.511 -263.73)"/><path class="f" d="M210.992,304.016a2.276,2.276,0,1,1-2.276-2.276A2.276,2.276,0,0,1,210.992,304.016Z" transform="translate(-132.058 -275.664)"/><path class="f" d="M216.152,294.056a2.27,2.27,0,1,1-.665-1.611A2.276,2.276,0,0,1,216.152,294.056Z" transform="translate(-134.044 -271.831)"/><path class="g" d="M223.792,304.016a2.276,2.276,0,1,1-2.276-2.276A2.276,2.276,0,0,1,223.792,304.016Z" transform="translate(-136.984 -275.664)"/><path class="g" d="M205.582,296.336a2.276,2.276,0,1,1-2.276-2.276,2.276,2.276,0,0,1,2.276,2.276Z" transform="translate(-129.976 -272.709)"/><path class="f" d="M180.832,290.646a2.276,2.276,0,1,1-2.276-2.276,2.276,2.276,0,0,1,2.276,2.276Z" transform="translate(-120.45 -270.519)"/><path class="f" d="M185.952,280.686a2.276,2.276,0,1,1-2.276-2.276A2.276,2.276,0,0,1,185.952,280.686Z" transform="translate(-122.421 -266.686)"/><path class="g" d="M193.632,290.646a2.276,2.276,0,1,1-2.276-2.276A2.276,2.276,0,0,1,193.632,290.646Z" transform="translate(-125.377 -270.519)"/><path class="g" d="M175.422,282.966a2.276,2.276,0,1,1-2.276-2.276,2.276,2.276,0,0,1,2.276,2.276Z" transform="translate(-118.368 -267.563)"/><path class="f" d="M180.832,279.27a2.276,2.276,0,1,1-2.264-2.27,2.276,2.276,0,0,1,2.264,2.27Z" transform="translate(-120.45 -266.143)"/><path class="f" d="M185.952,269.306a2.276,2.276,0,1,1-2.276-2.276A2.276,2.276,0,0,1,185.952,269.306Z" transform="translate(-122.421 -262.306)"/><path class="g" d="M193.632,279.266a2.276,2.276,0,1,1-2.276-2.276A2.276,2.276,0,0,1,193.632,279.266Z" transform="translate(-125.377 -266.139)"/><path class="g" d="M175.422,271.576a2.27,2.27,0,1,1-.665-1.611,2.276,2.276,0,0,1,.665,1.611Z" transform="translate(-118.368 -263.179)"/><path class="f" d="M155.792,291.5a2.27,2.27,0,1,1-.665-1.611A2.276,2.276,0,0,1,155.792,291.5Z" transform="translate(-110.813 -270.846)"/><path class="f" d="M160.912,281.58a2.27,2.27,0,1,1-.667-1.607A2.276,2.276,0,0,1,160.912,281.58Z" transform="translate(-112.784 -267.032)"/><path class="g" d="M168.6,291.5a2.276,2.276,0,1,1-2.276-2.276A2.276,2.276,0,0,1,168.6,291.5Z" transform="translate(-115.743 -270.846)"/><path class="g" d="M150.392,283.816a2.276,2.276,0,1,1-2.276-2.276,2.276,2.276,0,0,1,2.276,2.276Z" transform="translate(-108.735 -267.89)"/><path class="f" d="M350.412,271.576a2.276,2.276,0,1,1-2.276-2.276A2.276,2.276,0,0,1,350.412,271.576Z" transform="translate(-185.716 -263.179)"/><path class="f" d="M355.532,261.626a2.276,2.276,0,1,1-2.276-2.276,2.276,2.276,0,0,1,2.276,2.276Z" transform="translate(-187.686 -259.35)"/><path class="g" d="M363.212,271.576a2.27,2.27,0,1,1-.665-1.611A2.276,2.276,0,0,1,363.212,271.576Z" transform="translate(-190.642 -263.179)"/><path class="g" d="M345,263.9a2.27,2.27,0,1,1-.665-1.611A2.276,2.276,0,0,1,345,263.9Z" transform="translate(-183.634 -260.224)"/><path class="f" d="M135.872,295.766a2.276,2.276,0,1,1-2.27-2.276,2.276,2.276,0,0,1,2.27,2.276Z" transform="translate(-103.147 -272.489)"/><path class="f" d="M141,285.806a2.276,2.276,0,1,1-2.276-2.276A2.276,2.276,0,0,1,141,285.806Z" transform="translate(-105.121 -268.656)"/><path class="g" d="M148.682,295.766a2.276,2.276,0,1,1-2.276-2.276,2.276,2.276,0,0,1,2.276,2.276Z" transform="translate(-108.077 -272.489)"/><path class="g" d="M130.472,288.086a2.276,2.276,0,1,1-2.276-2.276,2.276,2.276,0,0,1,2.276,2.276Z" transform="translate(-101.069 -269.534)"/><path class="f" d="M144.412,279.836a2.276,2.276,0,1,1-2.276-2.276A2.276,2.276,0,0,1,144.412,279.836Z" transform="translate(-106.434 -266.358)"/><path class="f" d="M149.532,269.876a2.276,2.276,0,1,1-2.276-2.276A2.276,2.276,0,0,1,149.532,269.876Z" transform="translate(-108.404 -262.525)"/><path class="g" d="M157.212,279.836a2.276,2.276,0,1,1-2.27-2.276,2.276,2.276,0,0,1,2.27,2.276Z" transform="translate(-111.36 -266.358)"/><path class="g" d="M139,272.15a2.276,2.276,0,1,1-2.27-2.27A2.276,2.276,0,0,1,139,272.15Z" transform="translate(-104.351 -263.403)"/><path class="f" d="M119.092,273.006a2.276,2.276,0,1,1-2.276-2.276A2.276,2.276,0,0,1,119.092,273.006Z" transform="translate(-96.689 -263.73)"/><path class="f" d="M124.212,263.046a2.276,2.276,0,1,1-2.276-2.276,2.276,2.276,0,0,1,2.276,2.276Z" transform="translate(-98.659 -259.897)"/><path class="g" d="M131.892,273.006a2.276,2.276,0,1,1-2.276-2.276A2.276,2.276,0,0,1,131.892,273.006Z" transform="translate(-101.615 -263.73)"/><path class="g" d="M113.682,265.326a2.276,2.276,0,1,1-2.276-2.276A2.276,2.276,0,0,1,113.682,265.326Z" transform="translate(-94.607 -260.774)"/><path class="f" d="M168.032,278.7a2.276,2.276,0,1,1-2.276-2.276A2.276,2.276,0,0,1,168.032,278.7Z" transform="translate(-115.524 -265.92)"/><path class="f" d="M173.152,268.736a2.276,2.276,0,1,1-2.276-2.276A2.276,2.276,0,0,1,173.152,268.736Z" transform="translate(-117.495 -262.086)"/><path class="g" d="M180.832,278.7a2.276,2.276,0,1,1-2.276-2.276,2.276,2.276,0,0,1,2.276,2.276Z" transform="translate(-120.45 -265.92)"/><path class="g" d="M162.622,271.016a2.276,2.276,0,1,1-2.276-2.276,2.276,2.276,0,0,1,2.276,2.276Z" transform="translate(-113.442 -262.964)"/><path class="f" d="M115.392,299.18a2.276,2.276,0,1,1-2.276-2.27,2.276,2.276,0,0,1,2.276,2.27Z" transform="translate(-95.265 -273.806)"/><path class="f" d="M120.512,289.226a2.276,2.276,0,1,1-2.276-2.276,2.276,2.276,0,0,1,2.276,2.276Z" transform="translate(-97.235 -269.972)"/><path class="g" d="M128.152,299.18a2.27,2.27,0,1,1-.667-1.607A2.276,2.276,0,0,1,128.152,299.18Z" transform="translate(-100.176 -273.806)"/><path class="g" d="M109.982,291.5a2.27,2.27,0,1,1-.665-1.611A2.276,2.276,0,0,1,109.982,291.5Z" transform="translate(-93.183 -270.846)"/><path class="f" d="M95.472,300.316a2.27,2.27,0,1,1-.665-1.611A2.276,2.276,0,0,1,95.472,300.316Z" transform="translate(-87.598 -274.24)"/><path class="f" d="M100.592,290.36a2.27,2.27,0,1,1-.667-1.607A2.276,2.276,0,0,1,100.592,290.36Z" transform="translate(-89.569 -270.411)"/><path class="g" d="M108.282,300.316a2.276,2.276,0,1,1-2.276-2.276,2.276,2.276,0,0,1,2.276,2.276Z" transform="translate(-92.528 -274.24)"/><path class="g" d="M90.072,292.636A2.276,2.276,0,1,1,87.8,290.36a2.276,2.276,0,0,1,2.276,2.276Z" transform="translate(-85.52 -271.285)"/><path class="f" d="M102.294,281.717a2.288,2.288,0,1,1-2.276-2.048A2.171,2.171,0,0,1,102.294,281.717Z" transform="translate(-90.219 -267.169)"/><path class="f" d="M107.414,272.777a2.288,2.288,0,1,1-2.276-2.048,2.171,2.171,0,0,1,2.276,2.048Z" transform="translate(-92.19 -263.728)"/><path class="g" d="M115.144,281.717a2.288,2.288,0,1,1-2.27-2.048A2.165,2.165,0,0,1,115.144,281.717Z" transform="translate(-95.165 -267.169)"/><path class="g" d="M96.891,274.833a2.282,2.282,0,1,1-2.27-2.054A2.165,2.165,0,0,1,96.891,274.833Z" transform="translate(-88.144 -264.517)"/><path class="f" d="M383.412,271.576a2.27,2.27,0,1,1-.665-1.611A2.276,2.276,0,0,1,383.412,271.576Z" transform="translate(-198.416 -263.179)"/><path class="f" d="M388.532,261.626a2.276,2.276,0,1,1-2.27-2.276A2.276,2.276,0,0,1,388.532,261.626Z" transform="translate(-200.387 -259.35)"/><path class="g" d="M396.222,271.576a2.276,2.276,0,1,1-2.276-2.276A2.276,2.276,0,0,1,396.222,271.576Z" transform="translate(-203.346 -263.179)"/><path class="g" d="M378.012,263.9a2.276,2.276,0,1,1-2.276-2.276,2.276,2.276,0,0,1,2.276,2.276Z" transform="translate(-196.338 -260.224)"/><path class="f" d="M191.072,300.886a2.276,2.276,0,1,1-2.276-2.276A2.276,2.276,0,0,1,191.072,300.886Z" transform="translate(-124.391 -274.46)"/><path class="f" d="M196.152,290.926a2.27,2.27,0,1,1-.663-1.609A2.276,2.276,0,0,1,196.152,290.926Z" transform="translate(-126.346 -270.626)"/><path class="g" d="M203.882,300.886a2.276,2.276,0,1,1-2.276-2.276A2.276,2.276,0,0,1,203.882,300.886Z" transform="translate(-129.322 -274.46)"/><path class="g" d="M185.672,293.206a2.276,2.276,0,1,1-2.276-2.276A2.276,2.276,0,0,1,185.672,293.206Z" transform="translate(-122.313 -271.504)"/><path class="f" d="M194.2,284.386a2.276,2.276,0,1,1-2.276-2.276A2.276,2.276,0,0,1,194.2,284.386Z" transform="translate(-125.596 -268.109)"/><path class="f" d="M199.322,274.426a2.276,2.276,0,1,1-2.27-2.276A2.276,2.276,0,0,1,199.322,274.426Z" transform="translate(-127.566 -264.276)"/><path class="g" d="M207.012,284.386a2.276,2.276,0,1,1-2.276-2.276A2.276,2.276,0,0,1,207.012,284.386Z" transform="translate(-130.526 -268.109)"/><path class="g" d="M188.8,276.706a2.276,2.276,0,1,1-2.276-2.276A2.276,2.276,0,0,1,188.8,276.706Z" transform="translate(-123.518 -265.154)"/></g><g transform="translate(4.84 156.163)"><rect class="d" width="199.052" height="25.202" transform="translate(2.559)"/><line class="h" x2="204.17" transform="translate(0 25.104)"/></g><g transform="translate(44.504 127.147)"><path class="i" d="M143.61,348.107c-.32-16.522-.32-33.217,0-49.777" transform="translate(-138.627 -297.327)"/><path class="i" d="M150.832,348.107c-.166-16.522-.166-33.217,0-49.777" transform="translate(-141.451 -297.327)"/><path class="i" d="M158.06,348.107V298.33" transform="translate(-144.281 -297.327)"/><path class="i" d="M165.22,348.107c.129-16.522.129-33.217,0-49.777" transform="translate(-147.037 -297.327)"/><path class="i" d="M172.37,348.107c.283-16.522.283-33.217,0-49.777" transform="translate(-149.788 -297.327)"/><path class="i" d="M179.367,348.107c-.326-16.522-.326-33.217,0-49.777" transform="translate(-152.387 -297.327)"/><path class="i" d="M186.6,348.107c-.178-16.522-.178-33.217,0-49.777" transform="translate(-155.212 -297.327)"/><path class="i" d="M193.816,348.107c-.031-16.522-.031-33.217,0-49.777" transform="translate(-158.033 -297.327)"/><path class="i" d="M201,348.107c.117-16.522.117-33.217,0-49.777" transform="translate(-160.807 -297.327)"/><path class="i" d="M208.14,348.107c.265-16.522.265-33.217,0-49.777" transform="translate(-163.555 -297.327)"/><path class="i" d="M215.131,348.107c-.338-16.522-.338-33.217,0-49.777" transform="translate(-166.148 -297.327)"/><path class="i" d="M222.358,348.107c-.2-16.522-.2-33.217,0-49.777" transform="translate(-168.97 -297.327)"/><path class="i" d="M229.58,348.107c-.043-16.522-.043-33.217,0-49.777" transform="translate(-171.794 -297.327)"/><path class="i" d="M236.75,348.107c.111-16.522.111-33.217,0-49.777" transform="translate(-174.566 -297.327)"/><path class="i" d="M243.91,348.107c.252-16.522.252-33.217,0-49.777" transform="translate(-177.322 -297.327)"/><path class="i" d="M250.9,348.107c-.351-16.522-.351-33.217,0-49.777" transform="translate(-179.909 -297.327)"/><path class="i" d="M258.122,348.107c-.209-16.522-.209-33.217,0-49.777" transform="translate(-182.731 -297.327)"/><path class="i" d="M265.344,348.107c-.055-16.522-.055-33.217,0-49.777" transform="translate(-185.555 -297.327)"/><path class="i" d="M272.52,348.107c.092-16.522.092-33.217,0-49.777" transform="translate(-188.333 -297.327)"/><path class="i" d="M279.68,348.107c.24-16.522.24-33.217,0-49.777" transform="translate(-191.088 -297.327)"/><path class="i" d="M286.657,348.107c-.369-16.522-.369-33.217,0-49.777" transform="translate(-193.667 -297.327)"/><path class="i" d="M293.9,348.107c-.215-16.522-.215-33.217,0-49.777" transform="translate(-196.498 -297.327)"/><path class="i" d="M301.108,348.107c-.068-16.522-.068-33.217,0-49.777" transform="translate(-199.316 -297.327)"/><path class="i" d="M308.29,348.107c.08-16.522.08-33.217,0-49.777" transform="translate(-202.099 -297.327)"/><path class="i" d="M315.44,348.107c.234-16.522.234-33.217,0-49.777" transform="translate(-204.851 -297.327)"/><path class="i" d="M322.421,348.107c-.381-16.522-.381-33.217,0-49.777" transform="translate(-207.428 -297.327)"/><path class="i" d="M329.643,348.107c-.228-16.522-.228-33.217,0-49.777" transform="translate(-210.252 -297.327)"/><path class="i" d="M143.61,350.586c-.32-16.523-.32-37.314,0-53.886" transform="translate(-138.627 -296.7)"/><path class="i" d="M150.832,350.586c-.166-16.523-.166-37.314,0-53.886" transform="translate(-141.451 -296.7)"/><path class="i" d="M158.06,350.586V296.7" transform="translate(-144.281 -296.7)"/><path class="i" d="M165.22,350.586c.129-16.523.129-37.314,0-53.886" transform="translate(-147.037 -296.7)"/><path class="i" d="M172.37,350.586c.283-16.523.283-37.314,0-53.886" transform="translate(-149.788 -296.7)"/><path class="i" d="M179.367,350.586c-.326-16.523-.326-37.314,0-53.886" transform="translate(-152.387 -296.7)"/><path class="i" d="M186.6,350.586c-.178-16.523-.178-37.314,0-53.886" transform="translate(-155.212 -296.7)"/><path class="i" d="M193.816,350.586c-.031-16.523-.031-37.314,0-53.886" transform="translate(-158.033 -296.7)"/><path class="i" d="M201,350.586c.117-16.523.117-37.314,0-53.886" transform="translate(-160.807 -296.7)"/><path class="i" d="M208.14,350.586c.265-16.523.265-37.314,0-53.886" transform="translate(-163.555 -296.7)"/><path class="i" d="M215.131,350.586c-.338-16.523-.338-37.314,0-53.886" transform="translate(-166.148 -296.7)"/><path class="i" d="M222.358,350.586c-.2-16.523-.2-37.314,0-53.886" transform="translate(-168.97 -296.7)"/><path class="i" d="M229.58,350.586c-.043-16.523-.043-37.314,0-53.886" transform="translate(-171.794 -296.7)"/><path class="i" d="M236.75,350.586c.111-16.523.111-37.314,0-53.886" transform="translate(-174.566 -296.7)"/><path class="i" d="M243.91,350.586c.252-16.523.252-37.314,0-53.886" transform="translate(-177.322 -296.7)"/><path class="i" d="M250.9,350.586c-.351-16.523-.351-37.314,0-53.886" transform="translate(-179.909 -296.7)"/><path class="i" d="M258.122,350.586c-.209-16.523-.209-37.314,0-53.886" transform="translate(-182.731 -296.7)"/><path class="i" d="M265.344,350.586c-.055-16.523-.055-37.314,0-53.886" transform="translate(-185.555 -296.7)"/><path class="i" d="M272.52,350.586c.092-16.523.092-37.314,0-53.886" transform="translate(-188.333 -296.7)"/><path class="i" d="M279.68,350.586c.24-16.523.24-37.314,0-53.886" transform="translate(-191.088 -296.7)"/><path class="i" d="M286.657,350.586c-.369-16.523-.369-37.314,0-53.886" transform="translate(-193.667 -296.7)"/><path class="i" d="M293.9,350.586c-.215-16.523-.215-37.314,0-53.886" transform="translate(-196.498 -296.7)"/><path class="i" d="M301.108,350.586c-.068-16.523-.068-37.314,0-53.886" transform="translate(-199.316 -296.7)"/><path class="i" d="M308.29,350.586c.08-16.523.08-37.314,0-53.886" transform="translate(-202.099 -296.7)"/><path class="i" d="M315.44,350.586c.234-16.523.234-37.314,0-53.886" transform="translate(-204.851 -296.7)"/><path class="i" d="M322.421,350.586c-.381-16.523-.381-37.314,0-53.886" transform="translate(-207.428 -296.7)"/><path class="i" d="M329.643,350.586c-.228-16.523-.228-37.314,0-53.886" transform="translate(-210.252 -296.7)"/><line class="i" x2="122.879" transform="translate(1.353 4.675)"/><line class="i" x2="122.879" transform="translate(1.353 8.593)"/><line class="i" x2="122.879" transform="translate(1.353 12.506)"/><line class="i" x2="122.879" transform="translate(1.353 16.424)"/><line class="i" x2="122.879" transform="translate(1.353 20.343)"/><line class="i" x2="122.879" transform="translate(1.353 24.255)"/><line class="i" x2="122.879" transform="translate(1.353 28.173)"/><line class="i" x2="122.879" transform="translate(1.353 32.092)"/><line class="i" x2="122.879" transform="translate(1.353 36.004)"/><line class="i" x2="122.879" transform="translate(1.353 39.922)"/><line class="i" x2="122.879" transform="translate(1.353 43.841)"/><line class="i" x2="122.879" transform="translate(1.353 47.753)"/><line class="i" x2="122.879" transform="translate(1.353 51.868)"/><path class="a" d="M259.155,296.93H138.237a2.584,2.584,0,0,0-2.577,2.577v51.4h1.23V300.793l5.425,3.592a3.285,3.285,0,0,1,1.464,2.737V350.57h1.23V307.123a4.5,4.5,0,0,0-2.018-3.765l-6.084-4.029a1.347,1.347,0,0,1,1.329-1.169H259.155a1.341,1.341,0,0,1,1.3,1.04l-6.274,4.158a4.5,4.5,0,0,0-2.018,3.765V350.57h1.23V307.123a3.273,3.273,0,0,1,1.47-2.737l5.635-3.734v50.257h1.23v-51.4A2.584,2.584,0,0,0,259.155,296.93Z" transform="translate(-135.66 -296.789)"/></g><g transform="translate(47.877 152.813)"><path class="a" d="M195.88,361.306a15.367,15.367,0,0,1,3.439-.535,10.462,10.462,0,0,0,3.2-.234,5.622,5.622,0,0,1,2.83-.837c1.446,0,8.7,1.23,8.7,1.23a21.752,21.752,0,0,0,2.6-.381,3.3,3.3,0,0,1,2.522.916c.381.381.615.917-.763,1A18.148,18.148,0,0,1,214.9,362c-.3,0-6.643.83-9.1,1.138a48.227,48.227,0,0,0-7.259,1.845,10.117,10.117,0,0,0-1.23.455Z" transform="translate(-162.209 -346.612)"/><path class="a" d="M196.6,372.687s.308-1.753.769-1.845.99.308,1.6.308,1.378-.308,1.987.154.843.837.843,1.07-3.285.455-3.746.455S196.375,372.921,196.6,372.687Z" transform="translate(-162.477 -350.895)"/><path class="a" d="M191.78,379.97s3.131,1.144,3.746.535.228-2.061.228-2.294.689-4.884.455-5.192-.917-.455-.99-.228-1.526,3.076-1.526,3.076l-.917-.234Z" transform="translate(-160.632 -351.608)"/><path class="a" d="M194.89,377.83a12.974,12.974,0,0,1,1.845,1.372" transform="translate(-161.828 -353.59)"/><path class="j" d="M157.486,348.468a32.1,32.1,0,0,0-3.746,4.078,11.473,11.473,0,0,0-1.845,4.89,34.681,34.681,0,0,0-2.977,3.691c-.3.714-1.987,5.653-1.987,5.653l1.907.455s3.211-6.035,4.306-7.382,3.814-4.355,3.814-4.355,4.128,3.746,5.733,5.5,2.368,3.076,5.345,4.737a38.25,38.25,0,0,0,6.951,2.823,6.987,6.987,0,0,0,.683-2.288c.154-1.3.308-2.141.308-2.141l-1.753-2.67.148-.917,4.663-.615a5.056,5.056,0,0,0,.074-2.75,12.081,12.081,0,0,0-1.144-2.823s-4.509.689-5.727.837-2.6.388-2.6.388a11.6,11.6,0,0,1-1.378-.689,14.894,14.894,0,0,1-1.606-3.974c-.308-1.3-.615-2.461-.615-2.461s7.382-3.592,7.64-4.737-2.75-1.759-3.82-1.372-3.82,2.214-4.737,2.6a31.533,31.533,0,0,0-3.894,1.526C160.242,347.078,158.329,347.705,157.486,348.468Z" transform="translate(-143.37 -339.889)"/><path class="a" d="M162.588,341.048a3.039,3.039,0,0,0-2.67-2.6c-2.368-.234-3.974.99-3.9,3.2a4.872,4.872,0,0,0,1.605,3.439s-.455.381.228.763a2.35,2.35,0,0,0,1.452.228l1.452,1.987a2.783,2.783,0,0,0,2.522,1.526c1.679-.154,1.452-1.907,1.07-2.516a4.877,4.877,0,0,0-.615-.843,6.1,6.1,0,0,0,0-2.6A6.9,6.9,0,0,0,162.588,341.048Z" transform="translate(-146.867 -338.424)"/><path class="a" d="M166.078,350.988s-2.6,1.378-3.968-.228" transform="translate(-149.213 -343.172)"/><path class="j" d="M160.5,338.563a3.39,3.39,0,0,0-.584-.111c-2.368-.234-3.974.99-3.9,3.2a4.872,4.872,0,0,0,1.605,3.439s.843.615.917-.08-.763-.615-.763-1.372.99-1.606.381-1.907-1.3.074-.843-.843A3.622,3.622,0,0,1,160.5,338.563Z" transform="translate(-146.867 -338.424)"/><path class="a" d="M145.029,382.045s-2.214.837-2.75,1.144-1.378,1.759-1.07,1.845a5.3,5.3,0,0,0,1.907.074c.381-.148,1.532-.837,1.532-.837s-1,1.372,0,1.07,1.981-2.83,1.981-2.83S146.327,381.965,145.029,382.045Z" transform="translate(-141.143 -355.209)"/><path class="a" d="M180.23,341.835l.234,1.144a14.336,14.336,0,0,0,3.82.99c1.359,0,2.75-1.07,2.6-1.679s-.461-1.23-1.987-1.23A28.333,28.333,0,0,0,180.23,341.835Z" transform="translate(-156.186 -339.438)"/><path class="a" d="M176.677,341.889a19.768,19.768,0,0,0-3.512-.689,2.362,2.362,0,0,0-2.061,1.372c-.308.615.08.234.917.615a3.488,3.488,0,0,0,2.141-.08,5.34,5.34,0,0,0,2.75-.074Z" transform="translate(-152.634 -339.492)"/><path class="a" d="M225.578,362.56l.7-.074a18.669,18.669,0,0,0,3.512.461c1.378-.074,1.144-.615.763-1a3.3,3.3,0,0,0-2.522-.917,21.735,21.735,0,0,1-2.6.381S226.463,362.043,225.578,362.56Z" transform="translate(-173.582 -347.11)"/><path class="c" d="M188.237,361.81s-4.509.689-5.727.837-2.6.388-2.6.388.99,3.2-1.23,4.583a11.964,11.964,0,0,1-4.964,1.525l-.08.086a14.979,14.979,0,0,0,4.663,3.962,38.248,38.248,0,0,0,6.951,2.823,6.989,6.989,0,0,0,.683-2.288c.154-1.3.308-2.141.308-2.141l-1.753-2.67.148-.917,4.663-.615a5.057,5.057,0,0,0,.074-2.75A12.084,12.084,0,0,0,188.237,361.81Z" transform="translate(-153.65 -347.424)"/></g><g transform="translate(131.281 75.432)"><line class="k" x2="3.07" y2="1.433" transform="translate(17.63 48.965)"/><line class="k" x2="1.642" y2="3.279" transform="translate(20.084 45.274)"/><line class="k" x1="3.482" y2="3.07" transform="translate(26.236 47.329)"/><line class="k" y1="0.412" x2="2.664" transform="translate(27.669 50.398)"/><path class="l" d="M276.73,230.011s.166-.148.48-.381" transform="translate(-276.73 -219.173)"/><path class="m" d="M279.18,227.119a14.468,14.468,0,0,1,13.047-1.175c7.5,2.928,8.963,34.325,9.184,40.986" transform="translate(-277.673 -217.357)"/><path class="l" d="M315.35,294.23v.615l.277-.547" transform="translate(-291.594 -244.035)"/><line class="n" y1="36.422" x2="18.497" transform="translate(24.605 12.752)"/><line class="l" y1="0.547" x2="0.277" transform="translate(43.379 11.663)"/><path class="o" d="M343.86,218.01a5.37,5.37,0,1,0,1.577-3.8A5.376,5.376,0,0,0,343.86,218.01Z" transform="translate(-302.566 -212.634)"/><path class="p" d="M343.86,218.006a5.376,5.376,0,1,1,5.352,5.376A5.376,5.376,0,0,1,343.86,218.006Zm5.327-1.23h-.917a.16.16,0,0,0-.135.062,10.228,10.228,0,0,0-1.113,1.956.154.154,0,0,0,0,.148,11.246,11.246,0,0,0,.99,1.679.086.086,0,0,0,.068.031,22.042,22.042,0,0,0,2.387-.08.093.093,0,0,0,.062-.037,17.966,17.966,0,0,0,.91-1.605.184.184,0,0,0,0-.129,10.049,10.049,0,0,0-1.089-2.005c0-.031-.043-.031-.074-.031Zm-3.143,1.993h.726a.092.092,0,0,0,.08-.062,10.163,10.163,0,0,1,1.163-2.024v-.074c-.08-.215-.172-.424-.24-.615-.1-.314-.2-.615-.3-.953,0-.037-.031-.055-.068-.055h-.2a6.154,6.154,0,0,0-1.575.135.142.142,0,0,0-.074.049c-.092.117-.178.24-.265.363a4.826,4.826,0,0,0-.615,1.329.311.311,0,0,0,0,.129c.043.221.074.449.129.671a3.2,3.2,0,0,0,.5,1.1.1.1,0,0,0,.1.055Zm6.545.037h.584a.086.086,0,0,0,.068-.031c.086-.111.178-.215.252-.332a2.676,2.676,0,0,0,.381-1.279,1,1,0,0,0-.092-.517c-.055-.123-.1-.246-.16-.363a4.344,4.344,0,0,0-.683-1.04.258.258,0,0,0-.111-.068,3.075,3.075,0,0,0-.941-.141c-.246,0-.5.031-.744.043-.031,0-.062,0-.068.049a9.562,9.562,0,0,1-.541,1.489.086.086,0,0,0,0,.092,10.09,10.09,0,0,1,1.089,2.011.08.08,0,0,0,.055.043Zm-1.181,2.959h0a3.419,3.419,0,0,1-.873-.96h-.412c-.677.043-1.359.055-2.036.043a.1.1,0,0,0-.086.043,5.314,5.314,0,0,1-.9.917.043.043,0,0,0,0,.068c.049.092.092.191.148.283a4.064,4.064,0,0,0,.769.886.376.376,0,0,0,.129.068,5.5,5.5,0,0,0,1.876.074,1,1,0,0,0,.615-.3l.049-.043a3.33,3.33,0,0,0,.5-.615,2.183,2.183,0,0,1,.228-.48Zm-2.1-8.907v.91c0,.037,0,.049.049.055a4.047,4.047,0,0,1,1.618,1.009.129.129,0,0,0,.129.043,4.2,4.2,0,0,1,1.661.062h.068a5.93,5.93,0,0,0-.049-.615.153.153,0,0,0-.049-.1,5.081,5.081,0,0,0-3.156-1.353,2.086,2.086,0,0,0-.271-.012Zm-3.6,2h0a7.266,7.266,0,0,1,1.753-.1.086.086,0,0,0,.068,0l.357-.246a6.773,6.773,0,0,1,1.187-.658.068.068,0,0,0,.031-.055v-.923h-.062a1.846,1.846,0,0,0-.449.037,5.185,5.185,0,0,0-2.7,1.181.412.412,0,0,0-.185.351c.006.1,0,.258,0,.394Zm-.5,5.77a.082.082,0,0,1,0-.037,5.415,5.415,0,0,1-.037-1.667.117.117,0,0,0,0-.061,3.693,3.693,0,0,1-.646-1.6,2.8,2.8,0,0,1-.049-.326l-.24.031c-.043,0-.055,0-.062.068a5.2,5.2,0,0,0,.037,2.178,5.124,5.124,0,0,0,.566,1.415s.031.049.049.043Zm8.089,0h.351a.123.123,0,0,0,.123-.068,5.211,5.211,0,0,0,.615-2.824,4.612,4.612,0,0,0-.08-.652s0-.055-.031-.062a1.924,1.924,0,0,0-.221-.055V217a2.768,2.768,0,0,1-.7,1.913.087.087,0,0,0,0,.055v.172a4.624,4.624,0,0,1-.031,1.23.761.761,0,0,1-.025.215Zm-2.516,2.368a5.235,5.235,0,0,0,2.836-2.178h-.3a.271.271,0,0,0-.246.092.552.552,0,0,1-.061.055,7.236,7.236,0,0,1-1.353.824.178.178,0,0,0-.086.08,5.527,5.527,0,0,1-.523.812Zm-5.887-2.141a5.223,5.223,0,0,0,2.725,2.1l-.307-.351a2.493,2.493,0,0,1-.455-.769.086.086,0,0,0-.043-.037,5.91,5.91,0,0,1-1.366-.886.283.283,0,0,0-.277-.092A1.875,1.875,0,0,1,344.893,220.854Z" transform="translate(-302.566 -212.63)"/><path class="o" d="M351.157,219.321l1.095-.031c.031,0,.055,0,.074.031a10.046,10.046,0,0,1,1.089,2.005.185.185,0,0,1,0,.129,17.951,17.951,0,0,1-.91,1.606.092.092,0,0,1-.062.037,22.029,22.029,0,0,1-2.387.08.086.086,0,0,1-.068-.031,11.244,11.244,0,0,1-.99-1.679.154.154,0,0,1,0-.148,10.227,10.227,0,0,1,1.113-1.956.16.16,0,0,1,.135-.062Z" transform="translate(-304.536 -215.193)"/><path class="o" d="M346.532,220.179h-.664a.1.1,0,0,1-.1-.055,3.2,3.2,0,0,1-.5-1.1c-.055-.221-.086-.449-.129-.671a.314.314,0,0,1,0-.129,4.826,4.826,0,0,1,.615-1.329c.086-.123.172-.246.265-.363a.142.142,0,0,1,.074-.049,6.151,6.151,0,0,1,1.575-.135h.2c.037,0,.055,0,.068.055.1.32.191.615.3.953.068.215.16.424.24.615v.074a10.16,10.16,0,0,0-1.163,2.024.092.092,0,0,1-.08.062H346.5Z" transform="translate(-303.054 -214.058)"/><path class="o" d="M356.756,220.269l-.91-.062a.08.08,0,0,1-.055-.043,10.1,10.1,0,0,0-1.089-2.011.086.086,0,0,1,0-.092,9.533,9.533,0,0,0,.541-1.489c0-.043.037-.043.068-.049.246,0,.5-.037.744-.043a3.076,3.076,0,0,1,.941.141.258.258,0,0,1,.111.068,4.344,4.344,0,0,1,.683,1.04c.055.117.1.24.16.363a1,1,0,0,1,.092.517,2.677,2.677,0,0,1-.381,1.279c-.074.117-.166.221-.252.332a.086.086,0,0,1-.068.031h-.578Z" transform="translate(-306.733 -214.112)"/><path class="o" d="M353.4,226.823c-.086.135-.166.283-.258.418a3.328,3.328,0,0,1-.5.615l-.049.043a1,1,0,0,1-.615.3,5.494,5.494,0,0,1-1.876-.074.376.376,0,0,1-.129-.068,4.065,4.065,0,0,1-.769-.886c-.055-.092-.1-.191-.148-.283a.043.043,0,0,1,0-.068,5.315,5.315,0,0,0,.9-.917.1.1,0,0,1,.086-.043c.677,0,1.359,0,2.036-.043h.412a3.419,3.419,0,0,0,.874.96Z" transform="translate(-304.561 -217.706)"/><path class="o" d="M352.709,213a2.079,2.079,0,0,1,.277,0,5.081,5.081,0,0,1,3.156,1.353.154.154,0,0,1,.049.1c0,.209.037.418.049.615h-.068a4.2,4.2,0,0,0-1.661-.062.129.129,0,0,1-.129-.043,4.048,4.048,0,0,0-1.618-1.009c-.031,0-.043,0-.049-.055v-.874C352.7,213,352.709,213,352.709,213Z" transform="translate(-305.971 -212.769)"/><path class="o" d="M346.86,214.965v-.437a.412.412,0,0,1,.185-.351,5.185,5.185,0,0,1,2.7-1.181,1.846,1.846,0,0,0,.449-.037h.062v.923a.068.068,0,0,1-.031.055,6.762,6.762,0,0,0-1.187.658l-.357.246a.085.085,0,0,1-.068,0,7.269,7.269,0,0,0-1.753.1Z" transform="translate(-303.721 -212.757)"/><path class="o" d="M345.327,223.291l-.406.043a.054.054,0,0,1-.049-.043,5.119,5.119,0,0,1-.566-1.415,5.2,5.2,0,0,1-.037-2.178c0-.043,0-.062.061-.068l.24-.031a2.761,2.761,0,0,0,.049.326,3.691,3.691,0,0,0,.646,1.6.118.118,0,0,1,0,.061,5.419,5.419,0,0,0,.037,1.667A.08.08,0,0,0,345.327,223.291Z" transform="translate(-302.686 -215.312)"/><path class="o" d="M359.2,223.284a1.584,1.584,0,0,1,.043-.246,4.627,4.627,0,0,0,.031-1.23v-.172a.086.086,0,0,1,0-.055,2.768,2.768,0,0,0,.7-1.913v-.037a1.959,1.959,0,0,1,.221.055.077.077,0,0,0,.031.062c.031.215.068.431.08.652a5.211,5.211,0,0,1-.615,2.823.123.123,0,0,1-.123.068Z" transform="translate(-308.47 -215.324)"/><path class="o" d="M355.11,228.056l.271-.314a5.536,5.536,0,0,0,.523-.812.178.178,0,0,1,.086-.08,7.237,7.237,0,0,0,1.353-.824.547.547,0,0,0,.061-.055.271.271,0,0,1,.246-.092h.3A5.234,5.234,0,0,1,355.11,228.056Z" transform="translate(-306.896 -217.727)"/><path class="o" d="M345.54,225.973a1.873,1.873,0,0,0,.277-.037.283.283,0,0,1,.277.092,5.916,5.916,0,0,0,1.365.886.086.086,0,0,1,.043.037,2.489,2.489,0,0,0,.455.769l.308.351A5.223,5.223,0,0,1,345.54,225.973Z" transform="translate(-303.213 -217.748)"/></g><g transform="translate(60.301 18.509)"><ellipse class="q" cx="49.377" cy="8.434" rx="49.377" ry="8.434" transform="translate(0 185.843)"/><path class="a" d="M231.8,162.8l-.578,6.484h11.239l-.72-6.484Z" transform="translate(-188.234 -136.529)"/><path class="a" d="M223,144.881s-1.279-1.6-1.759.615,1.759,5.426,2.873,5.905.16-4.472,0-5.745S223,144.881,223,144.881Z" transform="translate(-184.367 -129.417)"/><path class="a" d="M256.046,144.881s1.279-1.6,1.759.615-1.759,5.426-2.879,5.905-.154-4.472,0-5.745S256.046,144.881,256.046,144.881Z" transform="translate(-197.153 -129.417)"/><path class="j" d="M235.432,124.147a8.723,8.723,0,0,0-6.767-.141c-3.746,1.439-4.921,6.625-5.192,10.66s1.587,10.371,2.6,11.688,2.879,3.316,2.879,3.316h9.51a25.569,25.569,0,0,0,4.614-6.766c1.3-3.309,1.587-11.688.578-14.843A6.573,6.573,0,0,0,235.432,124.147Z" transform="translate(-185.243 -121.362)"/><path class="o" d="M194.57,327.42s-1.876,8.224-2.6,10.679-3.6,7.382-4.041,15.575-2.461,27.989-2.461,27.989-4.921,4.472-6.348,5.911-.437,2.024.578,2.743,6.053,3.463,8.366,3.316,3.746-.578,3.894-2.885.142-7.5.72-9.227,8.513-25.965,10.242-33.174a53.383,53.383,0,0,0,1.729-11.109l3.033-7.935Z" transform="translate(-167.91 -199.885)"/><g class="r" transform="translate(10.501 127.535)"><path class="s" d="M201.688,331.389a60.664,60.664,0,0,0-5.831,19.352c-1,10.082-5.856,43.207-5.856,43.207l2.534.7s13.367-45.52,13.9-50.539,1.845-14.05,1.845-14.05" transform="translate(-182.871 -328.436)"/></g><path class="l" d="M194.57,327.42s-1.876,8.224-2.6,10.679-3.6,7.382-4.041,15.575-2.461,27.989-2.461,27.989-4.921,4.472-6.348,5.911-.437,2.024.578,2.743,6.053,3.463,8.366,3.316,3.746-.578,3.894-2.885.142-7.5.72-9.227,8.513-25.965,10.242-33.174a53.383,53.383,0,0,0,1.729-11.109l3.033-7.935Z" transform="translate(-167.91 -199.885)"/><path class="o" d="M203.375,356.6c-4.964-3.223-10.74-2.768-13.674-2.233a36.764,36.764,0,0,0-1.778,9.535c-.431,8.224-2.461,27.989-2.461,27.989s-4.921,4.472-6.348,5.911-.437,2.024.578,2.744,6.053,3.463,8.366,3.316,3.746-.578,3.894-2.885.141-7.5.72-9.227,8.514-25.965,10.242-33.174C203.1,357.875,203.246,357.223,203.375,356.6Z" transform="translate(-167.906 -210.109)"/><g class="t" transform="translate(10.495 143.875)"><path class="s" d="M201.688,331.389a60.664,60.664,0,0,0-5.831,19.352c-1,10.082-5.856,43.207-5.856,43.207l2.534.7s13.367-45.52,13.9-50.539,1.845-14.05,1.845-14.05" transform="translate(-182.865 -344.776)"/></g><path class="l" d="M203.375,356.6c-4.964-3.223-10.74-2.768-13.674-2.233a36.764,36.764,0,0,0-1.778,9.535c-.431,8.224-2.461,27.989-2.461,27.989s-4.921,4.472-6.348,5.911-.437,2.024.578,2.744,6.053,3.463,8.366,3.316,3.746-.578,3.894-2.885.141-7.5.72-9.227,8.514-25.965,10.242-33.174C203.1,357.875,203.246,357.223,203.375,356.6Z" transform="translate(-167.906 -210.109)"/><path class="c" d="M192,424.513a80.683,80.683,0,0,1,.584-8.71c-.615-.264-3.568-1.353-4.306.055a33.227,33.227,0,0,0-1.587,3.463s-1.605-.111-2.307-2.842c-1.538,1.415-4.2,3.863-5.192,4.86-1.446,1.445-.437,2.024.578,2.743s6.053,3.463,8.366,3.316S191.848,426.82,192,424.513Z" transform="translate(-167.932 -233.65)"/><path class="j" d="M191.962,428.838v-.48a7.868,7.868,0,0,1-7.529.769,43.015,43.015,0,0,1-5.905-2.737c-.492.941.326,1.433,1.15,2.018,1.009.72,6.053,3.463,8.366,3.316S191.814,431.145,191.962,428.838Z" transform="translate(-167.897 -237.975)"/><path class="o" d="M274.1,327.42s1.876,8.224,2.6,10.679,3.611,7.382,4.041,15.575,2.461,27.989,2.461,27.989,4.921,4.472,6.348,5.911.431,2.024-.578,2.743-6.059,3.463-8.366,3.316-3.752-.578-3.9-2.885-.142-7.5-.72-9.227-8.507-25.965-10.242-33.174a52.846,52.846,0,0,1-1.729-11.109L261,329.3Z" transform="translate(-199.696 -199.885)"/><g class="u" transform="translate(61.304 127.535)"><path class="s" d="M282.6,393.783a6.766,6.766,0,0,0,2.344-.424c-.726-8.692-3.789-44.167-6.108-48.177-2.651-4.577-4.1-8.913-4.1-12.524a28.058,28.058,0,0,0-.3-4.847l-.412.062-7.837,3.168s2.522,4.989,2.522,7.382,1.685,8.673,4.577,18.306c2.374,7.917,6.7,29.483,8.169,36.908A5.474,5.474,0,0,0,282.6,393.783Z" transform="translate(-262.997 -327.57)"/></g><path class="l" d="M274.1,327.42s1.876,8.224,2.6,10.679,3.611,7.382,4.041,15.575,2.461,27.989,2.461,27.989,4.921,4.472,6.348,5.911.431,2.024-.578,2.743-6.059,3.463-8.366,3.316-3.752-.578-3.9-2.885-.142-7.5-.72-9.227-8.507-25.965-10.242-33.174a52.846,52.846,0,0,1-1.729-11.109L261,329.3Z" transform="translate(-199.696 -199.885)"/><path class="o" d="M268,356.6c4.958-3.223,10.734-2.768,13.668-2.233a36.251,36.251,0,0,1,1.778,9.535c.431,8.224,2.461,27.989,2.461,27.989s4.921,4.472,6.348,5.911.431,2.024-.578,2.744-6.059,3.463-8.366,3.316-3.752-.578-3.9-2.885-.141-7.5-.72-9.227-8.507-25.965-10.242-33.174C268.265,357.875,268.123,357.223,268,356.6Z" transform="translate(-202.39 -210.109)"/><g class="v" transform="translate(65.61 143.875)"><path class="s" d="M282.6,393.783a6.766,6.766,0,0,0,2.344-.424c-.726-8.692-3.789-44.167-6.108-48.177-2.651-4.577-4.1-8.913-4.1-12.524a28.058,28.058,0,0,0-.3-4.847l-.412.062-7.837,3.168s2.522,4.989,2.522,7.382,1.685,8.673,4.577,18.306c2.374,7.917,6.7,29.483,8.169,36.908A5.474,5.474,0,0,0,282.6,393.783Z" transform="translate(-267.303 -343.91)"/></g><path class="l" d="M268,356.6c4.958-3.223,10.734-2.768,13.668-2.233a36.251,36.251,0,0,1,1.778,9.535c.431,8.224,2.461,27.989,2.461,27.989s4.921,4.472,6.348,5.911.431,2.024-.578,2.744-6.059,3.463-8.366,3.316-3.752-.578-3.9-2.885-.141-7.5-.72-9.227-8.507-25.965-10.242-33.174C268.265,357.875,268.123,357.223,268,356.6Z" transform="translate(-202.39 -210.109)"/><path class="c" d="M286.154,424.513a80.679,80.679,0,0,0-.584-8.71c.652-.264,3.568-1.353,4.337.055a33.227,33.227,0,0,1,1.587,3.463s1.612-.111,2.307-2.842c1.544,1.415,4.2,3.863,5.2,4.86,1.439,1.445.431,2.024-.578,2.743s-6.059,3.463-8.366,3.316S286.3,426.82,286.154,424.513Z" transform="translate(-209.152 -233.65)"/><path class="j" d="M286.52,428.838v-.48a7.868,7.868,0,0,0,7.529.769,42.293,42.293,0,0,0,5.905-2.737c.5.941-.326,1.433-1.144,2.018-1.009.72-6.059,3.463-8.366,3.316S286.668,431.145,286.52,428.838Z" transform="translate(-209.517 -237.975)"/><path class="j" d="M210.328,257.823a29.253,29.253,0,0,0-2.528,8.846,22.3,22.3,0,0,1-2.018,7.578L200,301.8a19.573,19.573,0,0,0,7.831,3.543,44.845,44.845,0,0,0,10.869.5l7.08-25.528,2.78.252,7.326,26.033a86.279,86.279,0,0,0,10.617-2.024c7.585-1.772,10.365-4.041,10.365-4.041l-6.576-29.065s-2.522-10.113-5.05-14.413C245.212,257.06,221.45,261.36,210.328,257.823Z" transform="translate(-176.219 -172.806)"/><path class="o" d="M260.762,141.75s3.894-6.484,5.622-8.643,2.461-3.168,2.461-3.168-21.179-.148-22.046-.578-1.15-1.439-2.461-2.737-2.159-1.729-2.018-2.307,2.307,0,2.307,0a12.918,12.918,0,0,0-3.746-2.159c-1.876-.578-1.009-1.729,1.3-1.845s4.921-.431,7.056.867,4.306,4.921,4.306,4.921a117.652,117.652,0,0,1,14.554-4.607c7.351-1.729,14.554-1.587,14.985-1.009s-6.484,21.321-17.144,31.556Z" transform="translate(-191.559 -120.092)"/><g class="w" transform="translate(48.3 0)"><path class="x" d="M279.944,153.742c8-7.652,13.853-21.185,16.129-27.767-.16-1-.615-1.642-1.581-1.15-2.516,1.23-15.993,16.609-18.282,21.53Z" transform="translate(-253.849 -121.848)"/></g><path class="l" d="M260.762,141.75s3.894-6.484,5.622-8.643,2.461-3.168,2.461-3.168-21.179-.148-22.046-.578-1.15-1.439-2.461-2.737-2.159-1.729-2.018-2.307,2.307,0,2.307,0a12.918,12.918,0,0,0-3.746-2.159c-1.876-.578-1.009-1.729,1.3-1.845s4.921-.431,7.056.867,4.306,4.921,4.306,4.921a117.652,117.652,0,0,1,14.554-4.607c7.351-1.729,14.554-1.587,14.985-1.009s-6.484,21.321-17.144,31.556Z" transform="translate(-191.559 -120.092)"/><path class="h" d="M243.63,120.4s2.75.88,3.592,2.405" transform="translate(-193.011 -120.211)"/><path class="h" d="M250.57,120.73s2.03,1.015,2.2,2.368" transform="translate(-195.681 -120.338)"/><line class="h" y1="6.071" x2="5.536" transform="translate(77.273 3.776)"/><path class="o" d="M190.545,141.75s-3.894-6.484-5.622-8.643-2.461-3.168-2.461-3.168,21.185-.148,22.046-.578,1.15-1.439,2.461-2.737,2.165-1.729,2.018-2.307-2.307,0-2.307,0a12.918,12.918,0,0,1,3.746-2.159c1.845-.578,1.009-1.729-1.292-1.845s-4.921-.431-7.062.867-4.306,4.921-4.306,4.921a117.657,117.657,0,0,0-14.554-4.607c-7.345-1.729-14.554-1.587-14.985-1.009s6.484,21.321,17.15,31.556Z" transform="translate(-163.984 -120.092)"/><g class="y" transform="translate(4.225 0)"><path class="x" d="M185.926,153.278l2.891-5.715c-3.623-6.311-12.456-21.376-15.378-23.467-1.962-1.4-3.113-.283-3.758,1.083C171.87,131.619,177.812,145.49,185.926,153.278Z" transform="translate(-168.775 -121.384)"/></g><path class="h" d="M190.545,141.75s-3.894-6.484-5.622-8.643-2.461-3.168-2.461-3.168,21.185-.148,22.046-.578,1.15-1.439,2.461-2.737,2.165-1.729,2.018-2.307-2.307,0-2.307,0a12.918,12.918,0,0,1,3.746-2.159c1.845-.578,1.009-1.729-1.292-1.845s-4.921-.431-7.062.867-4.306,4.921-4.306,4.921a117.657,117.657,0,0,0-14.554-4.607c-7.345-1.729-14.554-1.587-14.985-1.009s6.484,21.321,17.15,31.556Z" transform="translate(-163.984 -120.092)"/><path class="h" d="M232.258,120.4s-2.787.541-3.968,1.729" transform="translate(-187.107 -120.211)"/><path class="h" d="M226.489,120.73a5.086,5.086,0,0,0-2.879,1.526" transform="translate(-185.306 -120.338)"/><line class="h" x1="4.724" y1="5.899" transform="translate(13.767 3.948)"/><path class="d" d="M230.7,163l-9.651-.578c-7.2-.431-9.51.142-9.51.142l-12.967-10.8-7.64,11.528,10.808,13.109s1.876,10.519,3.316,16.43,2.018,18.011,1.3,21.031-.148,4.472,1.009,5.044,9.51,2.307,19.74,1.729,13.687-1.581,14.837-3.6.148-5.186-.283-7.492.141-10.23.431-16.713.861-14.554.861-14.554l9.227-14.843a26.911,26.911,0,0,0-3.316-8.79,15.871,15.871,0,0,0-5.186-5.186l-6.2,8.5Z" transform="translate(-172.728 -131.391)"/><g class="z" transform="translate(18.202 18.059)"><path class="s" d="M216.741,173.915s1.329-.794,4.509,0,7.948,3.691,9.012,2.916-2.122-3.18-2.122-3.18a24.1,24.1,0,0,1,7.16.8c4.509,1.064,5.032,2.116,6.89,4.767s5.469,3.291,5.832,5.567-8.747,20.146-6.889,19.069,5.038-7.689,5.038-7.689-1.329,12.727-2.922,17.765,2.387,5.032,1.064,7.683-2.344,8.169-11.774,7.794-15.8-1.427-16.609-1.7a1.8,1.8,0,0,1,1.323-3.18c2.651,0,6.9,2.122,4.773.529a26.849,26.849,0,0,1-6.89-8.212c-1.353-2.916,2.381-3.186,2.381-3.186s-5.831-18.288-7.154-22,5.3.794,5.3.794l-10.6-10.869,8.218-9.276" transform="translate(-196.368 -158.248)"/></g><path class="l" d="M230.7,163l-9.651-.578c-7.2-.431-9.51.142-9.51.142l-12.967-10.8-7.64,11.528,10.808,13.109s1.876,10.519,3.316,16.43,2.018,18.011,1.3,21.031-.148,4.472,1.009,5.044,9.51,2.307,19.74,1.729,13.687-1.581,14.837-3.6.148-5.186-.283-7.492.141-10.23.431-16.713.861-14.554.861-14.554l9.227-14.843a26.911,26.911,0,0,0-3.316-8.79,15.871,15.871,0,0,0-5.186-5.186l-6.2,8.5Z" transform="translate(-172.728 -131.391)"/><path class="q" d="M277.058,163.426a26.911,26.911,0,0,0-3.316-8.79,15.871,15.871,0,0,0-5.186-5.186l-6.2,8.5L255.59,163l12.622,14.677Z" transform="translate(-197.613 -131.391)"/><path class="q" d="M201.99,179.239l11.5-15.458a12.767,12.767,0,0,0-1.95.221L198.57,153.2l-7.64,11.528,10.808,13.109S201.83,178.365,201.99,179.239Z" transform="translate(-172.728 -132.834)"/><path class="q" d="M226.937,214.958v-22.09a3.382,3.382,0,0,1-1.489.984,5.494,5.494,0,0,1-1.888.351v-3.076a5.457,5.457,0,0,0,2.5-1.07,5.536,5.536,0,0,0,1.808-2.338h3.217v27.238Z" transform="translate(-185.286 -146.12)"/><path class="q" d="M253.029,213.159a5.491,5.491,0,0,1-4.7,1.95c-2.153,0-3.728-.615-4.706-1.95a9.507,9.507,0,0,1-1.464-5.727V194.4a8.373,8.373,0,0,1,1.482-5.395,6.971,6.971,0,0,1,9.368,0,8.325,8.325,0,0,1,1.482,5.395v13.029A9.474,9.474,0,0,1,253.029,213.159Zm-4.743-1.624a1.747,1.747,0,0,0,1.519-.769,6.452,6.452,0,0,0,.535-3.26V194.231q0-3.014-1.409-3.389a4.431,4.431,0,0,0-.892-.062,1.63,1.63,0,0,0-1.175.615c-.381.406-.566,1.347-.566,2.836v13.287a6.877,6.877,0,0,0,.5,3.285,1.7,1.7,0,0,0,1.489.732Z" transform="translate(-192.445 -145.919)"/></g></g></svg>