<svg xmlns="http://www.w3.org/2000/svg" width="277.963" height="207.116" viewBox="0 0 277.963 207.116"><defs><style>.a{fill:#ebebeb;}.b{fill:#f0f0f0;}.c{fill:#f5f5f5;}.d{fill:#e0e0e0;}.e,.j,.k,.o,.p{fill:#fff;}.f{fill:#e6e6e6;}.g{fill:#ffa62f;}.h,.i{fill:#263238;}.h,.o,.q,.t{opacity:0.3;}.j{opacity:0.1;}.k,.l{opacity:0.2;}.m{fill:#a02724;}.n{fill:#b55b52;}.p{opacity:0.4;}.r{opacity:0.5;}.s{fill:#ffc3bd;}.u{fill:#ed847e;}</style></defs><g transform="translate(0 0)"><rect class="a" width="277.963" height="0.139" transform="translate(0 182.01)"/><rect class="a" width="29.503" height="0.139" transform="translate(220.608 190.955)"/><rect class="a" width="32.611" height="0.139" transform="translate(151.523 189.215)"/><rect class="a" width="10.668" height="0.139" transform="translate(211.363 188.414)"/><rect class="a" width="24.01" height="0.139" transform="translate(55.854 186.73)"/><rect class="a" width="8.583" height="0.139" transform="translate(44.174 186.73)"/><rect class="a" width="30.131" height="0.139" transform="translate(73.088 189.076)"/><path class="a" d="M148.722,212.216H41.379a3.174,3.174,0,0,1-3.169-3.174V58.147A3.174,3.174,0,0,1,41.379,55H148.722a3.174,3.174,0,0,1,3.174,3.174V209.041A3.174,3.174,0,0,1,148.722,212.216ZM41.379,55.111a3.035,3.035,0,0,0-3.03,3.035V209.041a3.035,3.035,0,0,0,3.03,3.035H148.722a3.041,3.041,0,0,0,3.035-3.035V58.147a3.041,3.041,0,0,0-3.035-3.035Z" transform="translate(-16.968 -55)"/><path class="a" d="M365.024,212.216H257.674a3.18,3.18,0,0,1-3.174-3.174V58.147A3.18,3.18,0,0,1,257.674,55H365.024a3.174,3.174,0,0,1,3.163,3.147V209.041A3.174,3.174,0,0,1,365.024,212.216ZM257.674,55.111a3.041,3.041,0,0,0-3.035,3.035V209.041a3.041,3.041,0,0,0,3.035,3.035H365.024a3.041,3.041,0,0,0,3.035-3.035V58.147a3.041,3.041,0,0,0-3.035-3.035Z" transform="translate(-113.017 -55)"/><rect class="b" width="5.843" height="69.507" transform="translate(154.114 177.307) rotate(180)"/><rect class="b" width="115.877" height="4.631" transform="translate(151.868 181.938) rotate(180)"/><rect class="c" width="114.521" height="69.507" transform="translate(33.75 107.8)"/><rect class="d" width="6.037" height="4.381" transform="translate(155.687 107.8) rotate(180)"/><rect class="a" width="117.467" height="4.381" transform="translate(32.183 103.419)"/><rect class="e" width="105.331" height="23.977" rx="7.78" transform="translate(38.342 113.192)"/><rect class="e" width="105.331" height="23.977" rx="7.78" transform="translate(38.342 144.329)"/><rect class="c" width="51.757" height="3.286" rx="1.643" transform="translate(116.889 115.755) rotate(180)"/><rect class="c" width="51.757" height="3.286" rx="1.643" transform="translate(116.889 146.892) rotate(180)"/><rect class="f" width="17.623" height="3.369" transform="translate(230.982 130.604)"/><rect class="f" width="3.252" height="115.299" transform="translate(220.73 182.01) rotate(180)"/><rect class="c" width="24.772" height="3.369" transform="translate(230.987 133.967) rotate(180)"/><rect class="f" width="17.623" height="3.369" transform="translate(230.982 161.624)"/><rect class="c" width="24.772" height="3.369" transform="translate(230.987 164.993) rotate(180)"/><rect class="f" width="17.623" height="3.369" transform="translate(230.982 68.557)"/><rect class="c" width="24.772" height="3.369" transform="translate(230.987 71.926) rotate(180)"/><rect class="f" width="17.623" height="3.369" transform="translate(230.982 99.577)"/><rect class="c" width="24.772" height="3.369" transform="translate(230.987 102.952) rotate(180)"/><rect class="f" width="3.252" height="115.299" transform="translate(245.502 182.01) rotate(180)"/><rect class="c" width="3.252" height="115.299" transform="translate(230.982 182.01) rotate(180)"/><rect class="c" width="3.252" height="115.299" transform="translate(209.467 182.01) rotate(180)"/><rect class="d" width="146.876" height="77.98" transform="translate(195.736 93.751) rotate(180)"/><rect class="c" width="148.488" height="77.98" transform="translate(193.64 93.751) rotate(180)"/><rect class="e" width="65.688" height="137.847" transform="translate(188.314 21.915) rotate(90)"/></g><g transform="translate(31.193 194.53)"><ellipse class="c" cx="107.788" cy="6.293" rx="107.788" ry="6.293"/></g><g transform="translate(55.659 82.555)"><path class="g" d="M263.208,261.263H109.061a1.857,1.857,0,0,1-1.851-1.851h0a1.857,1.857,0,0,1,1.851-1.851H263.208a1.857,1.857,0,0,1,1.851,1.851h0a1.857,1.857,0,0,1-1.851,1.851Z" transform="translate(-103.268 -227.507)"/><path class="h" d="M357.516,261.263H321.431a1.857,1.857,0,0,1-1.851-1.851h0a1.857,1.857,0,0,1,1.851-1.851h36.085a1.857,1.857,0,0,1,1.851,1.851h0A1.857,1.857,0,0,1,357.516,261.263Z" transform="translate(-197.577 -227.507)"/><rect class="i" width="118.551" height="12.903" transform="translate(37.475 38.398)"/><rect class="j" width="118.551" height="12.903" transform="translate(37.475 38.398)"/><path class="i" d="M376.472,346.163h3.547l-.145-81.943H374.96Z" transform="translate(-222.169 -230.464)"/><path class="j" d="M376.472,346.163h3.547l-.145-81.943H374.96Z" transform="translate(-222.169 -230.464)"/><path class="i" d="M316.042,346.163H312.49l8.028-81.943h4.914Z" transform="translate(-194.428 -230.464)"/><path class="k" d="M316.042,346.163H312.49l8.028-81.943h4.914Z" transform="translate(-194.428 -230.464)"/><path class="i" d="M164.1,346.163h3.547L167.5,264.22H162.59Z" transform="translate(-127.861 -230.464)"/><path class="j" d="M164.1,346.163h3.547L167.5,264.22H162.59Z" transform="translate(-127.861 -230.464)"/><path class="i" d="M103.672,346.163H100.12l8.028-81.943h4.914Z" transform="translate(-100.12 -230.464)"/><path class="k" d="M103.672,346.163H100.12l8.028-81.943h4.914Z" transform="translate(-100.12 -230.464)"/><path class="i" d="M276.958,244.78h-8.183l-3.274-16h8.183Z" transform="translate(-173.561 -214.726)"/><path class="i" d="M275.67,230.257h-35.5a2,2,0,0,1-2.012-2.14l1.356-22.476a2.307,2.307,0,0,1,2.268-2.14h35.507a2,2,0,0,1,2.012,2.14l-1.356,22.476A2.313,2.313,0,0,1,275.67,230.257Z" transform="translate(-161.416 -203.5)"/><path class="g" d="M274.67,230.257h-35.5a2,2,0,0,1-2.012-2.14l1.356-22.476a2.307,2.307,0,0,1,2.268-2.14h35.507a2,2,0,0,1,2.012,2.14l-1.356,22.476A2.313,2.313,0,0,1,274.67,230.257Z" transform="translate(-160.972 -203.5)"/><path class="e" d="M240.049,230.02a.912.912,0,0,1-.661-.278.928.928,0,0,1-.239-.684l1.356-22.476a1.2,1.2,0,0,1,1.162-1.112h35.507a.89.89,0,0,1,.9.962l-1.356,22.476a1.19,1.19,0,0,1-1.162,1.112Z" transform="translate(-161.858 -204.375)"/><path class="l" d="M268.82,203.5l2.307,7.9,6.849-7.9Z" transform="translate(-175.035 -203.5)"/></g><g transform="translate(69.607 51.15)"><path class="i" d="M169.543,168.346c.056.428.322.751.606.728s.461-.389.406-.817-.322-.751-.6-.728S169.493,167.929,169.543,168.346Z" transform="translate(-144.894 -156.121)"/><path class="m" d="M170.39,170.15a13.636,13.636,0,0,0,1.924,3.085,2.084,2.084,0,0,1-1.729.367Z" transform="translate(-145.273 -157.285)"/><path class="i" d="M166.773,164.606a.35.35,0,0,1-.128,0,.261.261,0,0,1-.139-.334,2.452,2.452,0,0,1,1.723-1.5.25.25,0,0,1,.289.206.256.256,0,0,1-.206.295,1.9,1.9,0,0,0-1.334,1.19.267.267,0,0,1-.206.139Z" transform="translate(-143.541 -154.009)"/><path class="n" d="M146.77,181.07l3.336,2.557,4.553,3.486a4.714,4.714,0,0,0-.445,1.668c-.161,1.279-.322,2.224,2.518,3.008a1.618,1.618,0,0,1,1.212,1.262c.111.756-.35,1.668-2.974,2.118a12.058,12.058,0,0,1-7.41-1.262c-1.112-.556-1.112-1.223-.645-2.352C148.315,188.347,147.637,184.255,146.77,181.07Z" transform="translate(-134.717 -162.134)"/><path class="g" d="M140,198.575a23.167,23.167,0,0,0,1.579-3.847s8.45-.461,11.241.372,4.525,4.447,4.525,4.447Z" transform="translate(-131.778 -168.143)"/><path class="n" d="M137.82,210.955c-.206.623-.434,1.384-.65,2.085l-.628,2.168c-.389,1.445-.767,2.9-1.062,4.342a41.429,41.429,0,0,0-.717,4.281,20.31,20.31,0,0,0-.122,3.986,8.987,8.987,0,0,0,.256,1.668c.033.111.061.233.1.339l.111.3h0a1.418,1.418,0,0,0-.089-.156,2.662,2.662,0,0,0-.183-.233,1.328,1.328,0,0,0-.245-.228c-.111-.078-.128-.067-.106-.039a2.726,2.726,0,0,0,.523.295c.25.111.556.222.862.328.628.211,1.323.406,2.04.595,2.869.723,6,1.284,9.051,1.935l-.1,3.853a49.076,49.076,0,0,1-4.914.406,47.265,47.265,0,0,1-5-.083,24.037,24.037,0,0,1-2.63-.322c-.456-.083-.928-.178-1.429-.317a8.75,8.75,0,0,1-1.668-.617,5.985,5.985,0,0,1-1.112-.695,5.063,5.063,0,0,1-.673-.645,5.223,5.223,0,0,1-.356-.473c-.056-.095-.117-.189-.167-.284l-.072-.133-.384-.784c-.117-.261-.211-.517-.311-.778a15.627,15.627,0,0,1-.756-3,33.051,33.051,0,0,1,.461-10.663c.311-1.668.678-3.336,1.112-4.92.222-.806.456-1.612.706-2.407s.517-1.562.839-2.435Z" transform="translate(-126.062 -174.236)"/><path class="g" d="M131.826,200.3c5.253-1.39,8.372,2.913,6.593,10.007s-2.374,7.36-2.374,7.36l-10.835-1.807C126.544,208.914,126.439,201.72,131.826,200.3Z" transform="translate(-125.21 -170.56)"/><path class="n" d="M163.226,249.2l-.817-.072c-2.324,0-2.724.634-4.153,1.962l-.556,2.924c3.752,1.918,5.765-.189,5.771-.189h3.475l-1.223-2.78A3.058,3.058,0,0,0,163.226,249.2Z" transform="translate(-139.638 -192.358)"/><path class="n" d="M144.2,164.305c.945,5.064,1.24,8.078,4.142,10.34,4.358,3.4,10.362.167,10.952-5.1.528-4.742-1.112-12.23-6.349-13.559a7.16,7.16,0,0,0-8.745,8.322Z" transform="translate(-133.586 -150.901)"/><path class="i" d="M149.707,162.181c3.614-.289,2.557-4.1,1.44-4.892a3.346,3.346,0,0,0,1.234-5.181c.956-2.5-1.779-5.5-6.577-5.053-3.5.322-3.891,2.174-3.891,2.174s-4.2-.439-5.943,3.024c-1.49,2.969.317,4.553.317,4.553s-3.135.912-2.268,5c.923,4.414,4.314,3.391,4.314,3.391s-.762,4.047,3.825,4.1c3.964.05,4.014-2.919,4.014-2.919S151.308,165.905,149.707,162.181Z" transform="translate(-129.054 -147.009)"/><path class="n" d="M157.392,172.683a4.709,4.709,0,0,0,2.224,2.524c1.323.678,2.335-.728,2.1-2.174-.211-1.3-1.34-2.958-2.735-3.035S156.9,171.337,157.392,172.683Z" transform="translate(-139.43 -157.216)"/><path class="n" d="M251.681,389.086l4.942-2.007-3.491-11.869-4.942,2Z" transform="translate(-179.822 -248.347)"/><path class="l" d="M249.886,382.971l4.992-1.835-1.746-5.926-4.942,2Z" transform="translate(-179.822 -248.347)"/><path class="i" d="M257.861,392.5l-5.654,1.962a.378.378,0,0,0-.25.473l1.279,4.57a.951.951,0,0,0,1.2.589c1.951-.723,2.741-1.112,5.153-2.157a76.134,76.134,0,0,0,6.96-3.336c1.885-1.112.75-3.008-.167-2.7-2.174.734-5.737,1.212-7.544.589A1.5,1.5,0,0,0,257.861,392.5Z" transform="translate(-181.487 -255.745)"/><path class="i" d="M167.718,276.338s37.353,3.336,38.32,14.082c1.946,21.865,4.931,42.945,4.931,42.945l-7.6,2.78s-9.3-24.016-9.178-41.139c-10.774-3.041-39.1,1.423-43.735-6.888-4.092-7.338-.5-12.608-.5-12.608Z" transform="translate(-135.552 -204.073)"/><path class="g" d="M244.888,381.7l9.462-3.2-.411-4.308-10.668,3.436Z" transform="translate(-177.637 -247.894)"/><path class="g" d="M265.108,392.193a6.453,6.453,0,0,1-1.4.284.122.122,0,0,1-.122-.061.128.128,0,0,1,0-.133c.122-.167,1.212-1.634,1.907-1.612a.484.484,0,0,1,.389.239.684.684,0,0,1,.072.689A1.445,1.445,0,0,1,265.108,392.193Zm-1.112,0c.962-.133,1.618-.389,1.768-.706a.434.434,0,0,0-.061-.445.217.217,0,0,0-.189-.122c-.4-.017-1.09.7-1.545,1.273Z" transform="translate(-186.65 -255.212)"/><path class="g" d="M263.424,391.861a.111.111,0,0,1-.061,0,.128.128,0,0,1-.095-.072c0-.061-.639-1.468-.306-2.135a.628.628,0,0,1,.439-.334.473.473,0,0,1,.556.206,2.755,2.755,0,0,1-.473,2.29A.128.128,0,0,1,263.424,391.861Zm0-2.279a.373.373,0,0,0-.217.195,2.75,2.75,0,0,0,.228,1.712,2.536,2.536,0,0,0,.328-1.829c-.039-.061-.106-.133-.284-.095Z" transform="translate(-186.34 -254.602)"/><path class="n" d="M206.9,396.36l5.281-.25.862-12.469-5.281.25Z" transform="translate(-161.486 -252.091)"/><path class="i" d="M211.166,404.3l-5.982-.189a.378.378,0,0,0-.406.35l-.439,4.72a.951.951,0,0,0,.923.984c2.085.028,3.08-.061,5.709,0a48.311,48.311,0,0,0,7.021,0c2.218-.289,1.879-2.463.912-2.546a14.545,14.545,0,0,1-6.81-2.991,1.473,1.473,0,0,0-.928-.328Z" transform="translate(-160.349 -261.18)"/><path class="g" d="M218.8,405.157a6.735,6.735,0,0,1-1.412-.234.122.122,0,0,1-.039-.222c.172-.117,1.712-1.112,2.357-.823a.472.472,0,0,1,.278.361.684.684,0,0,1-.178.667A1.4,1.4,0,0,1,218.8,405.157Zm-1.067-.406c.945.222,1.668.217,1.907,0a.45.45,0,0,0,.1-.445.228.228,0,0,0-.133-.178c-.367-.167-1.268.25-1.918.623Z" transform="translate(-166.1 -261.055)"/><path class="g" d="M217.37,403.915a.128.128,0,0,1-.061,0,.134.134,0,0,1-.061-.106c0-.061-.072-1.6.478-2.1a.6.6,0,0,1,.556-.156.472.472,0,0,1,.439.389c.1.584-.728,1.668-1.268,1.968A.112.112,0,0,1,217.37,403.915Zm.8-2.118a.356.356,0,0,0-.272.1,2.743,2.743,0,0,0-.4,1.668c.473-.378,1.028-1.206.962-1.59,0-.072-.056-.156-.234-.183Z" transform="translate(-166.08 -260.04)"/><path class="l" d="M208.068,383.89l5.287-.25-.5,7.133-5.265-.006Z" transform="translate(-161.793 -252.091)"/><path class="i" d="M146.826,275.37s40.249,6.154,39.61,15.421c-1.151,16.678-6.743,49.272-6.743,49.272l-7.928.111s-1.873-33.433,1.112-45.619c-9.9,0-37.831-.345-41.639-5.431-4.214-5.62.117-14.454.117-14.454Z" transform="translate(-127.068 -203.7)"/><path class="g" d="M203.561,389.45l9.6-.15.473-5.07-10.529.411Z" transform="translate(-159.799 -252.353)"/><path class="g" d="M154.427,199.121c-3.241-.634-17.856-.45-17.856-.45a5.837,5.837,0,0,0-5.96,5.176c-.511,4.509,2.352,14.582,2.452,19.719.122,6.31-1.084,8.867-1.206,17.362l27.891,1.279c0-17.084-.745-31.226-1.418-38.009C158.091,201.811,157.668,199.749,154.427,199.121Z" transform="translate(-127.581 -169.939)"/><path class="o" d="M154.427,199.121c-3.241-.634-17.856-.45-17.856-.45a5.837,5.837,0,0,0-5.96,5.176c-.511,4.509,2.352,14.582,2.452,19.719.122,6.31-1.084,8.867-1.206,17.362l27.891,1.279c0-17.084-.745-31.226-1.418-38.009C158.091,201.811,157.668,199.749,154.427,199.121Z" transform="translate(-127.581 -169.939)"/><path class="n" d="M174.3,209.18c.873,3,1.751,6.087,2.657,9.1s1.835,6.043,2.88,8.895c.256.728.556,1.406.8,2.107l.428.984.056.122v.094h0v-.039a2.1,2.1,0,0,0-.356-.467c-.189-.183-.261-.2-.278-.2a1.384,1.384,0,0,0,.422.261,6.92,6.92,0,0,0,.839.339c.628.217,1.334.411,2.051.606,2.907.739,6.082,1.306,9.173,1.968l-.1,3.853a47.257,47.257,0,0,1-5,.406,44.566,44.566,0,0,1-5.081-.095,23.9,23.9,0,0,1-2.68-.345c-.467-.089-.951-.2-1.473-.35a8.172,8.172,0,0,1-1.779-.734,5.763,5.763,0,0,1-1.223-.94,4.587,4.587,0,0,1-.712-.956l-.189-.35-.628-1.19c-.367-.778-.767-1.562-1.112-2.335-.684-1.562-1.284-3.108-1.885-4.659s-1.112-3.1-1.629-4.659c-1.029-3.13-1.957-6.226-2.78-9.451Z" transform="translate(-143.635 -174.617)"/><path class="g" d="M164.768,202.07c3.814-3.891,8.689-1.768,10.785,5.259s1.718,7.538,1.718,7.538l-10.246,3.975C164.606,212.149,160.865,206.034,164.768,202.07Z" transform="translate(-142.025 -170.604)"/><path class="n" d="M214.45,249.2l-.817-.072c-2.324,0-2.718.634-4.147,1.962l-.556,2.924c3.753,1.918,5.765-.189,5.765-.189h3.48l-1.229-2.78A3.047,3.047,0,0,0,214.45,249.2Z" transform="translate(-162.388 -192.358)"/><rect class="g" width="38.459" height="5.126" rx="2.55" transform="translate(42.539 92.89) rotate(180)"/><path class="g" d="M134.129,371.161H132.55l1.818-57.071h2.185Z" transform="translate(-128.47 -221.205)"/><path class="p" d="M134.129,371.161H132.55l1.818-57.071h2.185Z" transform="translate(-128.47 -221.205)"/><path class="g" d="M159.578,371.161h1.579l-1.812-57.071H157.16Z" transform="translate(-139.398 -221.205)"/><path class="p" d="M159.578,371.161h1.579l-1.812-57.071H157.16Z" transform="translate(-139.398 -221.205)"/><path class="g" d="M171.509,371.161H169.93l1.818-57.071h2.185Z" transform="translate(-145.069 -221.205)"/><path class="p" d="M171.509,371.161H169.93l1.818-57.071h2.185Z" transform="translate(-145.069 -221.205)"/><path class="g" d="M196.958,371.161h1.579l-1.812-57.071H194.54Z" transform="translate(-155.998 -221.205)"/><path class="p" d="M196.958,371.161h1.579l-1.812-57.071H194.54Z" transform="translate(-155.998 -221.205)"/><g class="q" transform="translate(5.821 92.885)"><path class="g" d="M135.758,314.09h2.185l-.106,2.424H135.68Z" transform="translate(-135.68 -314.09)"/><path class="g" d="M159.417,316.514H157.26l-.1-2.424h2.179Z" transform="translate(-145.219 -314.09)"/><path class="g" d="M175.317,314.09l-.1,2.424H173.06l.078-2.424Z" transform="translate(-152.279 -314.09)"/><path class="g" d="M196.8,316.514H194.64l-.1-2.424h2.185Z" transform="translate(-161.818 -314.09)"/></g></g><g transform="translate(121.351 6.387)"><path class="g" d="M313.834,135.023H224.792a5,5,0,0,1-5.042-5.365l3.4-56.354a5.793,5.793,0,0,1,5.693-5.365h89.02A5,5,0,0,1,322.9,73.3l-3.4,56.376A5.787,5.787,0,0,1,313.834,135.023Z" transform="translate(-218.931 -67.134)"/><path class="g" d="M250.26,167.18l8.211,28.091,24.361-28.091Z" transform="translate(-232.485 -111.204)"/><path class="j" d="M339.064,117.782h-49.9a2.807,2.807,0,0,1-2.83-3.008l1.907-31.588a3.247,3.247,0,0,1,3.191-3.008h49.9a2.78,2.78,0,0,1,2.83,3.008l-1.907,31.588A3.247,3.247,0,0,1,339.064,117.782Z" transform="translate(-248.502 -72.569)"/><path class="j" d="M291.044,142.292H241.138a2.807,2.807,0,0,1-2.824-3.008l1.907-31.588a3.247,3.247,0,0,1,3.185-3.008h49.905a2.78,2.78,0,0,1,2.824,3.008l-1.907,31.588A3.247,3.247,0,0,1,291.044,142.292Z" transform="translate(-227.178 -83.453)"/><g class="r" transform="translate(10.33 4.042)"><path class="e" d="M239.838,75.428a1.712,1.712,0,0,1-1.6,1.668,1.445,1.445,0,0,1-1.356-1.668,1.723,1.723,0,0,1,1.6-1.668,1.445,1.445,0,0,1,1.356,1.668Z" transform="translate(-236.869 -73.76)"/><path class="e" d="M249.624,75.428a1.718,1.718,0,0,1-1.6,1.668,1.445,1.445,0,0,1-1.362-1.668,1.723,1.723,0,0,1,1.6-1.668,1.451,1.451,0,0,1,1.362,1.668Z" transform="translate(-241.212 -73.76)"/><path class="e" d="M259.488,75.428a1.712,1.712,0,0,1-1.6,1.668,1.445,1.445,0,0,1-1.357-1.668,1.723,1.723,0,0,1,1.6-1.668,1.446,1.446,0,0,1,1.357,1.668Z" transform="translate(-245.595 -73.76)"/></g><path class="h" d="M312.5,133.857h-89.02a5.153,5.153,0,0,1-5.181-5.515l3.4-56.354a5.926,5.926,0,0,1,5.826-5.5h89A5.153,5.153,0,0,1,321.708,72l-3.4,56.354A5.932,5.932,0,0,1,312.5,133.857ZM227.528,66.773a5.643,5.643,0,0,0-5.559,5.237l-3.4,56.354a4.864,4.864,0,0,0,4.9,5.22H312.5a5.648,5.648,0,0,0,5.559-5.237l3.4-56.354a4.876,4.876,0,0,0-4.931-5.22Z" transform="translate(-218.287 -66.49)"/><path class="i" d="M282.342,124.073c-.378.8-.723,1.484-1.112,2.224s-.778,1.406-1.179,2.1c-.817,1.384-1.668,2.78-2.579,4.08q-.689,1-1.412,1.985c-.506.645-.984,1.3-1.523,1.929a39.047,39.047,0,0,1-3.4,3.691c-.306.3-.639.556-.962.873a10.794,10.794,0,0,1-1.012.839l-1.067.806-.328.228a4.457,4.457,0,0,1-.45.25,4.563,4.563,0,0,1-4.742-.489,4.749,4.749,0,0,1-.717-.7l-.15-.2-.072-.1-.028-.044-.1-.178-.4-.723c-.122-.233-.206-.456-.306-.684a18.009,18.009,0,0,1-.856-2.585,34.586,34.586,0,0,1-.812-4.887,42.19,42.19,0,0,1-.211-4.825,1.918,1.918,0,0,1,3.758-.489v.067a70.864,70.864,0,0,0,2.73,8.339,13.24,13.24,0,0,0,.862,1.668c.072.111.145.245.217.339l.211.256.05.067h0l-.028-.044-.061-.083a1.736,1.736,0,0,0-.3-.306,1.98,1.98,0,0,0-.756-.378,2.029,2.029,0,0,0-.839,0,1.935,1.935,0,0,0-.417.139c-.072,0-.133.072-.2.106s-.167.117-.094.056l.695-.678c.234-.211.461-.467.689-.712s.461-.484.684-.745a58.334,58.334,0,0,0,4.992-6.971c.762-1.24,1.512-2.5,2.224-3.78l1.073-1.924,1.017-1.879.056-.1a3.836,3.836,0,0,1,6.843,3.452Z" transform="translate(-236.333 -89.65)"/><path class="s" d="M257.707,130.815,255,129.264l2.913-2.974a16.624,16.624,0,0,1,2.363,2.129,1.579,1.579,0,0,1-.445,2.5h0A2.3,2.3,0,0,1,257.707,130.815Z" transform="translate(-234.59 -93.045)"/><path class="s" d="M253.589,124.933l1.473-1.051a.9.9,0,0,1,1.251.189l.806,1.073-2.913,2.974-.917-2.09a.9.9,0,0,1,.3-1.1Z" transform="translate(-233.797 -91.9)"/><path class="e" d="M288.684,121.19a4.13,4.13,0,0,1,3.213-2.863,25.18,25.18,0,0,1,3.274-.5,87.478,87.478,0,0,1,9.945.178c1.734.117,3.508.361,4.92.595h.05a2.863,2.863,0,0,1,2.357,3.286c-.695,4.014-2.735,11-2.958,17.584-.295,8.65-.161,13.631-.311,15.716l-22.265-.428C285.36,133.615,287.289,125.977,288.684,121.19Z" transform="translate(-248.506 -89.258)"/><path class="i" d="M309.29,118.134h-.072c-1.49-.245-3.336-.506-5.187-.628l-.99-.056c-.973,4.025-6.771,10.8-8.528,21.058-.678-8.578-1.2-17.545-.206-21.042a44.258,44.258,0,0,0-4.7.395,4.787,4.787,0,0,0-3.525,3.28c-1.368,4.025-3.98,13.042-2.374,35.212H308.45c.161-2.224-.417-6.893.478-14.082.862-6.96,2.1-16.433,2.83-20.664A3.024,3.024,0,0,0,309.29,118.134Z" transform="translate(-247.113 -89.12)"/><path class="k" d="M302.358,172.9a.145.145,0,0,1-.15-.133,99.066,99.066,0,0,1,.467-15.327.144.144,0,0,1,.161-.128.15.15,0,0,1,.133.161,99.833,99.833,0,0,0-.467,15.266.145.145,0,0,1-.133.161Z" transform="translate(-255.486 -106.82)"/><path class="t" d="M328.171,131.807c-.917,4.158-.428,9.918.556,15.171.728-5.9,1.723-13.553,2.452-18.29C330.161,128.01,328.9,128.488,328.171,131.807Z" transform="translate(-266.868 -93.992)"/><path class="s" d="M302.986,109.086c2.885-.634,3.386-2.413,3.18-4.381a12.508,12.508,0,0,0-.239-1.462l3.6-2.946,2.652-2.157c-.723,3.191-1.518,9.012.662,11.185,0,0-1.779,2.919-6.727,2.563C301.935,111.588,302.986,109.086,302.986,109.086Z" transform="translate(-255.848 -80.545)"/><path class="d" d="M310.331,121.55l-.8.756,2.557.962-.334-.973Z" transform="translate(-258.806 -90.941)"/><path class="c" d="M312.927,122.431s-1.006-2.541-1.957-3.08a10.563,10.563,0,0,0,4.953-2.741l1.518.606S317.919,120.162,312.927,122.431Z" transform="translate(-259.445 -88.747)"/><path class="d" d="M306.78,121.19l.6.956-2.691.233.539-.851Z" transform="translate(-256.656 -90.781)"/><path class="c" d="M301.591,121.793a12.114,12.114,0,0,1,3.441-2.557c-1.462-.434-1.551-2.446-1.551-2.446l-1.418.272S299.462,119.592,301.591,121.793Z" transform="translate(-254.908 -88.827)"/><path class="l" d="M308.37,104.961a12.772,12.772,0,0,1,.239,1.468c1.345-.245,3.147-1.668,3.336-3.03a6.236,6.236,0,0,0,.039-1.379Z" transform="translate(-258.291 -82.268)"/><path class="i" d="M299.866,80.732c-1.29,1.584-1.167,7.316,1.562,7.383S302.212,77.842,299.866,80.732Z" transform="translate(-254.162 -72.588)"/><path class="s" d="M311.718,83.6c-.272,4.342-.217,6.893-2.407,9.139a5.725,5.725,0,0,1-9.656-2.885c-.917-3.891-.317-10.335,3.925-12.1a5.854,5.854,0,0,1,8.139,5.843Z" transform="translate(-254.256 -71.282)"/><path class="i" d="M316.96,81.27c-2.73,2.707.817,4.692-.556,6.149,2.574,1.345,1.629,2.335,1.629,2.335a3.38,3.38,0,0,0,0,2.29c2.9-.745,8.289-10.385,2.407-11.863C316.921,81.748,316.96,81.27,316.96,81.27Z" transform="translate(-261.632 -72.569)"/><path class="i" d="M310.222,80.375c-2.585.4-5.837-.834-7.855-1.879s-2.313.928-1.568,1.529a2.544,2.544,0,0,1-2.529-3.263c.372-2.085,3.1-4.058,6.988-2.3,2.752,1.245,6.143-.395,7.466,1.045S311.946,80.1,310.222,80.375Z" transform="translate(-253.777 -69.729)"/><path class="i" d="M323,77.961c1.734-.228,1.807-1.323,1.323-3.241,1.873,2.663,1.112,3.48,0,4.125C323.083,78.428,323,77.961,323,77.961Z" transform="translate(-264.787 -70.145)"/><path class="s" d="M321.113,92.809a3.969,3.969,0,0,1-1.9,1.94c-1.073.484-1.618-.506-1.329-1.668.261-1.051,1.112-2.563,2.224-2.552S321.6,91.736,321.113,92.809Z" transform="translate(-262.483 -77.165)"/><path class="i" d="M308.812,90.489c0,.35-.189.639-.417.645s-.395-.284-.395-.645.189-.639.417-.639S308.812,90.134,308.812,90.489Z" transform="translate(-258.126 -76.863)"/><path class="i" d="M301.634,90.554c0,.356-.189.639-.423.645s-.417-.284-.411-.639.184-.639.417-.639S301.634,90.2,301.634,90.554Z" transform="translate(-254.929 -76.895)"/><path class="u" d="M303.668,91.28A12.785,12.785,0,0,1,302,94.315a2.029,2.029,0,0,0,1.668.306Z" transform="translate(-255.462 -77.498)"/><path class="i" d="M307.111,97.928a2.93,2.93,0,0,0,2.04-1.184.1.1,0,1,0-.172-.111,2.835,2.835,0,0,1-2.279,1.112.1.1,0,1,0,.006.206A2.586,2.586,0,0,1,307.111,97.928Z" transform="translate(-257.504 -79.854)"/><path class="i" d="M311.557,87.533a.156.156,0,0,0,.095-.039.2.2,0,0,0,.039-.289,2.046,2.046,0,0,0-1.668-.845.2.2,0,0,0-.184.222.217.217,0,0,0,.228.195,1.59,1.59,0,0,1,1.318.678A.206.206,0,0,0,311.557,87.533Z" transform="translate(-258.942 -75.314)"/><path class="i" d="M299.206,87.6a.206.206,0,0,0,.156-.111,1.668,1.668,0,0,1,1.173-.956.195.195,0,0,0,.172-.233.217.217,0,0,0-.233-.178h0a2.079,2.079,0,0,0-1.49,1.179.211.211,0,0,0,.094.278.25.25,0,0,0,.128.022Z" transform="translate(-254.114 -75.206)"/><path class="i" d="M328.3,121.408c.678,1.429,1.245,2.78,1.8,4.169s1.051,2.807,1.545,4.225A70.938,70.938,0,0,1,334,138.631c.128.773.272,1.529.367,2.324l.072.589.039.295v.356a9,9,0,0,1,0,1.729,7.783,7.783,0,0,1-1.262,3.519,7.888,7.888,0,0,1-2.524,2.363,10.563,10.563,0,0,1-2.68,1.112,14.315,14.315,0,0,1-2.557.456,18.29,18.29,0,0,1-4.887-.195,1.912,1.912,0,0,1-.1-3.753l.2-.044c.556-.128,1.284-.284,1.907-.45s1.256-.361,1.846-.556a8.227,8.227,0,0,0,2.807-1.557,1.845,1.845,0,0,0,.484-.734,1.514,1.514,0,0,0,0-.595,3.748,3.748,0,0,0-.083-.445l-.2-.906c-.128-.634-.311-1.29-.478-1.935-.345-1.306-.734-2.613-1.179-3.925s-.9-2.618-1.384-3.925-1-2.613-1.512-3.891-1.062-2.624-1.579-3.841v-.056a3.832,3.832,0,0,1,6.994-3.135Z" transform="translate(-262.997 -89.881)"/><path class="s" d="M316.722,172.638l-2.452,1.179,4.236,1.507s2.824-.9,1.457-2.468l-.762-.239A2.7,2.7,0,0,0,316.722,172.638Z" transform="translate(-260.911 -113.492)"/><path class="s" d="M314.048,177.991l1.862.356a1.3,1.3,0,0,0,1.368-.639l.678-1.218L313.72,175l-.556,1.162a1.29,1.29,0,0,0,.884,1.829Z" transform="translate(-260.361 -114.676)"/></g></svg>