<svg xmlns="http://www.w3.org/2000/svg" width="87.932" height="19.11" viewBox="0 0 87.932 19.11"><defs><style>.a{fill:#424242;}</style></defs><path class="a" d="M6.968,0H8.476V-17.264h6.682V-18.72H.26v1.456H6.968ZM15.99-6.6H27.326c.078-4.914-2.314-7.826-6.422-7.826-4.03,0-6.526,2.834-6.526,7.436C14.378-2.47,16.926.39,20.956.39a6.471,6.471,0,0,0,6.084-3.8L25.688-4A5.1,5.1,0,0,1,20.9-1.066C17.888-1.066,16.12-3.094,15.99-6.6ZM20.93-13c2.86,0,4.5,1.768,4.81,5.044H16.016C16.3-11.18,18.018-13,20.93-13ZM35.386.364c3.406,0,5.46-1.56,5.46-4.16,0-2.184-1.2-3.146-5.252-4.16-3.328-.832-4.186-1.43-4.186-2.652,0-1.456,1.508-2.444,3.666-2.418C37.362-13,39-11.882,39.312-10.088l1.534-.26c-.26-2.418-2.6-4.082-5.72-4.082s-5.278,1.586-5.278,3.9c0,1.924,1.144,2.782,5.07,3.848,3.692,1.014,4.342,1.456,4.342,2.86,0,1.716-1.456,2.782-3.8,2.782s-4.056-1.066-4.5-2.756l-1.534.286C29.926-1.092,32.162.364,35.386.364Zm11.44-13.052h4.368V-14.04H46.826v-3.9H45.318v3.9H42.172v1.352h3.146v7.826a7.255,7.255,0,0,0,.416,3.2C46.618.156,48.932.494,51.194,0V-1.352c-2.106.338-3.458.182-4.082-1.04a5.312,5.312,0,0,1-.286-2.522ZM53.872,0H56.81V-12.012L62.556,0H63.8l5.72-12.012V0h2.938V-18.72H69.654L63.18-5.46l-6.5-13.26H53.872ZM76.1,0h12.09V-2.938h-8.97v-5.3h7.41v-2.912h-7.41v-4.628h8.97V-18.72H76.1Z" transform="translate(-0.26 18.72)"/></svg>