<svg xmlns="http://www.w3.org/2000/svg" width="130.192" height="28.294" viewBox="0 0 130.192 28.294"><defs><style>.a{fill:#c1c8ce;}</style></defs><g transform="translate(0)"><path class="a" d="M10.192,9h2.233V-16.564h9.893V-18.72H.26v2.156h9.932ZM23.55-.781H40.334c.115-7.276-3.426-11.587-9.508-11.587-5.967,0-9.662,4.2-9.662,11.01,0,6.7,3.773,10.933,9.739,10.933a9.581,9.581,0,0,0,9.008-5.62l-2-.885a7.557,7.557,0,0,1-7.083,4.35C26.36,7.418,23.742,4.416,23.55-.781Zm7.314-9.47c4.235,0,6.66,2.618,7.122,7.468h-14.4C24.012-7.556,26.552-10.251,30.864-10.251Zm21.4,19.787c5.043,0,8.084-2.31,8.084-6.159,0-3.234-1.771-4.658-7.776-6.159-4.927-1.232-6.2-2.117-6.2-3.927,0-2.156,2.233-3.619,5.428-3.58,3.388.038,5.813,1.694,6.275,4.35l2.271-.385c-.385-3.58-3.85-6.044-8.469-6.044s-7.815,2.348-7.815,5.774c0,2.849,1.694,4.119,7.507,5.7C57.041.6,58,1.259,58,3.338c0,2.541-2.156,4.119-5.62,4.119s-6.005-1.578-6.66-4.081L43.452,3.8C44.183,7.38,47.494,9.536,52.268,9.536ZM69.206-9.789h6.467v-2H69.206v-5.774H66.973v5.774H62.315v2h4.658V1.8a10.742,10.742,0,0,0,.616,4.735C68.9,9.228,72.324,9.728,75.673,9V7c-3.118.5-5.12.269-6.044-1.54-.5-.924-.423-1.963-.423-3.734ZM79.638,9h4.35V-8.788L92.5,9h1.848l8.469-17.785V9h4.35V-18.72H103L93.419.913,83.8-18.72H79.638Zm32.914,0h17.9V4.647H117.171V-3.206h10.971V-7.518H117.171V-14.37h13.281v-4.35h-17.9Z" transform="translate(-0.26 18.72)"/></g></svg>